<ttFont>
    <TTGlyph name=".notdef" xMin="0" yMin="0" xMax="500" yMax="700">
      <contour>
        <pt x="500" y="0" on="1"/>
        <pt x="0" y="0" on="1"/>
        <pt x="0" y="700" on="1"/>
        <pt x="500" y="700" on="1"/>
      </contour>
      <contour>
        <pt x="450" y="50" on="1"/>
        <pt x="450" y="650" on="1"/>
        <pt x="50" y="650" on="1"/>
        <pt x="50" y="50" on="1"/>
      </contour>
      <contour>
        <pt x="425" y="133" on="1"/>
        <pt x="386" y="101" on="1"/>
        <pt x="250" y="305" on="1"/>
        <pt x="113" y="100" on="1"/>
        <pt x="73" y="129" on="1"/>
        <pt x="220" y="350" on="1"/>
        <pt x="73" y="571" on="1"/>
        <pt x="113" y="600" on="1"/>
        <pt x="250" y="395" on="1"/>
        <pt x="386" y="599" on="1"/>
        <pt x="425" y="567" on="1"/>
        <pt x="280" y="350" on="1"/>
      </contour>
    </TTGlyph>
    <TTGlyph name="A" xMin="12" yMin="0" xMax="517" yMax="700">
      <contour>
        <pt x="517" y="0" on="1"/>
        <pt x="457" y="0" on="1"/>
        <pt x="377" y="245" on="1"/>
        <pt x="149" y="245" on="1"/>
        <pt x="71" y="0" on="1"/>
        <pt x="12" y="0" on="1"/>
        <pt x="236" y="700" on="1"/>
        <pt x="289" y="700" on="1"/>
      </contour>
      <contour>
        <pt x="362" y="300" on="1"/>
        <pt x="262" y="613" on="1"/>
        <pt x="165" y="300" on="1"/>
      </contour>
    </TTGlyph>
    <TTGlyph name="AE" xMin="78" yMin="0" xMax="779" yMax="700">
      <contour>
        <pt x="777" y="0" on="1"/>
        <pt x="444" y="0" on="1"/>
        <pt x="445" y="245" on="1"/>
        <pt x="265" y="245" on="1"/>
        <pt x="137" y="0" on="1"/>
        <pt x="78" y="0" on="1"/>
        <pt x="444" y="700" on="1"/>
        <pt x="779" y="700" on="1"/>
        <pt x="779" y="648" on="1"/>
        <pt x="501" y="648" on="1"/>
        <pt x="501" y="413" on="1"/>
        <pt x="692" y="413" on="1"/>
        <pt x="673" y="358" on="1"/>
        <pt x="501" y="358" on="1"/>
        <pt x="501" y="50" on="1"/>
        <pt x="777" y="50" on="1"/>
      </contour>
      <contour>
        <pt x="445" y="300" on="1"/>
        <pt x="445" y="590" on="1"/>
        <pt x="293" y="300" on="1"/>
      </contour>
    </TTGlyph>
    <TTGlyph name="Aacute" xMin="12" yMin="0" xMax="517" yMax="872">
      <contour>
        <pt x="517" y="0" on="1"/>
        <pt x="457" y="0" on="1"/>
        <pt x="377" y="245" on="1"/>
        <pt x="149" y="245" on="1"/>
        <pt x="71" y="0" on="1"/>
        <pt x="12" y="0" on="1"/>
        <pt x="236" y="700" on="1"/>
        <pt x="289" y="700" on="1"/>
      </contour>
      <contour>
        <pt x="362" y="300" on="1"/>
        <pt x="262" y="613" on="1"/>
        <pt x="165" y="300" on="1"/>
      </contour>
      <contour>
        <pt x="286" y="731" on="1"/>
        <pt x="242" y="731" on="1"/>
        <pt x="293" y="849" on="1"/>
        <pt x="304" y="872" on="0"/>
        <pt x="325" y="872" on="1"/>
        <pt x="352" y="872" on="0"/>
        <pt x="358" y="849" on="1"/>
        <pt x="360" y="843" on="0"/>
        <pt x="360" y="829" on="0"/>
        <pt x="355" y="823" on="1"/>
      </contour>
    </TTGlyph>
    <TTGlyph name="Abreve" xMin="12" yMin="0" xMax="517" yMax="848">
      <contour>
        <pt x="517" y="0" on="1"/>
        <pt x="457" y="0" on="1"/>
        <pt x="377" y="245" on="1"/>
        <pt x="149" y="245" on="1"/>
        <pt x="71" y="0" on="1"/>
        <pt x="12" y="0" on="1"/>
        <pt x="236" y="700" on="1"/>
        <pt x="289" y="700" on="1"/>
      </contour>
      <contour>
        <pt x="362" y="300" on="1"/>
        <pt x="262" y="613" on="1"/>
        <pt x="165" y="300" on="1"/>
      </contour>
      <contour>
        <pt x="378" y="848" on="1"/>
        <pt x="378" y="843" on="1"/>
        <pt x="378" y="796" on="0"/>
        <pt x="312" y="730" on="0"/>
        <pt x="218" y="730" on="0"/>
        <pt x="152" y="796" on="0"/>
        <pt x="152" y="843" on="1"/>
        <pt x="152" y="848" on="1"/>
        <pt x="197" y="848" on="1"/>
        <pt x="197" y="843" on="1"/>
        <pt x="197" y="814" on="0"/>
        <pt x="236" y="775" on="0"/>
        <pt x="294" y="775" on="0"/>
        <pt x="333" y="814" on="0"/>
        <pt x="333" y="843" on="1"/>
        <pt x="333" y="848" on="1"/>
      </contour>
    </TTGlyph>
    <TTGlyph name="Acircumflex" xMin="12" yMin="0" xMax="517" yMax="913">
      <contour>
        <pt x="517" y="0" on="1"/>
        <pt x="457" y="0" on="1"/>
        <pt x="377" y="245" on="1"/>
        <pt x="149" y="245" on="1"/>
        <pt x="71" y="0" on="1"/>
        <pt x="12" y="0" on="1"/>
        <pt x="236" y="700" on="1"/>
        <pt x="289" y="700" on="1"/>
      </contour>
      <contour>
        <pt x="362" y="300" on="1"/>
        <pt x="262" y="613" on="1"/>
        <pt x="165" y="300" on="1"/>
      </contour>
      <contour>
        <pt x="370" y="733" on="1"/>
        <pt x="265" y="837" on="1"/>
        <pt x="156" y="733" on="1"/>
        <pt x="118" y="772" on="1"/>
        <pt x="266" y="913" on="1"/>
        <pt x="408" y="772" on="1"/>
      </contour>
    </TTGlyph>
    <TTGlyph name="Adieresis" xMin="12" yMin="0" xMax="517" yMax="797">
      <contour>
        <pt x="517" y="0" on="1"/>
        <pt x="457" y="0" on="1"/>
        <pt x="377" y="245" on="1"/>
        <pt x="149" y="245" on="1"/>
        <pt x="71" y="0" on="1"/>
        <pt x="12" y="0" on="1"/>
        <pt x="236" y="700" on="1"/>
        <pt x="289" y="700" on="1"/>
      </contour>
      <contour>
        <pt x="362" y="300" on="1"/>
        <pt x="262" y="613" on="1"/>
        <pt x="165" y="300" on="1"/>
      </contour>
      <contour>
        <pt x="198" y="731" on="0"/>
        <pt x="170" y="731" on="0"/>
        <pt x="151" y="750" on="0"/>
        <pt x="151" y="778" on="0"/>
        <pt x="170" y="797" on="0"/>
        <pt x="198" y="797" on="0"/>
        <pt x="217" y="778" on="0"/>
        <pt x="217" y="750" on="0"/>
      </contour>
      <contour>
        <pt x="354" y="731" on="0"/>
        <pt x="326" y="731" on="0"/>
        <pt x="307" y="750" on="0"/>
        <pt x="307" y="778" on="0"/>
        <pt x="326" y="797" on="0"/>
        <pt x="354" y="797" on="0"/>
        <pt x="373" y="778" on="0"/>
        <pt x="373" y="750" on="0"/>
      </contour>
    </TTGlyph>
    <TTGlyph name="Agrave" xMin="12" yMin="0" xMax="517" yMax="874">
      <contour>
        <pt x="517" y="0" on="1"/>
        <pt x="457" y="0" on="1"/>
        <pt x="377" y="245" on="1"/>
        <pt x="149" y="245" on="1"/>
        <pt x="71" y="0" on="1"/>
        <pt x="12" y="0" on="1"/>
        <pt x="236" y="700" on="1"/>
        <pt x="289" y="700" on="1"/>
      </contour>
      <contour>
        <pt x="362" y="300" on="1"/>
        <pt x="262" y="613" on="1"/>
        <pt x="165" y="300" on="1"/>
      </contour>
      <contour>
        <pt x="274" y="733" on="1"/>
        <pt x="230" y="733" on="1"/>
        <pt x="161" y="825" on="1"/>
        <pt x="156" y="831" on="0"/>
        <pt x="156" y="838" on="1"/>
        <pt x="156" y="865" on="0"/>
        <pt x="178" y="872" on="1"/>
        <pt x="185" y="874" on="0"/>
        <pt x="191" y="874" on="1"/>
        <pt x="212" y="874" on="0"/>
        <pt x="223" y="851" on="1"/>
      </contour>
    </TTGlyph>
    <TTGlyph name="Alpha" xMin="12" yMin="0" xMax="517" yMax="700">
      <contour>
        <pt x="517" y="0" on="1"/>
        <pt x="457" y="0" on="1"/>
        <pt x="377" y="245" on="1"/>
        <pt x="149" y="245" on="1"/>
        <pt x="71" y="0" on="1"/>
        <pt x="12" y="0" on="1"/>
        <pt x="236" y="700" on="1"/>
        <pt x="289" y="700" on="1"/>
      </contour>
      <contour>
        <pt x="362" y="300" on="1"/>
        <pt x="262" y="613" on="1"/>
        <pt x="165" y="300" on="1"/>
      </contour>
    </TTGlyph>
    <TTGlyph name="Alphatonos" xMin="78" yMin="0" xMax="583" yMax="709">
      <contour>
        <pt x="583" y="0" on="1"/>
        <pt x="523" y="0" on="1"/>
        <pt x="443" y="245" on="1"/>
        <pt x="215" y="245" on="1"/>
        <pt x="137" y="0" on="1"/>
        <pt x="78" y="0" on="1"/>
        <pt x="302" y="700" on="1"/>
        <pt x="355" y="700" on="1"/>
      </contour>
      <contour>
        <pt x="428" y="300" on="1"/>
        <pt x="328" y="613" on="1"/>
        <pt x="231" y="300" on="1"/>
      </contour>
      <contour>
        <pt x="128" y="568" on="1"/>
        <pt x="84" y="568" on="1"/>
        <pt x="135" y="686" on="1"/>
        <pt x="146" y="709" on="0"/>
        <pt x="167" y="709" on="1"/>
        <pt x="194" y="709" on="0"/>
        <pt x="200" y="686" on="1"/>
        <pt x="202" y="680" on="0"/>
        <pt x="202" y="666" on="0"/>
        <pt x="197" y="660" on="1"/>
      </contour>
    </TTGlyph>
    <TTGlyph name="Amacron" xMin="12" yMin="0" xMax="517" yMax="788">
      <contour>
        <pt x="517" y="0" on="1"/>
        <pt x="457" y="0" on="1"/>
        <pt x="377" y="245" on="1"/>
        <pt x="149" y="245" on="1"/>
        <pt x="71" y="0" on="1"/>
        <pt x="12" y="0" on="1"/>
        <pt x="236" y="700" on="1"/>
        <pt x="289" y="700" on="1"/>
      </contour>
      <contour>
        <pt x="362" y="300" on="1"/>
        <pt x="262" y="613" on="1"/>
        <pt x="165" y="300" on="1"/>
      </contour>
      <contour>
        <pt x="368" y="730" on="1"/>
        <pt x="151" y="730" on="1"/>
        <pt x="151" y="788" on="1"/>
        <pt x="368" y="788" on="1"/>
      </contour>
    </TTGlyph>
    <TTGlyph name="Aogonek" xMin="78" yMin="-213" xMax="617" yMax="700">
      <contour>
        <pt x="582" y="0" on="1"/>
        <pt x="478" y="-87" on="0"/>
        <pt x="478" y="-127" on="1"/>
        <pt x="478" y="-142" on="0"/>
        <pt x="497" y="-166" on="0"/>
        <pt x="539" y="-166" on="0"/>
        <pt x="566" y="-147" on="0"/>
        <pt x="580" y="-125" on="1"/>
        <pt x="617" y="-163" on="1"/>
        <pt x="585" y="-213" on="0"/>
        <pt x="520" y="-213" on="1"/>
        <pt x="503" y="-213" on="0"/>
        <pt x="467" y="-204" on="0"/>
        <pt x="428" y="-164" on="0"/>
        <pt x="428" y="-131" on="1"/>
        <pt x="428" y="-63" on="0"/>
        <pt x="524" y="0" on="1"/>
        <pt x="523" y="0" on="1"/>
        <pt x="443" y="245" on="1"/>
        <pt x="215" y="245" on="1"/>
        <pt x="137" y="0" on="1"/>
        <pt x="78" y="0" on="1"/>
        <pt x="302" y="700" on="1"/>
        <pt x="355" y="700" on="1"/>
        <pt x="583" y="0" on="1"/>
      </contour>
      <contour>
        <pt x="428" y="300" on="1"/>
        <pt x="328" y="613" on="1"/>
        <pt x="231" y="300" on="1"/>
      </contour>
    </TTGlyph>
    <TTGlyph name="Aring" xMin="12" yMin="0" xMax="517" yMax="883">
      <contour>
        <pt x="517" y="0" on="1"/>
        <pt x="457" y="0" on="1"/>
        <pt x="377" y="245" on="1"/>
        <pt x="149" y="245" on="1"/>
        <pt x="71" y="0" on="1"/>
        <pt x="12" y="0" on="1"/>
        <pt x="224" y="664" on="1"/>
        <pt x="191" y="676" on="0"/>
        <pt x="150" y="734" on="0"/>
        <pt x="150" y="816" on="0"/>
        <pt x="216" y="883" on="0"/>
        <pt x="310" y="883" on="0"/>
        <pt x="376" y="816" on="0"/>
        <pt x="376" y="734" on="0"/>
        <pt x="334" y="675" on="0"/>
        <pt x="301" y="664" on="1"/>
      </contour>
      <contour>
        <pt x="362" y="300" on="1"/>
        <pt x="262" y="613" on="1"/>
        <pt x="165" y="300" on="1"/>
      </contour>
      <contour>
        <pt x="331" y="742" on="0"/>
        <pt x="331" y="798" on="0"/>
        <pt x="292" y="838" on="0"/>
        <pt x="234" y="838" on="0"/>
        <pt x="195" y="798" on="0"/>
        <pt x="195" y="742" on="0"/>
        <pt x="234" y="702" on="0"/>
        <pt x="292" y="702" on="0"/>
      </contour>
    </TTGlyph>
    <TTGlyph name="Atilde" xMin="12" yMin="0" xMax="517" yMax="826">
      <contour>
        <pt x="517" y="0" on="1"/>
        <pt x="457" y="0" on="1"/>
        <pt x="377" y="245" on="1"/>
        <pt x="149" y="245" on="1"/>
        <pt x="71" y="0" on="1"/>
        <pt x="12" y="0" on="1"/>
        <pt x="236" y="700" on="1"/>
        <pt x="289" y="700" on="1"/>
      </contour>
      <contour>
        <pt x="362" y="300" on="1"/>
        <pt x="262" y="613" on="1"/>
        <pt x="165" y="300" on="1"/>
      </contour>
      <contour>
        <pt x="335" y="785" on="1"/>
        <pt x="374" y="785" on="0"/>
        <pt x="405" y="820" on="1"/>
        <pt x="430" y="781" on="1"/>
        <pt x="385" y="728" on="0"/>
        <pt x="334" y="728" on="1"/>
        <pt x="316" y="728" on="0"/>
        <pt x="271" y="747" on="0"/>
        <pt x="221" y="770" on="0"/>
        <pt x="196" y="770" on="1"/>
        <pt x="155" y="770" on="0"/>
        <pt x="121" y="734" on="1"/>
        <pt x="96" y="773" on="1"/>
        <pt x="143" y="826" on="0"/>
        <pt x="196" y="826" on="1"/>
        <pt x="214" y="826" on="0"/>
        <pt x="259" y="808" on="0"/>
        <pt x="310" y="785" on="0"/>
      </contour>
    </TTGlyph>
    <TTGlyph name="B" xMin="78" yMin="0" xMax="511" yMax="700">
      <contour>
        <pt x="308" y="0" on="1"/>
        <pt x="78" y="0" on="1"/>
        <pt x="78" y="700" on="1"/>
        <pt x="299" y="700" on="1"/>
        <pt x="381" y="700" on="0"/>
        <pt x="475" y="616" on="0"/>
        <pt x="475" y="439" on="0"/>
        <pt x="409" y="394" on="1"/>
        <pt x="408" y="393" on="0"/>
        <pt x="408" y="392" on="1"/>
        <pt x="408" y="391" on="1"/>
        <pt x="452" y="371" on="0"/>
        <pt x="511" y="281" on="0"/>
        <pt x="511" y="209" on="1"/>
        <pt x="511" y="129" on="0"/>
        <pt x="470" y="70" on="1"/>
        <pt x="449" y="38" on="0"/>
        <pt x="366" y="0" on="0"/>
      </contour>
      <contour>
        <pt x="134" y="413" on="1"/>
        <pt x="297" y="413" on="1"/>
        <pt x="353" y="413" on="0"/>
        <pt x="417" y="473" on="0"/>
        <pt x="417" y="530" on="1"/>
        <pt x="417" y="647" on="0"/>
        <pt x="291" y="647" on="1"/>
        <pt x="134" y="647" on="1"/>
      </contour>
      <contour>
        <pt x="134" y="53" on="1"/>
        <pt x="306" y="53" on="1"/>
        <pt x="451" y="53" on="0"/>
        <pt x="451" y="213" on="1"/>
        <pt x="451" y="283" on="0"/>
        <pt x="375" y="358" on="0"/>
        <pt x="323" y="358" on="1"/>
        <pt x="134" y="358" on="1"/>
      </contour>
    </TTGlyph>
    <TTGlyph name="Beta" xMin="78" yMin="0" xMax="511" yMax="700">
      <contour>
        <pt x="308" y="0" on="1"/>
        <pt x="78" y="0" on="1"/>
        <pt x="78" y="700" on="1"/>
        <pt x="299" y="700" on="1"/>
        <pt x="381" y="700" on="0"/>
        <pt x="475" y="616" on="0"/>
        <pt x="475" y="439" on="0"/>
        <pt x="409" y="394" on="1"/>
        <pt x="408" y="393" on="0"/>
        <pt x="408" y="392" on="1"/>
        <pt x="408" y="391" on="1"/>
        <pt x="452" y="371" on="0"/>
        <pt x="511" y="281" on="0"/>
        <pt x="511" y="209" on="1"/>
        <pt x="511" y="129" on="0"/>
        <pt x="470" y="70" on="1"/>
        <pt x="449" y="38" on="0"/>
        <pt x="366" y="0" on="0"/>
      </contour>
      <contour>
        <pt x="134" y="413" on="1"/>
        <pt x="297" y="413" on="1"/>
        <pt x="353" y="413" on="0"/>
        <pt x="417" y="473" on="0"/>
        <pt x="417" y="530" on="1"/>
        <pt x="417" y="647" on="0"/>
        <pt x="291" y="647" on="1"/>
        <pt x="134" y="647" on="1"/>
      </contour>
      <contour>
        <pt x="134" y="53" on="1"/>
        <pt x="306" y="53" on="1"/>
        <pt x="451" y="53" on="0"/>
        <pt x="451" y="213" on="1"/>
        <pt x="451" y="283" on="0"/>
        <pt x="375" y="358" on="0"/>
        <pt x="323" y="358" on="1"/>
        <pt x="134" y="358" on="1"/>
      </contour>
    </TTGlyph>
    <TTGlyph name="C" xMin="66" yMin="-10" xMax="427" yMax="710">
      <contour>
        <pt x="427" y="23" on="1"/>
        <pt x="342" y="-10" on="0"/>
        <pt x="265" y="-10" on="1"/>
        <pt x="249" y="-10" on="0"/>
        <pt x="184" y="-4" on="0"/>
        <pt x="111" y="35" on="0"/>
        <pt x="66" y="120" on="0"/>
        <pt x="66" y="183" on="1"/>
        <pt x="66" y="504" on="1"/>
        <pt x="66" y="580" on="0"/>
        <pt x="109" y="658" on="0"/>
        <pt x="153" y="685" on="1"/>
        <pt x="198" y="710" on="0"/>
        <pt x="260" y="710" on="1"/>
        <pt x="337" y="710" on="0"/>
        <pt x="402" y="677" on="1"/>
        <pt x="386" y="639" on="1"/>
        <pt x="329" y="660" on="0"/>
        <pt x="278" y="660" on="1"/>
        <pt x="122" y="660" on="0"/>
        <pt x="122" y="513" on="1"/>
        <pt x="122" y="185" on="1"/>
        <pt x="122" y="54" on="0"/>
        <pt x="249" y="42" on="1"/>
        <pt x="259" y="40" on="0"/>
        <pt x="270" y="40" on="1"/>
        <pt x="330" y="40" on="0"/>
        <pt x="415" y="70" on="1"/>
      </contour>
    </TTGlyph>
    <TTGlyph name="Cacute" xMin="66" yMin="-10" xMax="427" yMax="875">
      <contour>
        <pt x="427" y="23" on="1"/>
        <pt x="342" y="-10" on="0"/>
        <pt x="265" y="-10" on="1"/>
        <pt x="249" y="-10" on="0"/>
        <pt x="184" y="-4" on="0"/>
        <pt x="111" y="35" on="0"/>
        <pt x="66" y="120" on="0"/>
        <pt x="66" y="183" on="1"/>
        <pt x="66" y="504" on="1"/>
        <pt x="66" y="580" on="0"/>
        <pt x="109" y="658" on="0"/>
        <pt x="153" y="685" on="1"/>
        <pt x="198" y="710" on="0"/>
        <pt x="260" y="710" on="1"/>
        <pt x="337" y="710" on="0"/>
        <pt x="402" y="677" on="1"/>
        <pt x="386" y="639" on="1"/>
        <pt x="329" y="660" on="0"/>
        <pt x="278" y="660" on="1"/>
        <pt x="122" y="660" on="0"/>
        <pt x="122" y="513" on="1"/>
        <pt x="122" y="185" on="1"/>
        <pt x="122" y="54" on="0"/>
        <pt x="249" y="42" on="1"/>
        <pt x="259" y="40" on="0"/>
        <pt x="270" y="40" on="1"/>
        <pt x="330" y="40" on="0"/>
        <pt x="415" y="70" on="1"/>
      </contour>
      <contour>
        <pt x="278" y="734" on="1"/>
        <pt x="234" y="734" on="1"/>
        <pt x="285" y="852" on="1"/>
        <pt x="296" y="875" on="0"/>
        <pt x="317" y="875" on="1"/>
        <pt x="344" y="875" on="0"/>
        <pt x="350" y="852" on="1"/>
        <pt x="352" y="846" on="0"/>
        <pt x="352" y="832" on="0"/>
        <pt x="347" y="826" on="1"/>
      </contour>
    </TTGlyph>
    <TTGlyph name="Ccaron" xMin="66" yMin="-10" xMax="427" yMax="913">
      <contour>
        <pt x="427" y="23" on="1"/>
        <pt x="342" y="-10" on="0"/>
        <pt x="265" y="-10" on="1"/>
        <pt x="249" y="-10" on="0"/>
        <pt x="184" y="-4" on="0"/>
        <pt x="111" y="35" on="0"/>
        <pt x="66" y="120" on="0"/>
        <pt x="66" y="183" on="1"/>
        <pt x="66" y="504" on="1"/>
        <pt x="66" y="580" on="0"/>
        <pt x="109" y="658" on="0"/>
        <pt x="153" y="685" on="1"/>
        <pt x="198" y="710" on="0"/>
        <pt x="260" y="710" on="1"/>
        <pt x="337" y="710" on="0"/>
        <pt x="402" y="677" on="1"/>
        <pt x="386" y="639" on="1"/>
        <pt x="329" y="660" on="0"/>
        <pt x="278" y="660" on="1"/>
        <pt x="122" y="660" on="0"/>
        <pt x="122" y="513" on="1"/>
        <pt x="122" y="185" on="1"/>
        <pt x="122" y="54" on="0"/>
        <pt x="249" y="42" on="1"/>
        <pt x="259" y="40" on="0"/>
        <pt x="270" y="40" on="1"/>
        <pt x="330" y="40" on="0"/>
        <pt x="415" y="70" on="1"/>
      </contour>
      <contour>
        <pt x="398" y="874" on="1"/>
        <pt x="256" y="733" on="1"/>
        <pt x="108" y="874" on="1"/>
        <pt x="146" y="913" on="1"/>
        <pt x="255" y="809" on="1"/>
        <pt x="360" y="913" on="1"/>
      </contour>
    </TTGlyph>
    <TTGlyph name="Ccedilla" xMin="66" yMin="-210" xMax="427" yMax="710">
      <contour>
        <pt x="415" y="70" on="1"/>
        <pt x="427" y="23" on="1"/>
        <pt x="345" y="-8" on="0"/>
        <pt x="266" y="-10" on="1"/>
        <pt x="234" y="-53" on="1"/>
        <pt x="243" y="-47" on="0"/>
        <pt x="304" y="-47" on="0"/>
        <pt x="351" y="-86" on="0"/>
        <pt x="351" y="-169" on="0"/>
        <pt x="277" y="-210" on="0"/>
        <pt x="187" y="-210" on="0"/>
        <pt x="135" y="-191" on="1"/>
        <pt x="159" y="-138" on="1"/>
        <pt x="196" y="-163" on="0"/>
        <pt x="228" y="-163" on="1"/>
        <pt x="299" y="-163" on="0"/>
        <pt x="299" y="-121" on="1"/>
        <pt x="299" y="-99" on="0"/>
        <pt x="278" y="-89" on="1"/>
        <pt x="270" y="-85" on="0"/>
        <pt x="242" y="-85" on="0"/>
        <pt x="222" y="-92" on="1"/>
        <pt x="188" y="-106" on="1"/>
        <pt x="171" y="-78" on="1"/>
        <pt x="225" y="-8" on="1"/>
        <pt x="153" y="0" on="0"/>
        <pt x="66" y="92" on="0"/>
        <pt x="66" y="183" on="1"/>
        <pt x="66" y="504" on="1"/>
        <pt x="66" y="580" on="0"/>
        <pt x="109" y="658" on="0"/>
        <pt x="153" y="685" on="1"/>
        <pt x="198" y="710" on="0"/>
        <pt x="260" y="710" on="1"/>
        <pt x="337" y="710" on="0"/>
        <pt x="402" y="677" on="1"/>
        <pt x="386" y="639" on="1"/>
        <pt x="329" y="660" on="0"/>
        <pt x="278" y="660" on="1"/>
        <pt x="122" y="660" on="0"/>
        <pt x="122" y="513" on="1"/>
        <pt x="122" y="185" on="1"/>
        <pt x="122" y="54" on="0"/>
        <pt x="249" y="42" on="1"/>
        <pt x="259" y="40" on="0"/>
        <pt x="270" y="40" on="1"/>
        <pt x="330" y="40" on="0"/>
      </contour>
    </TTGlyph>
    <TTGlyph name="Ccircumflex" xMin="66" yMin="-10" xMax="427" yMax="913">
      <contour>
        <pt x="383" y="733" on="1"/>
        <pt x="278" y="837" on="1"/>
        <pt x="169" y="733" on="1"/>
        <pt x="131" y="772" on="1"/>
        <pt x="279" y="913" on="1"/>
        <pt x="421" y="772" on="1"/>
      </contour>
      <contour>
        <pt x="427" y="23" on="1"/>
        <pt x="342" y="-10" on="0"/>
        <pt x="265" y="-10" on="1"/>
        <pt x="249" y="-10" on="0"/>
        <pt x="184" y="-4" on="0"/>
        <pt x="111" y="35" on="0"/>
        <pt x="66" y="120" on="0"/>
        <pt x="66" y="183" on="1"/>
        <pt x="66" y="504" on="1"/>
        <pt x="66" y="580" on="0"/>
        <pt x="109" y="658" on="0"/>
        <pt x="153" y="685" on="1"/>
        <pt x="198" y="710" on="0"/>
        <pt x="260" y="710" on="1"/>
        <pt x="337" y="710" on="0"/>
        <pt x="402" y="677" on="1"/>
        <pt x="386" y="639" on="1"/>
        <pt x="329" y="660" on="0"/>
        <pt x="278" y="660" on="1"/>
        <pt x="122" y="660" on="0"/>
        <pt x="122" y="513" on="1"/>
        <pt x="122" y="185" on="1"/>
        <pt x="122" y="54" on="0"/>
        <pt x="249" y="42" on="1"/>
        <pt x="259" y="40" on="0"/>
        <pt x="270" y="40" on="1"/>
        <pt x="330" y="40" on="0"/>
        <pt x="415" y="70" on="1"/>
      </contour>
    </TTGlyph>
    <TTGlyph name="Cdotaccent" xMin="66" yMin="-10" xMax="427" yMax="797">
      <contour>
        <pt x="427" y="23" on="1"/>
        <pt x="342" y="-10" on="0"/>
        <pt x="265" y="-10" on="1"/>
        <pt x="249" y="-10" on="0"/>
        <pt x="184" y="-4" on="0"/>
        <pt x="111" y="35" on="0"/>
        <pt x="66" y="120" on="0"/>
        <pt x="66" y="183" on="1"/>
        <pt x="66" y="504" on="1"/>
        <pt x="66" y="580" on="0"/>
        <pt x="109" y="658" on="0"/>
        <pt x="153" y="685" on="1"/>
        <pt x="198" y="710" on="0"/>
        <pt x="260" y="710" on="1"/>
        <pt x="337" y="710" on="0"/>
        <pt x="402" y="677" on="1"/>
        <pt x="386" y="639" on="1"/>
        <pt x="329" y="660" on="0"/>
        <pt x="278" y="660" on="1"/>
        <pt x="122" y="660" on="0"/>
        <pt x="122" y="513" on="1"/>
        <pt x="122" y="185" on="1"/>
        <pt x="122" y="54" on="0"/>
        <pt x="249" y="42" on="1"/>
        <pt x="259" y="40" on="0"/>
        <pt x="270" y="40" on="1"/>
        <pt x="330" y="40" on="0"/>
        <pt x="415" y="70" on="1"/>
      </contour>
      <contour>
        <pt x="299" y="750" on="0"/>
        <pt x="279" y="730" on="0"/>
        <pt x="252" y="730" on="0"/>
        <pt x="232" y="750" on="0"/>
        <pt x="232" y="777" on="0"/>
        <pt x="252" y="797" on="0"/>
        <pt x="280" y="797" on="0"/>
        <pt x="299" y="778" on="0"/>
      </contour>
    </TTGlyph>
    <TTGlyph name="Chi" xMin="78" yMin="0" xMax="585" yMax="700">
      <contour>
        <pt x="585" y="0" on="1"/>
        <pt x="516" y="0" on="1"/>
        <pt x="332" y="294" on="1"/>
        <pt x="147" y="0" on="1"/>
        <pt x="78" y="0" on="1"/>
        <pt x="299" y="352" on="1"/>
        <pt x="97" y="700" on="1"/>
        <pt x="160" y="700" on="1"/>
        <pt x="332" y="406" on="1"/>
        <pt x="506" y="700" on="1"/>
        <pt x="569" y="700" on="1"/>
        <pt x="366" y="352" on="1"/>
      </contour>
    </TTGlyph>
    <TTGlyph name="D" xMin="78" yMin="0" xMax="498" yMax="701">
      <contour>
        <pt x="286" y="0" on="1"/>
        <pt x="78" y="0" on="1"/>
        <pt x="78" y="701" on="1"/>
        <pt x="266" y="701" on="1"/>
        <pt x="379" y="701" on="0"/>
        <pt x="498" y="577" on="0"/>
        <pt x="498" y="474" on="1"/>
        <pt x="498" y="200" on="1"/>
        <pt x="498" y="0" on="0"/>
      </contour>
      <contour>
        <pt x="442" y="190" on="1"/>
        <pt x="442" y="484" on="1"/>
        <pt x="442" y="568" on="0"/>
        <pt x="342" y="650" on="0"/>
        <pt x="276" y="650" on="1"/>
        <pt x="134" y="650" on="1"/>
        <pt x="134" y="50" on="1"/>
        <pt x="270" y="50" on="1"/>
        <pt x="442" y="50" on="0"/>
      </contour>
    </TTGlyph>
    <TTGlyph name="Dcaron" xMin="78" yMin="0" xMax="498" yMax="914">
      <contour>
        <pt x="286" y="0" on="1"/>
        <pt x="78" y="0" on="1"/>
        <pt x="78" y="701" on="1"/>
        <pt x="266" y="701" on="1"/>
        <pt x="379" y="701" on="0"/>
        <pt x="498" y="577" on="0"/>
        <pt x="498" y="474" on="1"/>
        <pt x="498" y="200" on="1"/>
        <pt x="498" y="0" on="0"/>
      </contour>
      <contour>
        <pt x="442" y="190" on="1"/>
        <pt x="442" y="484" on="1"/>
        <pt x="442" y="568" on="0"/>
        <pt x="342" y="650" on="0"/>
        <pt x="276" y="650" on="1"/>
        <pt x="134" y="650" on="1"/>
        <pt x="134" y="50" on="1"/>
        <pt x="270" y="50" on="1"/>
        <pt x="442" y="50" on="0"/>
      </contour>
      <contour>
        <pt x="416" y="875" on="1"/>
        <pt x="274" y="734" on="1"/>
        <pt x="126" y="875" on="1"/>
        <pt x="164" y="914" on="1"/>
        <pt x="273" y="810" on="1"/>
        <pt x="378" y="914" on="1"/>
      </contour>
    </TTGlyph>
    <TTGlyph name="Dcroat" xMin="78" yMin="0" xMax="498" yMax="788">
      <contour>
        <pt x="286" y="0" on="1"/>
        <pt x="78" y="0" on="1"/>
        <pt x="78" y="701" on="1"/>
        <pt x="266" y="701" on="1"/>
        <pt x="379" y="701" on="0"/>
        <pt x="498" y="577" on="0"/>
        <pt x="498" y="474" on="1"/>
        <pt x="498" y="200" on="1"/>
        <pt x="498" y="0" on="0"/>
      </contour>
      <contour>
        <pt x="442" y="190" on="1"/>
        <pt x="442" y="484" on="1"/>
        <pt x="442" y="568" on="0"/>
        <pt x="342" y="650" on="0"/>
        <pt x="276" y="650" on="1"/>
        <pt x="134" y="650" on="1"/>
        <pt x="134" y="50" on="1"/>
        <pt x="270" y="50" on="1"/>
        <pt x="442" y="50" on="0"/>
      </contour>
      <contour>
        <pt x="392" y="730" on="1"/>
        <pt x="175" y="730" on="1"/>
        <pt x="175" y="788" on="1"/>
        <pt x="392" y="788" on="1"/>
      </contour>
    </TTGlyph>
    <TTGlyph name="Delta" xMin="78" yMin="0" xMax="583" yMax="700">
      <contour>
        <pt x="583" y="0" on="1"/>
        <pt x="78" y="0" on="1"/>
        <pt x="302" y="700" on="1"/>
        <pt x="355" y="700" on="1"/>
      </contour>
      <contour>
        <pt x="507" y="50" on="1"/>
        <pt x="328" y="613" on="1"/>
        <pt x="152" y="50" on="1"/>
      </contour>
    </TTGlyph>
    <TTGlyph name="E" xMin="78" yMin="0" xMax="412" yMax="700">
      <contour>
        <pt x="410" y="0" on="1"/>
        <pt x="78" y="0" on="1"/>
        <pt x="78" y="700" on="1"/>
        <pt x="412" y="700" on="1"/>
        <pt x="412" y="648" on="1"/>
        <pt x="134" y="648" on="1"/>
        <pt x="134" y="413" on="1"/>
        <pt x="325" y="413" on="1"/>
        <pt x="306" y="358" on="1"/>
        <pt x="134" y="358" on="1"/>
        <pt x="134" y="50" on="1"/>
        <pt x="410" y="50" on="1"/>
      </contour>
    </TTGlyph>
    <TTGlyph name="Eacute" xMin="78" yMin="0" xMax="412" yMax="871">
      <contour>
        <pt x="410" y="0" on="1"/>
        <pt x="78" y="0" on="1"/>
        <pt x="78" y="700" on="1"/>
        <pt x="412" y="700" on="1"/>
        <pt x="412" y="648" on="1"/>
        <pt x="134" y="648" on="1"/>
        <pt x="134" y="413" on="1"/>
        <pt x="325" y="413" on="1"/>
        <pt x="306" y="358" on="1"/>
        <pt x="134" y="358" on="1"/>
        <pt x="134" y="50" on="1"/>
        <pt x="410" y="50" on="1"/>
      </contour>
      <contour>
        <pt x="281" y="730" on="1"/>
        <pt x="237" y="730" on="1"/>
        <pt x="288" y="848" on="1"/>
        <pt x="299" y="871" on="0"/>
        <pt x="320" y="871" on="1"/>
        <pt x="347" y="871" on="0"/>
        <pt x="354" y="848" on="1"/>
        <pt x="355" y="842" on="0"/>
        <pt x="355" y="828" on="0"/>
        <pt x="350" y="822" on="1"/>
      </contour>
    </TTGlyph>
    <TTGlyph name="Ecaron" xMin="78" yMin="0" xMax="412" yMax="914">
      <contour>
        <pt x="410" y="0" on="1"/>
        <pt x="78" y="0" on="1"/>
        <pt x="78" y="700" on="1"/>
        <pt x="412" y="700" on="1"/>
        <pt x="412" y="648" on="1"/>
        <pt x="134" y="648" on="1"/>
        <pt x="134" y="413" on="1"/>
        <pt x="325" y="413" on="1"/>
        <pt x="306" y="358" on="1"/>
        <pt x="134" y="358" on="1"/>
        <pt x="134" y="50" on="1"/>
        <pt x="410" y="50" on="1"/>
      </contour>
      <contour>
        <pt x="391" y="875" on="1"/>
        <pt x="249" y="734" on="1"/>
        <pt x="101" y="875" on="1"/>
        <pt x="139" y="914" on="1"/>
        <pt x="248" y="810" on="1"/>
        <pt x="353" y="914" on="1"/>
      </contour>
    </TTGlyph>
    <TTGlyph name="Ecircumflex" xMin="78" yMin="0" xMax="412" yMax="913">
      <contour>
        <pt x="410" y="0" on="1"/>
        <pt x="78" y="0" on="1"/>
        <pt x="78" y="700" on="1"/>
        <pt x="412" y="700" on="1"/>
        <pt x="412" y="648" on="1"/>
        <pt x="134" y="648" on="1"/>
        <pt x="134" y="413" on="1"/>
        <pt x="325" y="413" on="1"/>
        <pt x="306" y="358" on="1"/>
        <pt x="134" y="358" on="1"/>
        <pt x="134" y="50" on="1"/>
        <pt x="410" y="50" on="1"/>
      </contour>
      <contour>
        <pt x="353" y="733" on="1"/>
        <pt x="248" y="837" on="1"/>
        <pt x="139" y="733" on="1"/>
        <pt x="101" y="772" on="1"/>
        <pt x="249" y="913" on="1"/>
        <pt x="391" y="772" on="1"/>
      </contour>
    </TTGlyph>
    <TTGlyph name="Edieresis" xMin="78" yMin="0" xMax="412" yMax="797">
      <contour>
        <pt x="410" y="0" on="1"/>
        <pt x="78" y="0" on="1"/>
        <pt x="78" y="700" on="1"/>
        <pt x="412" y="700" on="1"/>
        <pt x="412" y="648" on="1"/>
        <pt x="134" y="648" on="1"/>
        <pt x="134" y="413" on="1"/>
        <pt x="325" y="413" on="1"/>
        <pt x="306" y="358" on="1"/>
        <pt x="134" y="358" on="1"/>
        <pt x="134" y="50" on="1"/>
        <pt x="410" y="50" on="1"/>
      </contour>
      <contour>
        <pt x="178" y="731" on="0"/>
        <pt x="150" y="731" on="0"/>
        <pt x="131" y="750" on="0"/>
        <pt x="131" y="778" on="0"/>
        <pt x="150" y="797" on="0"/>
        <pt x="178" y="797" on="0"/>
        <pt x="197" y="778" on="0"/>
        <pt x="197" y="750" on="0"/>
      </contour>
      <contour>
        <pt x="334" y="731" on="0"/>
        <pt x="306" y="731" on="0"/>
        <pt x="287" y="750" on="0"/>
        <pt x="287" y="778" on="0"/>
        <pt x="306" y="797" on="0"/>
        <pt x="334" y="797" on="0"/>
        <pt x="353" y="778" on="0"/>
        <pt x="353" y="750" on="0"/>
      </contour>
    </TTGlyph>
    <TTGlyph name="Edotaccent" xMin="78" yMin="0" xMax="412" yMax="797">
      <contour>
        <pt x="410" y="0" on="1"/>
        <pt x="78" y="0" on="1"/>
        <pt x="78" y="700" on="1"/>
        <pt x="412" y="700" on="1"/>
        <pt x="412" y="648" on="1"/>
        <pt x="134" y="648" on="1"/>
        <pt x="134" y="413" on="1"/>
        <pt x="325" y="413" on="1"/>
        <pt x="306" y="358" on="1"/>
        <pt x="134" y="358" on="1"/>
        <pt x="134" y="50" on="1"/>
        <pt x="410" y="50" on="1"/>
      </contour>
      <contour>
        <pt x="289" y="750" on="0"/>
        <pt x="269" y="730" on="0"/>
        <pt x="242" y="730" on="0"/>
        <pt x="222" y="750" on="0"/>
        <pt x="222" y="777" on="0"/>
        <pt x="242" y="797" on="0"/>
        <pt x="270" y="797" on="0"/>
        <pt x="289" y="778" on="0"/>
      </contour>
    </TTGlyph>
    <TTGlyph name="Egrave" xMin="78" yMin="0" xMax="412" yMax="873">
      <contour>
        <pt x="410" y="0" on="1"/>
        <pt x="78" y="0" on="1"/>
        <pt x="78" y="700" on="1"/>
        <pt x="412" y="700" on="1"/>
        <pt x="412" y="648" on="1"/>
        <pt x="134" y="648" on="1"/>
        <pt x="134" y="413" on="1"/>
        <pt x="325" y="413" on="1"/>
        <pt x="306" y="358" on="1"/>
        <pt x="134" y="358" on="1"/>
        <pt x="134" y="50" on="1"/>
        <pt x="410" y="50" on="1"/>
      </contour>
      <contour>
        <pt x="268" y="732" on="1"/>
        <pt x="224" y="732" on="1"/>
        <pt x="155" y="824" on="1"/>
        <pt x="150" y="830" on="0"/>
        <pt x="150" y="837" on="1"/>
        <pt x="150" y="864" on="0"/>
        <pt x="172" y="871" on="1"/>
        <pt x="179" y="873" on="0"/>
        <pt x="185" y="873" on="1"/>
        <pt x="206" y="873" on="0"/>
        <pt x="217" y="850" on="1"/>
      </contour>
    </TTGlyph>
    <TTGlyph name="Emacron" xMin="78" yMin="0" xMax="412" yMax="788">
      <contour>
        <pt x="410" y="0" on="1"/>
        <pt x="78" y="0" on="1"/>
        <pt x="78" y="700" on="1"/>
        <pt x="412" y="700" on="1"/>
        <pt x="412" y="648" on="1"/>
        <pt x="134" y="648" on="1"/>
        <pt x="134" y="413" on="1"/>
        <pt x="325" y="413" on="1"/>
        <pt x="306" y="358" on="1"/>
        <pt x="134" y="358" on="1"/>
        <pt x="134" y="50" on="1"/>
        <pt x="410" y="50" on="1"/>
      </contour>
      <contour>
        <pt x="352" y="730" on="1"/>
        <pt x="135" y="730" on="1"/>
        <pt x="135" y="788" on="1"/>
        <pt x="352" y="788" on="1"/>
      </contour>
    </TTGlyph>
    <TTGlyph name="Eng" xMin="78" yMin="-37" xMax="571" yMax="700">
      <contour>
        <pt x="513" y="105" on="1"/>
        <pt x="513" y="649" on="1"/>
        <pt x="446" y="651" on="1"/>
        <pt x="446" y="700" on="1"/>
        <pt x="571" y="700" on="1"/>
        <pt x="571" y="118" on="1"/>
        <pt x="571" y="44" on="0"/>
        <pt x="504" y="-37" on="0"/>
        <pt x="445" y="-37" on="1"/>
        <pt x="443" y="-31" on="0"/>
        <pt x="434" y="-6" on="0"/>
        <pt x="432" y="0" on="1"/>
        <pt x="472" y="0" on="0"/>
        <pt x="493" y="33" on="1"/>
        <pt x="433" y="127" on="0"/>
        <pt x="194" y="503" on="0"/>
        <pt x="134" y="597" on="1"/>
        <pt x="134" y="0" on="1"/>
        <pt x="78" y="0" on="1"/>
        <pt x="78" y="700" on="1"/>
        <pt x="134" y="700" on="1"/>
        <pt x="491" y="149" on="0"/>
      </contour>
    </TTGlyph>
    <TTGlyph name="Eogonek" xMin="78" yMin="-213" xMax="444" yMax="700">
      <contour>
        <pt x="409" y="0" on="1"/>
        <pt x="305" y="-87" on="0"/>
        <pt x="305" y="-127" on="1"/>
        <pt x="305" y="-142" on="0"/>
        <pt x="324" y="-166" on="0"/>
        <pt x="366" y="-166" on="0"/>
        <pt x="393" y="-147" on="0"/>
        <pt x="407" y="-125" on="1"/>
        <pt x="444" y="-163" on="1"/>
        <pt x="412" y="-213" on="0"/>
        <pt x="347" y="-213" on="1"/>
        <pt x="330" y="-213" on="0"/>
        <pt x="294" y="-204" on="0"/>
        <pt x="255" y="-164" on="0"/>
        <pt x="255" y="-131" on="1"/>
        <pt x="255" y="-63" on="0"/>
        <pt x="351" y="0" on="1"/>
        <pt x="78" y="0" on="1"/>
        <pt x="78" y="700" on="1"/>
        <pt x="412" y="700" on="1"/>
        <pt x="412" y="648" on="1"/>
        <pt x="134" y="648" on="1"/>
        <pt x="134" y="413" on="1"/>
        <pt x="325" y="413" on="1"/>
        <pt x="306" y="358" on="1"/>
        <pt x="134" y="358" on="1"/>
        <pt x="134" y="50" on="1"/>
        <pt x="410" y="50" on="1"/>
        <pt x="410" y="0" on="1"/>
      </contour>
    </TTGlyph>
    <TTGlyph name="Epsilon" xMin="78" yMin="0" xMax="412" yMax="700">
      <contour>
        <pt x="410" y="0" on="1"/>
        <pt x="78" y="0" on="1"/>
        <pt x="78" y="700" on="1"/>
        <pt x="412" y="700" on="1"/>
        <pt x="412" y="648" on="1"/>
        <pt x="134" y="648" on="1"/>
        <pt x="134" y="413" on="1"/>
        <pt x="325" y="413" on="1"/>
        <pt x="306" y="358" on="1"/>
        <pt x="134" y="358" on="1"/>
        <pt x="134" y="50" on="1"/>
        <pt x="410" y="50" on="1"/>
      </contour>
    </TTGlyph>
    <TTGlyph name="Epsilontonos" xMin="78" yMin="0" xMax="579" yMax="709">
      <contour>
        <pt x="122" y="568" on="1"/>
        <pt x="78" y="568" on="1"/>
        <pt x="129" y="686" on="1"/>
        <pt x="140" y="709" on="0"/>
        <pt x="161" y="709" on="1"/>
        <pt x="188" y="709" on="0"/>
        <pt x="194" y="686" on="1"/>
        <pt x="199" y="670" on="0"/>
        <pt x="191" y="660" on="1"/>
      </contour>
      <contour>
        <pt x="577" y="0" on="1"/>
        <pt x="245" y="0" on="1"/>
        <pt x="245" y="700" on="1"/>
        <pt x="579" y="700" on="1"/>
        <pt x="579" y="648" on="1"/>
        <pt x="301" y="648" on="1"/>
        <pt x="301" y="413" on="1"/>
        <pt x="492" y="413" on="1"/>
        <pt x="473" y="358" on="1"/>
        <pt x="301" y="358" on="1"/>
        <pt x="301" y="50" on="1"/>
        <pt x="577" y="50" on="1"/>
      </contour>
    </TTGlyph>
    <TTGlyph name="Eta" xMin="80" yMin="0" xMax="510" yMax="700">
      <contour>
        <pt x="510" y="0" on="1"/>
        <pt x="454" y="0" on="1"/>
        <pt x="454" y="358" on="1"/>
        <pt x="136" y="358" on="1"/>
        <pt x="136" y="0" on="1"/>
        <pt x="80" y="0" on="1"/>
        <pt x="80" y="700" on="1"/>
        <pt x="136" y="700" on="1"/>
        <pt x="136" y="413" on="1"/>
        <pt x="454" y="413" on="1"/>
        <pt x="454" y="700" on="1"/>
        <pt x="510" y="700" on="1"/>
      </contour>
    </TTGlyph>
    <TTGlyph name="Etatonos" xMin="78" yMin="0" xMax="677" yMax="709">
      <contour>
        <pt x="122" y="568" on="1"/>
        <pt x="78" y="568" on="1"/>
        <pt x="129" y="686" on="1"/>
        <pt x="140" y="709" on="0"/>
        <pt x="161" y="709" on="1"/>
        <pt x="188" y="709" on="0"/>
        <pt x="194" y="686" on="1"/>
        <pt x="199" y="670" on="0"/>
        <pt x="191" y="660" on="1"/>
      </contour>
      <contour>
        <pt x="677" y="0" on="1"/>
        <pt x="621" y="0" on="1"/>
        <pt x="621" y="358" on="1"/>
        <pt x="303" y="358" on="1"/>
        <pt x="303" y="0" on="1"/>
        <pt x="247" y="0" on="1"/>
        <pt x="247" y="700" on="1"/>
        <pt x="303" y="700" on="1"/>
        <pt x="303" y="413" on="1"/>
        <pt x="621" y="413" on="1"/>
        <pt x="621" y="700" on="1"/>
        <pt x="677" y="700" on="1"/>
      </contour>
    </TTGlyph>
    <TTGlyph name="Eth" xMin="78" yMin="0" xMax="605" yMax="701">
      <contour>
        <pt x="335" y="0" on="1"/>
        <pt x="127" y="0" on="1"/>
        <pt x="127" y="483" on="1"/>
        <pt x="78" y="483" on="1"/>
        <pt x="78" y="538" on="1"/>
        <pt x="127" y="538" on="1"/>
        <pt x="127" y="701" on="1"/>
        <pt x="315" y="701" on="1"/>
        <pt x="408" y="701" on="0"/>
        <pt x="523" y="613" on="0"/>
        <pt x="540" y="538" on="1"/>
        <pt x="605" y="538" on="1"/>
        <pt x="605" y="483" on="1"/>
        <pt x="547" y="483" on="1"/>
        <pt x="547" y="200" on="1"/>
        <pt x="547" y="0" on="0"/>
      </contour>
      <contour>
        <pt x="491" y="190" on="1"/>
        <pt x="491" y="483" on="1"/>
        <pt x="183" y="483" on="1"/>
        <pt x="183" y="50" on="1"/>
        <pt x="319" y="50" on="1"/>
        <pt x="491" y="50" on="0"/>
      </contour>
      <contour>
        <pt x="325" y="650" on="1"/>
        <pt x="183" y="650" on="1"/>
        <pt x="183" y="538" on="1"/>
        <pt x="484" y="538" on="1"/>
        <pt x="468" y="594" on="0"/>
        <pt x="377" y="650" on="0"/>
      </contour>
    </TTGlyph>
    <TTGlyph name="Euro" xMin="78" yMin="-10" xMax="494" yMax="710">
      <contour>
        <pt x="494" y="23" on="1"/>
        <pt x="409" y="-10" on="0"/>
        <pt x="332" y="-10" on="1"/>
        <pt x="316" y="-10" on="0"/>
        <pt x="251" y="-4" on="0"/>
        <pt x="178" y="35" on="0"/>
        <pt x="133" y="120" on="0"/>
        <pt x="133" y="183" on="1"/>
        <pt x="133" y="253" on="1"/>
        <pt x="78" y="253" on="1"/>
        <pt x="78" y="308" on="1"/>
        <pt x="133" y="308" on="1"/>
        <pt x="133" y="358" on="1"/>
        <pt x="78" y="358" on="1"/>
        <pt x="78" y="413" on="1"/>
        <pt x="133" y="413" on="1"/>
        <pt x="133" y="504" on="1"/>
        <pt x="133" y="580" on="0"/>
        <pt x="176" y="658" on="0"/>
        <pt x="220" y="685" on="1"/>
        <pt x="265" y="710" on="0"/>
        <pt x="327" y="710" on="1"/>
        <pt x="404" y="710" on="0"/>
        <pt x="469" y="677" on="1"/>
        <pt x="453" y="639" on="1"/>
        <pt x="396" y="660" on="0"/>
        <pt x="345" y="660" on="1"/>
        <pt x="189" y="660" on="0"/>
        <pt x="189" y="513" on="1"/>
        <pt x="189" y="413" on="1"/>
        <pt x="398" y="413" on="1"/>
        <pt x="398" y="358" on="1"/>
        <pt x="189" y="358" on="1"/>
        <pt x="189" y="308" on="1"/>
        <pt x="398" y="308" on="1"/>
        <pt x="398" y="253" on="1"/>
        <pt x="189" y="253" on="1"/>
        <pt x="189" y="185" on="1"/>
        <pt x="189" y="54" on="0"/>
        <pt x="316" y="42" on="1"/>
        <pt x="326" y="40" on="0"/>
        <pt x="337" y="40" on="1"/>
        <pt x="397" y="40" on="0"/>
        <pt x="482" y="70" on="1"/>
      </contour>
    </TTGlyph>
    <TTGlyph name="F" xMin="78" yMin="0" xMax="412" yMax="700">
      <contour>
        <pt x="134" y="0" on="1"/>
        <pt x="78" y="0" on="1"/>
        <pt x="78" y="700" on="1"/>
        <pt x="412" y="700" on="1"/>
        <pt x="412" y="647" on="1"/>
        <pt x="134" y="647" on="1"/>
        <pt x="134" y="413" on="1"/>
        <pt x="305" y="413" on="1"/>
        <pt x="282" y="358" on="1"/>
        <pt x="134" y="358" on="1"/>
      </contour>
    </TTGlyph>
    <TTGlyph name="G" xMin="65" yMin="-10" xMax="476" yMax="709">
      <contour>
        <pt x="476" y="0" on="1"/>
        <pt x="435" y="0" on="1"/>
        <pt x="421" y="41" on="1"/>
        <pt x="369" y="-10" on="0"/>
        <pt x="188" y="-10" on="0"/>
        <pt x="65" y="90" on="0"/>
        <pt x="65" y="189" on="1"/>
        <pt x="65" y="503" on="1"/>
        <pt x="65" y="631" on="0"/>
        <pt x="152" y="684" on="1"/>
        <pt x="197" y="709" on="0"/>
        <pt x="259" y="709" on="1"/>
        <pt x="336" y="709" on="0"/>
        <pt x="401" y="676" on="1"/>
        <pt x="385" y="638" on="1"/>
        <pt x="328" y="659" on="0"/>
        <pt x="277" y="659" on="1"/>
        <pt x="121" y="659" on="0"/>
        <pt x="121" y="512" on="1"/>
        <pt x="121" y="187" on="1"/>
        <pt x="121" y="120" on="0"/>
        <pt x="208" y="44" on="0"/>
        <pt x="343" y="44" on="0"/>
        <pt x="423" y="122" on="0"/>
        <pt x="423" y="186" on="1"/>
        <pt x="423" y="245" on="1"/>
        <pt x="357" y="245" on="1"/>
        <pt x="338" y="300" on="1"/>
        <pt x="476" y="300" on="1"/>
      </contour>
    </TTGlyph>
    <TTGlyph name="Gamma" xMin="78" yMin="0" xMax="412" yMax="700">
      <contour>
        <pt x="134" y="0" on="1"/>
        <pt x="78" y="0" on="1"/>
        <pt x="78" y="700" on="1"/>
        <pt x="412" y="700" on="1"/>
        <pt x="412" y="647" on="1"/>
        <pt x="134" y="647" on="1"/>
      </contour>
    </TTGlyph>
    <TTGlyph name="Gbreve" xMin="65" yMin="-10" xMax="476" yMax="846">
      <contour>
        <pt x="476" y="0" on="1"/>
        <pt x="435" y="0" on="1"/>
        <pt x="421" y="41" on="1"/>
        <pt x="369" y="-10" on="0"/>
        <pt x="188" y="-10" on="0"/>
        <pt x="65" y="90" on="0"/>
        <pt x="65" y="189" on="1"/>
        <pt x="65" y="503" on="1"/>
        <pt x="65" y="631" on="0"/>
        <pt x="152" y="684" on="1"/>
        <pt x="197" y="709" on="0"/>
        <pt x="259" y="709" on="1"/>
        <pt x="336" y="709" on="0"/>
        <pt x="401" y="676" on="1"/>
        <pt x="385" y="638" on="1"/>
        <pt x="328" y="659" on="0"/>
        <pt x="277" y="659" on="1"/>
        <pt x="121" y="659" on="0"/>
        <pt x="121" y="512" on="1"/>
        <pt x="121" y="187" on="1"/>
        <pt x="121" y="120" on="0"/>
        <pt x="208" y="44" on="0"/>
        <pt x="343" y="44" on="0"/>
        <pt x="423" y="122" on="0"/>
        <pt x="423" y="186" on="1"/>
        <pt x="423" y="245" on="1"/>
        <pt x="357" y="245" on="1"/>
        <pt x="338" y="300" on="1"/>
        <pt x="476" y="300" on="1"/>
      </contour>
      <contour>
        <pt x="389" y="846" on="1"/>
        <pt x="389" y="841" on="1"/>
        <pt x="389" y="794" on="0"/>
        <pt x="322" y="728" on="0"/>
        <pt x="230" y="728" on="0"/>
        <pt x="163" y="794" on="0"/>
        <pt x="163" y="841" on="1"/>
        <pt x="163" y="846" on="1"/>
        <pt x="208" y="846" on="1"/>
        <pt x="208" y="841" on="1"/>
        <pt x="208" y="812" on="0"/>
        <pt x="248" y="773" on="0"/>
        <pt x="304" y="773" on="0"/>
        <pt x="344" y="812" on="0"/>
        <pt x="344" y="841" on="1"/>
        <pt x="344" y="846" on="1"/>
      </contour>
    </TTGlyph>
    <TTGlyph name="Gcircumflex" xMin="65" yMin="-10" xMax="476" yMax="913">
      <contour>
        <pt x="476" y="0" on="1"/>
        <pt x="435" y="0" on="1"/>
        <pt x="421" y="41" on="1"/>
        <pt x="369" y="-10" on="0"/>
        <pt x="188" y="-10" on="0"/>
        <pt x="65" y="90" on="0"/>
        <pt x="65" y="189" on="1"/>
        <pt x="65" y="503" on="1"/>
        <pt x="65" y="631" on="0"/>
        <pt x="152" y="684" on="1"/>
        <pt x="197" y="709" on="0"/>
        <pt x="259" y="709" on="1"/>
        <pt x="336" y="709" on="0"/>
        <pt x="401" y="676" on="1"/>
        <pt x="385" y="638" on="1"/>
        <pt x="328" y="659" on="0"/>
        <pt x="277" y="659" on="1"/>
        <pt x="121" y="659" on="0"/>
        <pt x="121" y="512" on="1"/>
        <pt x="121" y="187" on="1"/>
        <pt x="121" y="120" on="0"/>
        <pt x="208" y="44" on="0"/>
        <pt x="343" y="44" on="0"/>
        <pt x="423" y="122" on="0"/>
        <pt x="423" y="186" on="1"/>
        <pt x="423" y="245" on="1"/>
        <pt x="357" y="245" on="1"/>
        <pt x="338" y="300" on="1"/>
        <pt x="476" y="300" on="1"/>
      </contour>
      <contour>
        <pt x="388" y="733" on="1"/>
        <pt x="283" y="837" on="1"/>
        <pt x="174" y="733" on="1"/>
        <pt x="136" y="772" on="1"/>
        <pt x="284" y="913" on="1"/>
        <pt x="426" y="772" on="1"/>
      </contour>
    </TTGlyph>
    <TTGlyph name="Gcommaaccent" xMin="65" yMin="-184" xMax="476" yMax="709">
      <contour>
        <pt x="476" y="0" on="1"/>
        <pt x="435" y="0" on="1"/>
        <pt x="421" y="41" on="1"/>
        <pt x="369" y="-10" on="0"/>
        <pt x="188" y="-10" on="0"/>
        <pt x="65" y="90" on="0"/>
        <pt x="65" y="189" on="1"/>
        <pt x="65" y="503" on="1"/>
        <pt x="65" y="631" on="0"/>
        <pt x="152" y="684" on="1"/>
        <pt x="197" y="709" on="0"/>
        <pt x="259" y="709" on="1"/>
        <pt x="336" y="709" on="0"/>
        <pt x="401" y="676" on="1"/>
        <pt x="385" y="638" on="1"/>
        <pt x="328" y="659" on="0"/>
        <pt x="277" y="659" on="1"/>
        <pt x="121" y="659" on="0"/>
        <pt x="121" y="512" on="1"/>
        <pt x="121" y="187" on="1"/>
        <pt x="121" y="120" on="0"/>
        <pt x="208" y="44" on="0"/>
        <pt x="343" y="44" on="0"/>
        <pt x="423" y="122" on="0"/>
        <pt x="423" y="186" on="1"/>
        <pt x="423" y="245" on="1"/>
        <pt x="357" y="245" on="1"/>
        <pt x="338" y="300" on="1"/>
        <pt x="476" y="300" on="1"/>
      </contour>
      <contour>
        <pt x="241" y="-184" on="1"/>
        <pt x="201" y="-156" on="1"/>
        <pt x="246" y="-130" on="0"/>
        <pt x="259" y="-110" on="1"/>
        <pt x="264" y="-103" on="1"/>
        <pt x="254" y="-100" on="1"/>
        <pt x="236" y="-87" on="0"/>
        <pt x="237" y="-51" on="0"/>
        <pt x="256" y="-34" on="0"/>
        <pt x="270" y="-34" on="0"/>
        <pt x="284" y="-35" on="0"/>
        <pt x="305" y="-58" on="0"/>
        <pt x="305" y="-73" on="1"/>
        <pt x="305" y="-131" on="0"/>
      </contour>
    </TTGlyph>
    <TTGlyph name="Gdotaccent" xMin="65" yMin="-10" xMax="476" yMax="796">
      <contour>
        <pt x="286" y="729" on="0"/>
        <pt x="260" y="729" on="0"/>
        <pt x="239" y="750" on="0"/>
        <pt x="239" y="776" on="0"/>
        <pt x="259" y="796" on="0"/>
        <pt x="286" y="796" on="0"/>
        <pt x="306" y="776" on="0"/>
        <pt x="306" y="749" on="0"/>
      </contour>
      <contour>
        <pt x="476" y="0" on="1"/>
        <pt x="435" y="0" on="1"/>
        <pt x="421" y="41" on="1"/>
        <pt x="369" y="-10" on="0"/>
        <pt x="188" y="-10" on="0"/>
        <pt x="65" y="90" on="0"/>
        <pt x="65" y="189" on="1"/>
        <pt x="65" y="503" on="1"/>
        <pt x="65" y="631" on="0"/>
        <pt x="152" y="684" on="1"/>
        <pt x="197" y="709" on="0"/>
        <pt x="259" y="709" on="1"/>
        <pt x="336" y="709" on="0"/>
        <pt x="401" y="676" on="1"/>
        <pt x="385" y="638" on="1"/>
        <pt x="328" y="659" on="0"/>
        <pt x="277" y="659" on="1"/>
        <pt x="121" y="659" on="0"/>
        <pt x="121" y="512" on="1"/>
        <pt x="121" y="187" on="1"/>
        <pt x="121" y="120" on="0"/>
        <pt x="208" y="44" on="0"/>
        <pt x="343" y="44" on="0"/>
        <pt x="423" y="122" on="0"/>
        <pt x="423" y="186" on="1"/>
        <pt x="423" y="245" on="1"/>
        <pt x="357" y="245" on="1"/>
        <pt x="338" y="300" on="1"/>
        <pt x="476" y="300" on="1"/>
      </contour>
    </TTGlyph>
    <TTGlyph name="H" xMin="78" yMin="0" xMax="508" yMax="700">
      <contour>
        <pt x="508" y="0" on="1"/>
        <pt x="452" y="0" on="1"/>
        <pt x="452" y="358" on="1"/>
        <pt x="134" y="358" on="1"/>
        <pt x="134" y="0" on="1"/>
        <pt x="78" y="0" on="1"/>
        <pt x="78" y="700" on="1"/>
        <pt x="134" y="700" on="1"/>
        <pt x="134" y="413" on="1"/>
        <pt x="452" y="413" on="1"/>
        <pt x="452" y="700" on="1"/>
        <pt x="508" y="700" on="1"/>
      </contour>
    </TTGlyph>
    <TTGlyph name="Hbar" xMin="78" yMin="0" xMax="605" yMax="700">
      <contour>
        <pt x="557" y="0" on="1"/>
        <pt x="501" y="0" on="1"/>
        <pt x="501" y="358" on="1"/>
        <pt x="183" y="358" on="1"/>
        <pt x="183" y="0" on="1"/>
        <pt x="127" y="0" on="1"/>
        <pt x="127" y="483" on="1"/>
        <pt x="78" y="483" on="1"/>
        <pt x="78" y="538" on="1"/>
        <pt x="127" y="538" on="1"/>
        <pt x="127" y="700" on="1"/>
        <pt x="183" y="700" on="1"/>
        <pt x="183" y="538" on="1"/>
        <pt x="501" y="538" on="1"/>
        <pt x="501" y="700" on="1"/>
        <pt x="557" y="700" on="1"/>
        <pt x="557" y="538" on="1"/>
        <pt x="605" y="538" on="1"/>
        <pt x="605" y="483" on="1"/>
        <pt x="557" y="483" on="1"/>
      </contour>
      <contour>
        <pt x="501" y="413" on="1"/>
        <pt x="501" y="483" on="1"/>
        <pt x="183" y="483" on="1"/>
        <pt x="183" y="413" on="1"/>
      </contour>
    </TTGlyph>
    <TTGlyph name="Hcircumflex" xMin="78" yMin="0" xMax="508" yMax="913">
      <contour>
        <pt x="508" y="0" on="1"/>
        <pt x="452" y="0" on="1"/>
        <pt x="452" y="358" on="1"/>
        <pt x="134" y="358" on="1"/>
        <pt x="134" y="0" on="1"/>
        <pt x="78" y="0" on="1"/>
        <pt x="78" y="700" on="1"/>
        <pt x="134" y="700" on="1"/>
        <pt x="134" y="413" on="1"/>
        <pt x="452" y="413" on="1"/>
        <pt x="452" y="700" on="1"/>
        <pt x="508" y="700" on="1"/>
      </contour>
      <contour>
        <pt x="431" y="733" on="1"/>
        <pt x="326" y="837" on="1"/>
        <pt x="217" y="733" on="1"/>
        <pt x="179" y="772" on="1"/>
        <pt x="327" y="913" on="1"/>
        <pt x="469" y="772" on="1"/>
      </contour>
    </TTGlyph>
    <TTGlyph name="I" xMin="66" yMin="0" xMax="189" yMax="700">
      <contour>
        <pt x="189" y="0" on="1"/>
        <pt x="133" y="0" on="1"/>
        <pt x="133" y="649" on="1"/>
        <pt x="66" y="651" on="1"/>
        <pt x="66" y="700" on="1"/>
        <pt x="189" y="700" on="1"/>
      </contour>
    </TTGlyph>
    <TTGlyph name="Iacute" xMin="78" yMin="0" xMax="270" yMax="871">
      <contour>
        <pt x="201" y="0" on="1"/>
        <pt x="145" y="0" on="1"/>
        <pt x="145" y="649" on="1"/>
        <pt x="78" y="651" on="1"/>
        <pt x="78" y="700" on="1"/>
        <pt x="201" y="700" on="1"/>
      </contour>
      <contour>
        <pt x="196" y="730" on="1"/>
        <pt x="152" y="730" on="1"/>
        <pt x="203" y="848" on="1"/>
        <pt x="214" y="871" on="0"/>
        <pt x="235" y="871" on="1"/>
        <pt x="262" y="871" on="0"/>
        <pt x="268" y="848" on="1"/>
        <pt x="270" y="842" on="0"/>
        <pt x="270" y="828" on="0"/>
        <pt x="265" y="822" on="1"/>
      </contour>
    </TTGlyph>
    <TTGlyph name="Icircumflex" xMin="78" yMin="0" xMax="368" yMax="913">
      <contour>
        <pt x="263" y="0" on="1"/>
        <pt x="207" y="0" on="1"/>
        <pt x="207" y="649" on="1"/>
        <pt x="140" y="651" on="1"/>
        <pt x="140" y="700" on="1"/>
        <pt x="263" y="700" on="1"/>
      </contour>
      <contour>
        <pt x="330" y="733" on="1"/>
        <pt x="225" y="837" on="1"/>
        <pt x="116" y="733" on="1"/>
        <pt x="78" y="772" on="1"/>
        <pt x="226" y="913" on="1"/>
        <pt x="368" y="772" on="1"/>
      </contour>
    </TTGlyph>
    <TTGlyph name="Idieresis" xMin="78" yMin="0" xMax="300" yMax="795">
      <contour>
        <pt x="226" y="0" on="1"/>
        <pt x="170" y="0" on="1"/>
        <pt x="170" y="649" on="1"/>
        <pt x="103" y="651" on="1"/>
        <pt x="103" y="700" on="1"/>
        <pt x="226" y="700" on="1"/>
      </contour>
      <contour>
        <pt x="124" y="729" on="0"/>
        <pt x="98" y="729" on="0"/>
        <pt x="78" y="748" on="0"/>
        <pt x="78" y="776" on="0"/>
        <pt x="98" y="795" on="0"/>
        <pt x="124" y="795" on="0"/>
        <pt x="144" y="776" on="0"/>
        <pt x="144" y="748" on="0"/>
      </contour>
      <contour>
        <pt x="280" y="729" on="0"/>
        <pt x="254" y="729" on="0"/>
        <pt x="234" y="748" on="0"/>
        <pt x="234" y="776" on="0"/>
        <pt x="254" y="795" on="0"/>
        <pt x="280" y="795" on="0"/>
        <pt x="300" y="776" on="0"/>
        <pt x="300" y="748" on="0"/>
      </contour>
    </TTGlyph>
    <TTGlyph name="Idotaccent" xMin="78" yMin="0" xMax="207" yMax="797">
      <contour>
        <pt x="201" y="0" on="1"/>
        <pt x="145" y="0" on="1"/>
        <pt x="145" y="649" on="1"/>
        <pt x="78" y="651" on="1"/>
        <pt x="78" y="700" on="1"/>
        <pt x="201" y="700" on="1"/>
      </contour>
      <contour>
        <pt x="207" y="750" on="0"/>
        <pt x="187" y="730" on="0"/>
        <pt x="160" y="730" on="0"/>
        <pt x="140" y="750" on="0"/>
        <pt x="140" y="777" on="0"/>
        <pt x="160" y="797" on="0"/>
        <pt x="188" y="797" on="0"/>
        <pt x="207" y="778" on="0"/>
      </contour>
    </TTGlyph>
    <TTGlyph name="Igrave" xMin="78" yMin="0" xMax="210" yMax="873">
      <contour>
        <pt x="210" y="0" on="1"/>
        <pt x="154" y="0" on="1"/>
        <pt x="154" y="649" on="1"/>
        <pt x="87" y="651" on="1"/>
        <pt x="87" y="700" on="1"/>
        <pt x="210" y="700" on="1"/>
      </contour>
      <contour>
        <pt x="196" y="732" on="1"/>
        <pt x="152" y="732" on="1"/>
        <pt x="83" y="824" on="1"/>
        <pt x="78" y="830" on="0"/>
        <pt x="78" y="837" on="1"/>
        <pt x="78" y="864" on="0"/>
        <pt x="100" y="871" on="1"/>
        <pt x="107" y="873" on="0"/>
        <pt x="113" y="873" on="1"/>
        <pt x="134" y="873" on="0"/>
        <pt x="145" y="850" on="1"/>
      </contour>
    </TTGlyph>
    <TTGlyph name="Imacron" xMin="78" yMin="0" xMax="294" yMax="788">
      <contour>
        <pt x="245" y="0" on="1"/>
        <pt x="189" y="0" on="1"/>
        <pt x="189" y="649" on="1"/>
        <pt x="122" y="651" on="1"/>
        <pt x="122" y="700" on="1"/>
        <pt x="245" y="700" on="1"/>
      </contour>
      <contour>
        <pt x="294" y="730" on="1"/>
        <pt x="78" y="730" on="1"/>
        <pt x="78" y="788" on="1"/>
        <pt x="294" y="788" on="1"/>
      </contour>
    </TTGlyph>
    <TTGlyph name="Iogonek" xMin="78" yMin="-213" xMax="267" yMax="700">
      <contour>
        <pt x="232" y="0" on="1"/>
        <pt x="128" y="-87" on="0"/>
        <pt x="128" y="-127" on="1"/>
        <pt x="128" y="-142" on="0"/>
        <pt x="147" y="-166" on="0"/>
        <pt x="189" y="-166" on="0"/>
        <pt x="216" y="-147" on="0"/>
        <pt x="230" y="-125" on="1"/>
        <pt x="267" y="-163" on="1"/>
        <pt x="235" y="-213" on="0"/>
        <pt x="170" y="-213" on="1"/>
        <pt x="153" y="-213" on="0"/>
        <pt x="117" y="-204" on="0"/>
        <pt x="78" y="-164" on="0"/>
        <pt x="78" y="-131" on="1"/>
        <pt x="78" y="-63" on="0"/>
        <pt x="174" y="0" on="1"/>
        <pt x="176" y="0" on="1"/>
        <pt x="176" y="649" on="1"/>
        <pt x="109" y="651" on="1"/>
        <pt x="109" y="700" on="1"/>
        <pt x="232" y="700" on="1"/>
      </contour>
    </TTGlyph>
    <TTGlyph name="Iota" xMin="80" yMin="0" xMax="203" yMax="700">
      <contour>
        <pt x="203" y="0" on="1"/>
        <pt x="147" y="0" on="1"/>
        <pt x="147" y="649" on="1"/>
        <pt x="80" y="651" on="1"/>
        <pt x="80" y="700" on="1"/>
        <pt x="203" y="700" on="1"/>
      </contour>
    </TTGlyph>
    <TTGlyph name="Iotadieresis" xMin="80" yMin="0" xMax="302" yMax="797">
      <contour>
        <pt x="126" y="731" on="0"/>
        <pt x="100" y="731" on="0"/>
        <pt x="80" y="750" on="0"/>
        <pt x="80" y="778" on="0"/>
        <pt x="100" y="797" on="0"/>
        <pt x="126" y="797" on="0"/>
        <pt x="146" y="778" on="0"/>
        <pt x="146" y="750" on="0"/>
      </contour>
      <contour>
        <pt x="282" y="731" on="0"/>
        <pt x="256" y="731" on="0"/>
        <pt x="236" y="750" on="0"/>
        <pt x="236" y="778" on="0"/>
        <pt x="256" y="797" on="0"/>
        <pt x="282" y="797" on="0"/>
        <pt x="302" y="778" on="0"/>
        <pt x="302" y="750" on="0"/>
      </contour>
      <contour>
        <pt x="220" y="0" on="1"/>
        <pt x="164" y="0" on="1"/>
        <pt x="164" y="649" on="1"/>
        <pt x="97" y="651" on="1"/>
        <pt x="97" y="700" on="1"/>
        <pt x="220" y="700" on="1"/>
      </contour>
    </TTGlyph>
    <TTGlyph name="Iotatonos" xMin="78" yMin="0" xMax="357" yMax="709">
      <contour>
        <pt x="357" y="0" on="1"/>
        <pt x="301" y="0" on="1"/>
        <pt x="301" y="649" on="1"/>
        <pt x="234" y="651" on="1"/>
        <pt x="234" y="700" on="1"/>
        <pt x="357" y="700" on="1"/>
      </contour>
      <contour>
        <pt x="122" y="568" on="1"/>
        <pt x="78" y="568" on="1"/>
        <pt x="129" y="686" on="1"/>
        <pt x="140" y="709" on="0"/>
        <pt x="161" y="709" on="1"/>
        <pt x="188" y="709" on="0"/>
        <pt x="194" y="686" on="1"/>
        <pt x="196" y="680" on="0"/>
        <pt x="196" y="666" on="0"/>
        <pt x="191" y="660" on="1"/>
      </contour>
    </TTGlyph>
    <TTGlyph name="Itilde" xMin="78" yMin="0" xMax="412" yMax="827">
      <contour>
        <pt x="286" y="0" on="1"/>
        <pt x="230" y="0" on="1"/>
        <pt x="230" y="649" on="1"/>
        <pt x="163" y="651" on="1"/>
        <pt x="163" y="700" on="1"/>
        <pt x="286" y="700" on="1"/>
      </contour>
      <contour>
        <pt x="317" y="786" on="1"/>
        <pt x="356" y="786" on="0"/>
        <pt x="387" y="821" on="1"/>
        <pt x="412" y="782" on="1"/>
        <pt x="367" y="729" on="0"/>
        <pt x="316" y="729" on="1"/>
        <pt x="298" y="729" on="0"/>
        <pt x="253" y="748" on="0"/>
        <pt x="203" y="771" on="0"/>
        <pt x="178" y="771" on="1"/>
        <pt x="137" y="771" on="0"/>
        <pt x="103" y="735" on="1"/>
        <pt x="78" y="774" on="1"/>
        <pt x="125" y="827" on="0"/>
        <pt x="178" y="827" on="1"/>
        <pt x="196" y="827" on="0"/>
        <pt x="241" y="809" on="0"/>
        <pt x="292" y="786" on="0"/>
      </contour>
    </TTGlyph>
    <TTGlyph name="J" xMin="14" yMin="-37" xMax="153" yMax="700">
      <contour>
        <pt x="27" y="-37" on="1"/>
        <pt x="14" y="0" on="1"/>
        <pt x="47" y="0" on="0"/>
        <pt x="96" y="54" on="0"/>
        <pt x="96" y="114" on="1"/>
        <pt x="96" y="649" on="1"/>
        <pt x="29" y="651" on="1"/>
        <pt x="29" y="700" on="1"/>
        <pt x="153" y="700" on="1"/>
        <pt x="153" y="118" on="1"/>
        <pt x="153" y="44" on="0"/>
        <pt x="86" y="-37" on="0"/>
      </contour>
    </TTGlyph>
    <TTGlyph name="Jcircumflex" xMin="-4" yMin="-37" xMax="222" yMax="846">
      <contour>
        <pt x="17" y="-37" on="1"/>
        <pt x="4" y="0" on="1"/>
        <pt x="37" y="0" on="0"/>
        <pt x="86" y="54" on="0"/>
        <pt x="86" y="114" on="1"/>
        <pt x="86" y="649" on="1"/>
        <pt x="19" y="651" on="1"/>
        <pt x="19" y="700" on="1"/>
        <pt x="143" y="700" on="1"/>
        <pt x="143" y="118" on="1"/>
        <pt x="143" y="44" on="0"/>
        <pt x="76" y="-37" on="0"/>
      </contour>
      <contour>
        <pt x="222" y="846" on="1"/>
        <pt x="222" y="841" on="1"/>
        <pt x="222" y="794" on="0"/>
        <pt x="156" y="728" on="0"/>
        <pt x="62" y="728" on="0"/>
        <pt x="-4" y="794" on="0"/>
        <pt x="-4" y="841" on="1"/>
        <pt x="-4" y="846" on="1"/>
        <pt x="41" y="846" on="1"/>
        <pt x="41" y="841" on="1"/>
        <pt x="41" y="812" on="0"/>
        <pt x="80" y="773" on="0"/>
        <pt x="138" y="773" on="0"/>
        <pt x="177" y="812" on="0"/>
        <pt x="177" y="841" on="1"/>
        <pt x="177" y="846" on="1"/>
      </contour>
    </TTGlyph>
    <TTGlyph name="K" xMin="79" yMin="0" xMax="476" yMax="701">
      <contour>
        <pt x="476" y="0" on="1"/>
        <pt x="409" y="0" on="1"/>
        <pt x="183" y="345" on="1"/>
        <pt x="135" y="269" on="1"/>
        <pt x="135" y="0" on="1"/>
        <pt x="79" y="0" on="1"/>
        <pt x="79" y="701" on="1"/>
        <pt x="135" y="701" on="1"/>
        <pt x="135" y="367" on="1"/>
        <pt x="359" y="701" on="1"/>
        <pt x="424" y="701" on="1"/>
        <pt x="219" y="398" on="1"/>
      </contour>
    </TTGlyph>
    <TTGlyph name="Kappa" xMin="78" yMin="0" xMax="475" yMax="701">
      <contour>
        <pt x="475" y="0" on="1"/>
        <pt x="408" y="0" on="1"/>
        <pt x="182" y="345" on="1"/>
        <pt x="134" y="269" on="1"/>
        <pt x="134" y="0" on="1"/>
        <pt x="78" y="0" on="1"/>
        <pt x="78" y="701" on="1"/>
        <pt x="134" y="701" on="1"/>
        <pt x="134" y="367" on="1"/>
        <pt x="358" y="701" on="1"/>
        <pt x="423" y="701" on="1"/>
        <pt x="218" y="398" on="1"/>
      </contour>
    </TTGlyph>
    <TTGlyph name="Kcommaaccent" xMin="79" yMin="-184" xMax="476" yMax="701">
      <contour>
        <pt x="476" y="0" on="1"/>
        <pt x="409" y="0" on="1"/>
        <pt x="183" y="345" on="1"/>
        <pt x="135" y="269" on="1"/>
        <pt x="135" y="0" on="1"/>
        <pt x="79" y="0" on="1"/>
        <pt x="79" y="701" on="1"/>
        <pt x="135" y="701" on="1"/>
        <pt x="135" y="367" on="1"/>
        <pt x="359" y="701" on="1"/>
        <pt x="424" y="701" on="1"/>
        <pt x="219" y="398" on="1"/>
      </contour>
      <contour>
        <pt x="230" y="-184" on="1"/>
        <pt x="190" y="-156" on="1"/>
        <pt x="235" y="-130" on="0"/>
        <pt x="248" y="-110" on="1"/>
        <pt x="253" y="-103" on="1"/>
        <pt x="243" y="-100" on="1"/>
        <pt x="225" y="-87" on="0"/>
        <pt x="226" y="-51" on="0"/>
        <pt x="245" y="-34" on="0"/>
        <pt x="259" y="-34" on="0"/>
        <pt x="273" y="-35" on="0"/>
        <pt x="294" y="-58" on="0"/>
        <pt x="294" y="-73" on="1"/>
        <pt x="294" y="-131" on="0"/>
      </contour>
    </TTGlyph>
    <TTGlyph name="L" xMin="78" yMin="0" xMax="439" yMax="700">
      <contour>
        <pt x="439" y="0" on="1"/>
        <pt x="78" y="0" on="1"/>
        <pt x="78" y="700" on="1"/>
        <pt x="134" y="700" on="1"/>
        <pt x="134" y="50" on="1"/>
        <pt x="439" y="50" on="1"/>
      </contour>
    </TTGlyph>
    <TTGlyph name="Lacute" xMin="78" yMin="0" xMax="439" yMax="871">
      <contour>
        <pt x="439" y="0" on="1"/>
        <pt x="78" y="0" on="1"/>
        <pt x="78" y="700" on="1"/>
        <pt x="134" y="700" on="1"/>
        <pt x="134" y="50" on="1"/>
        <pt x="439" y="50" on="1"/>
      </contour>
      <contour>
        <pt x="185" y="730" on="1"/>
        <pt x="141" y="730" on="1"/>
        <pt x="192" y="848" on="1"/>
        <pt x="203" y="871" on="0"/>
        <pt x="224" y="871" on="1"/>
        <pt x="251" y="871" on="0"/>
        <pt x="258" y="848" on="1"/>
        <pt x="259" y="842" on="0"/>
        <pt x="259" y="828" on="0"/>
        <pt x="254" y="822" on="1"/>
      </contour>
    </TTGlyph>
    <TTGlyph name="Lambda" xMin="12" yMin="0" xMax="517" yMax="700">
      <contour>
        <pt x="517" y="0" on="1"/>
        <pt x="457" y="0" on="1"/>
        <pt x="262" y="613" on="1"/>
        <pt x="71" y="0" on="1"/>
        <pt x="12" y="0" on="1"/>
        <pt x="236" y="700" on="1"/>
        <pt x="289" y="700" on="1"/>
      </contour>
    </TTGlyph>
    <TTGlyph name="Lcaron" xMin="78" yMin="0" xMax="554" yMax="914">
      <contour>
        <pt x="554" y="0" on="1"/>
        <pt x="193" y="0" on="1"/>
        <pt x="193" y="700" on="1"/>
        <pt x="249" y="700" on="1"/>
        <pt x="249" y="50" on="1"/>
        <pt x="554" y="50" on="1"/>
      </contour>
      <contour>
        <pt x="368" y="875" on="1"/>
        <pt x="226" y="734" on="1"/>
        <pt x="78" y="875" on="1"/>
        <pt x="116" y="914" on="1"/>
        <pt x="225" y="810" on="1"/>
        <pt x="330" y="914" on="1"/>
      </contour>
    </TTGlyph>
    <TTGlyph name="Lcommaaccent" xMin="78" yMin="-184" xMax="439" yMax="700">
      <contour>
        <pt x="439" y="0" on="1"/>
        <pt x="78" y="0" on="1"/>
        <pt x="78" y="700" on="1"/>
        <pt x="134" y="700" on="1"/>
        <pt x="134" y="50" on="1"/>
        <pt x="439" y="50" on="1"/>
      </contour>
      <contour>
        <pt x="241" y="-184" on="1"/>
        <pt x="201" y="-156" on="1"/>
        <pt x="246" y="-130" on="0"/>
        <pt x="259" y="-110" on="1"/>
        <pt x="264" y="-103" on="1"/>
        <pt x="254" y="-100" on="1"/>
        <pt x="236" y="-87" on="0"/>
        <pt x="237" y="-51" on="0"/>
        <pt x="256" y="-34" on="0"/>
        <pt x="270" y="-34" on="0"/>
        <pt x="284" y="-35" on="0"/>
        <pt x="305" y="-58" on="0"/>
        <pt x="305" y="-73" on="1"/>
        <pt x="305" y="-131" on="0"/>
      </contour>
    </TTGlyph>
    <TTGlyph name="Lslash" xMin="78" yMin="0" xMax="562" yMax="700">
      <contour>
        <pt x="562" y="0" on="1"/>
        <pt x="201" y="0" on="1"/>
        <pt x="201" y="353" on="1"/>
        <pt x="100" y="308" on="1"/>
        <pt x="78" y="358" on="1"/>
        <pt x="201" y="413" on="1"/>
        <pt x="201" y="700" on="1"/>
        <pt x="257" y="700" on="1"/>
        <pt x="257" y="438" on="1"/>
        <pt x="369" y="489" on="1"/>
        <pt x="392" y="439" on="1"/>
        <pt x="257" y="378" on="1"/>
        <pt x="257" y="50" on="1"/>
        <pt x="562" y="50" on="1"/>
      </contour>
    </TTGlyph>
    <TTGlyph name="M" xMin="78" yMin="0" xMax="614" yMax="700">
      <contour>
        <pt x="614" y="0" on="1"/>
        <pt x="558" y="0" on="1"/>
        <pt x="558" y="535" on="1"/>
        <pt x="376" y="0" on="1"/>
        <pt x="315" y="0" on="1"/>
        <pt x="134" y="535" on="1"/>
        <pt x="134" y="0" on="1"/>
        <pt x="78" y="0" on="1"/>
        <pt x="78" y="700" on="1"/>
        <pt x="134" y="700" on="1"/>
        <pt x="345" y="86" on="1"/>
        <pt x="558" y="700" on="1"/>
        <pt x="614" y="700" on="1"/>
      </contour>
    </TTGlyph>
    <TTGlyph name="Mu" xMin="80" yMin="0" xMax="616" yMax="700">
      <contour>
        <pt x="616" y="0" on="1"/>
        <pt x="560" y="0" on="1"/>
        <pt x="560" y="535" on="1"/>
        <pt x="378" y="0" on="1"/>
        <pt x="317" y="0" on="1"/>
        <pt x="136" y="535" on="1"/>
        <pt x="136" y="0" on="1"/>
        <pt x="80" y="0" on="1"/>
        <pt x="80" y="700" on="1"/>
        <pt x="136" y="700" on="1"/>
        <pt x="347" y="86" on="1"/>
        <pt x="560" y="700" on="1"/>
        <pt x="616" y="700" on="1"/>
      </contour>
    </TTGlyph>
    <TTGlyph name="N" xMin="78" yMin="0" xMax="570" yMax="700">
      <contour>
        <pt x="570" y="0" on="1"/>
        <pt x="514" y="0" on="1"/>
        <pt x="134" y="597" on="1"/>
        <pt x="134" y="0" on="1"/>
        <pt x="78" y="0" on="1"/>
        <pt x="78" y="700" on="1"/>
        <pt x="134" y="700" on="1"/>
        <pt x="514" y="103" on="1"/>
        <pt x="514" y="700" on="1"/>
        <pt x="570" y="700" on="1"/>
      </contour>
    </TTGlyph>
    <TTGlyph name="Nacute" xMin="78" yMin="0" xMax="570" yMax="871">
      <contour>
        <pt x="570" y="0" on="1"/>
        <pt x="514" y="0" on="1"/>
        <pt x="134" y="597" on="1"/>
        <pt x="134" y="0" on="1"/>
        <pt x="78" y="0" on="1"/>
        <pt x="78" y="700" on="1"/>
        <pt x="134" y="700" on="1"/>
        <pt x="514" y="103" on="1"/>
        <pt x="514" y="700" on="1"/>
        <pt x="570" y="700" on="1"/>
      </contour>
      <contour>
        <pt x="322" y="730" on="1"/>
        <pt x="278" y="730" on="1"/>
        <pt x="329" y="848" on="1"/>
        <pt x="340" y="871" on="0"/>
        <pt x="361" y="871" on="1"/>
        <pt x="388" y="871" on="0"/>
        <pt x="394" y="848" on="1"/>
        <pt x="396" y="842" on="0"/>
        <pt x="396" y="828" on="0"/>
        <pt x="391" y="822" on="1"/>
      </contour>
    </TTGlyph>
    <TTGlyph name="Ncaron" xMin="78" yMin="0" xMax="570" yMax="914">
      <contour>
        <pt x="570" y="0" on="1"/>
        <pt x="514" y="0" on="1"/>
        <pt x="134" y="597" on="1"/>
        <pt x="134" y="0" on="1"/>
        <pt x="78" y="0" on="1"/>
        <pt x="78" y="700" on="1"/>
        <pt x="134" y="700" on="1"/>
        <pt x="514" y="103" on="1"/>
        <pt x="514" y="700" on="1"/>
        <pt x="570" y="700" on="1"/>
      </contour>
      <contour>
        <pt x="474" y="875" on="1"/>
        <pt x="332" y="734" on="1"/>
        <pt x="184" y="875" on="1"/>
        <pt x="222" y="914" on="1"/>
        <pt x="331" y="810" on="1"/>
        <pt x="436" y="914" on="1"/>
      </contour>
    </TTGlyph>
    <TTGlyph name="Ncommaaccent" xMin="78" yMin="-184" xMax="570" yMax="700">
      <contour>
        <pt x="570" y="0" on="1"/>
        <pt x="514" y="0" on="1"/>
        <pt x="134" y="597" on="1"/>
        <pt x="134" y="0" on="1"/>
        <pt x="78" y="0" on="1"/>
        <pt x="78" y="700" on="1"/>
        <pt x="134" y="700" on="1"/>
        <pt x="514" y="103" on="1"/>
        <pt x="514" y="700" on="1"/>
        <pt x="570" y="700" on="1"/>
      </contour>
      <contour>
        <pt x="314" y="-184" on="1"/>
        <pt x="274" y="-156" on="1"/>
        <pt x="319" y="-130" on="0"/>
        <pt x="332" y="-110" on="1"/>
        <pt x="337" y="-103" on="1"/>
        <pt x="327" y="-100" on="1"/>
        <pt x="309" y="-87" on="0"/>
        <pt x="310" y="-51" on="0"/>
        <pt x="329" y="-34" on="0"/>
        <pt x="343" y="-34" on="0"/>
        <pt x="357" y="-35" on="0"/>
        <pt x="378" y="-58" on="0"/>
        <pt x="378" y="-73" on="1"/>
        <pt x="378" y="-131" on="0"/>
      </contour>
    </TTGlyph>
    <TTGlyph name="Ntilde" xMin="78" yMin="0" xMax="570" yMax="826">
      <contour>
        <pt x="570" y="0" on="1"/>
        <pt x="514" y="0" on="1"/>
        <pt x="134" y="597" on="1"/>
        <pt x="134" y="0" on="1"/>
        <pt x="78" y="0" on="1"/>
        <pt x="78" y="700" on="1"/>
        <pt x="134" y="700" on="1"/>
        <pt x="514" y="103" on="1"/>
        <pt x="514" y="700" on="1"/>
        <pt x="570" y="700" on="1"/>
      </contour>
      <contour>
        <pt x="397" y="785" on="1"/>
        <pt x="436" y="785" on="0"/>
        <pt x="467" y="820" on="1"/>
        <pt x="492" y="781" on="1"/>
        <pt x="447" y="728" on="0"/>
        <pt x="396" y="728" on="1"/>
        <pt x="378" y="728" on="0"/>
        <pt x="333" y="747" on="0"/>
        <pt x="283" y="770" on="0"/>
        <pt x="258" y="770" on="1"/>
        <pt x="217" y="770" on="0"/>
        <pt x="183" y="734" on="1"/>
        <pt x="158" y="773" on="1"/>
        <pt x="205" y="826" on="0"/>
        <pt x="258" y="826" on="1"/>
        <pt x="276" y="826" on="0"/>
        <pt x="321" y="808" on="0"/>
        <pt x="372" y="785" on="0"/>
      </contour>
    </TTGlyph>
    <TTGlyph name="Nu" xMin="80" yMin="0" xMax="572" yMax="700">
      <contour>
        <pt x="572" y="0" on="1"/>
        <pt x="516" y="0" on="1"/>
        <pt x="136" y="597" on="1"/>
        <pt x="136" y="0" on="1"/>
        <pt x="80" y="0" on="1"/>
        <pt x="80" y="700" on="1"/>
        <pt x="136" y="700" on="1"/>
        <pt x="516" y="103" on="1"/>
        <pt x="516" y="700" on="1"/>
        <pt x="572" y="700" on="1"/>
      </contour>
    </TTGlyph>
    <TTGlyph name="O" xMin="63" yMin="-11" xMax="483" yMax="716">
      <contour>
        <pt x="483" y="506" on="1"/>
        <pt x="483" y="185" on="1"/>
        <pt x="483" y="84" on="0"/>
        <pt x="360" y="-11" on="0"/>
        <pt x="188" y="-11" on="0"/>
        <pt x="63" y="84" on="0"/>
        <pt x="63" y="185" on="1"/>
        <pt x="63" y="507" on="1"/>
        <pt x="63" y="610" on="0"/>
        <pt x="176" y="716" on="0"/>
        <pt x="374" y="716" on="0"/>
        <pt x="483" y="604" on="0"/>
      </contour>
      <contour>
        <pt x="428" y="187" on="1"/>
        <pt x="428" y="516" on="1"/>
        <pt x="428" y="589" on="0"/>
        <pt x="343" y="663" on="0"/>
        <pt x="203" y="663" on="0"/>
        <pt x="119" y="589" on="0"/>
        <pt x="119" y="516" on="1"/>
        <pt x="119" y="186" on="1"/>
        <pt x="119" y="115" on="0"/>
        <pt x="206" y="42" on="0"/>
        <pt x="341" y="42" on="0"/>
        <pt x="428" y="113" on="0"/>
      </contour>
    </TTGlyph>
    <TTGlyph name="OE" xMin="78" yMin="-11" xMax="775" yMax="716">
      <contour>
        <pt x="498" y="185" on="1"/>
        <pt x="497" y="163" on="1"/>
        <pt x="497" y="50" on="1"/>
        <pt x="773" y="50" on="1"/>
        <pt x="773" y="0" on="1"/>
        <pt x="441" y="0" on="1"/>
        <pt x="441" y="40" on="1"/>
        <pt x="384" y="-11" on="0"/>
        <pt x="203" y="-11" on="0"/>
        <pt x="78" y="84" on="0"/>
        <pt x="78" y="185" on="1"/>
        <pt x="78" y="507" on="1"/>
        <pt x="78" y="610" on="0"/>
        <pt x="191" y="716" on="0"/>
        <pt x="387" y="716" on="0"/>
        <pt x="441" y="662" on="1"/>
        <pt x="441" y="700" on="1"/>
        <pt x="775" y="700" on="1"/>
        <pt x="775" y="648" on="1"/>
        <pt x="497" y="648" on="1"/>
        <pt x="497" y="534" on="1"/>
        <pt x="498" y="525" on="0"/>
        <pt x="498" y="506" on="1"/>
        <pt x="498" y="413" on="1"/>
        <pt x="688" y="413" on="1"/>
        <pt x="669" y="358" on="1"/>
        <pt x="498" y="358" on="1"/>
      </contour>
      <contour>
        <pt x="441" y="157" on="1"/>
        <pt x="441" y="544" on="1"/>
        <pt x="432" y="603" on="0"/>
        <pt x="351" y="663" on="0"/>
        <pt x="218" y="663" on="0"/>
        <pt x="134" y="589" on="0"/>
        <pt x="134" y="516" on="1"/>
        <pt x="134" y="186" on="1"/>
        <pt x="134" y="115" on="0"/>
        <pt x="221" y="42" on="0"/>
        <pt x="348" y="42" on="0"/>
        <pt x="432" y="99" on="0"/>
      </contour>
    </TTGlyph>
    <TTGlyph name="Oacute" xMin="63" yMin="-11" xMax="483" yMax="871">
      <contour>
        <pt x="483" y="506" on="1"/>
        <pt x="483" y="185" on="1"/>
        <pt x="483" y="84" on="0"/>
        <pt x="360" y="-11" on="0"/>
        <pt x="188" y="-11" on="0"/>
        <pt x="63" y="84" on="0"/>
        <pt x="63" y="185" on="1"/>
        <pt x="63" y="507" on="1"/>
        <pt x="63" y="610" on="0"/>
        <pt x="176" y="716" on="0"/>
        <pt x="374" y="716" on="0"/>
        <pt x="483" y="604" on="0"/>
      </contour>
      <contour>
        <pt x="428" y="187" on="1"/>
        <pt x="428" y="516" on="1"/>
        <pt x="428" y="589" on="0"/>
        <pt x="343" y="663" on="0"/>
        <pt x="203" y="663" on="0"/>
        <pt x="119" y="589" on="0"/>
        <pt x="119" y="516" on="1"/>
        <pt x="119" y="186" on="1"/>
        <pt x="119" y="115" on="0"/>
        <pt x="206" y="42" on="0"/>
        <pt x="341" y="42" on="0"/>
        <pt x="428" y="113" on="0"/>
      </contour>
      <contour>
        <pt x="301" y="730" on="1"/>
        <pt x="257" y="730" on="1"/>
        <pt x="308" y="848" on="1"/>
        <pt x="319" y="871" on="0"/>
        <pt x="340" y="871" on="1"/>
        <pt x="367" y="871" on="0"/>
        <pt x="374" y="848" on="1"/>
        <pt x="375" y="842" on="0"/>
        <pt x="375" y="828" on="0"/>
        <pt x="370" y="822" on="1"/>
      </contour>
    </TTGlyph>
    <TTGlyph name="Ocircumflex" xMin="63" yMin="-11" xMax="483" yMax="913">
      <contour>
        <pt x="483" y="506" on="1"/>
        <pt x="483" y="185" on="1"/>
        <pt x="483" y="84" on="0"/>
        <pt x="360" y="-11" on="0"/>
        <pt x="188" y="-11" on="0"/>
        <pt x="63" y="84" on="0"/>
        <pt x="63" y="185" on="1"/>
        <pt x="63" y="507" on="1"/>
        <pt x="63" y="610" on="0"/>
        <pt x="176" y="716" on="0"/>
        <pt x="374" y="716" on="0"/>
        <pt x="483" y="604" on="0"/>
      </contour>
      <contour>
        <pt x="428" y="187" on="1"/>
        <pt x="428" y="516" on="1"/>
        <pt x="428" y="589" on="0"/>
        <pt x="343" y="663" on="0"/>
        <pt x="203" y="663" on="0"/>
        <pt x="119" y="589" on="0"/>
        <pt x="119" y="516" on="1"/>
        <pt x="119" y="186" on="1"/>
        <pt x="119" y="115" on="0"/>
        <pt x="206" y="42" on="0"/>
        <pt x="341" y="42" on="0"/>
        <pt x="428" y="113" on="0"/>
      </contour>
      <contour>
        <pt x="384" y="733" on="1"/>
        <pt x="279" y="837" on="1"/>
        <pt x="170" y="733" on="1"/>
        <pt x="132" y="772" on="1"/>
        <pt x="280" y="913" on="1"/>
        <pt x="422" y="772" on="1"/>
      </contour>
    </TTGlyph>
    <TTGlyph name="Odieresis" xMin="63" yMin="-11" xMax="483" yMax="797">
      <contour>
        <pt x="483" y="506" on="1"/>
        <pt x="483" y="185" on="1"/>
        <pt x="483" y="84" on="0"/>
        <pt x="360" y="-11" on="0"/>
        <pt x="188" y="-11" on="0"/>
        <pt x="63" y="84" on="0"/>
        <pt x="63" y="185" on="1"/>
        <pt x="63" y="507" on="1"/>
        <pt x="63" y="610" on="0"/>
        <pt x="176" y="716" on="0"/>
        <pt x="374" y="716" on="0"/>
        <pt x="483" y="604" on="0"/>
      </contour>
      <contour>
        <pt x="428" y="187" on="1"/>
        <pt x="428" y="516" on="1"/>
        <pt x="428" y="589" on="0"/>
        <pt x="343" y="663" on="0"/>
        <pt x="203" y="663" on="0"/>
        <pt x="119" y="589" on="0"/>
        <pt x="119" y="516" on="1"/>
        <pt x="119" y="186" on="1"/>
        <pt x="119" y="115" on="0"/>
        <pt x="206" y="42" on="0"/>
        <pt x="341" y="42" on="0"/>
        <pt x="428" y="113" on="0"/>
      </contour>
      <contour>
        <pt x="206" y="731" on="0"/>
        <pt x="180" y="731" on="0"/>
        <pt x="160" y="750" on="0"/>
        <pt x="160" y="778" on="0"/>
        <pt x="180" y="797" on="0"/>
        <pt x="206" y="797" on="0"/>
        <pt x="226" y="778" on="0"/>
        <pt x="226" y="750" on="0"/>
      </contour>
      <contour>
        <pt x="362" y="731" on="0"/>
        <pt x="336" y="731" on="0"/>
        <pt x="316" y="750" on="0"/>
        <pt x="316" y="778" on="0"/>
        <pt x="336" y="797" on="0"/>
        <pt x="362" y="797" on="0"/>
        <pt x="382" y="778" on="0"/>
        <pt x="382" y="750" on="0"/>
      </contour>
    </TTGlyph>
    <TTGlyph name="Ograve" xMin="63" yMin="-11" xMax="483" yMax="873">
      <contour>
        <pt x="483" y="506" on="1"/>
        <pt x="483" y="185" on="1"/>
        <pt x="483" y="84" on="0"/>
        <pt x="360" y="-11" on="0"/>
        <pt x="188" y="-11" on="0"/>
        <pt x="63" y="84" on="0"/>
        <pt x="63" y="185" on="1"/>
        <pt x="63" y="507" on="1"/>
        <pt x="63" y="610" on="0"/>
        <pt x="176" y="716" on="0"/>
        <pt x="374" y="716" on="0"/>
        <pt x="483" y="604" on="0"/>
      </contour>
      <contour>
        <pt x="428" y="187" on="1"/>
        <pt x="428" y="516" on="1"/>
        <pt x="428" y="589" on="0"/>
        <pt x="343" y="663" on="0"/>
        <pt x="203" y="663" on="0"/>
        <pt x="119" y="589" on="0"/>
        <pt x="119" y="516" on="1"/>
        <pt x="119" y="186" on="1"/>
        <pt x="119" y="115" on="0"/>
        <pt x="206" y="42" on="0"/>
        <pt x="341" y="42" on="0"/>
        <pt x="428" y="113" on="0"/>
      </contour>
      <contour>
        <pt x="290" y="732" on="1"/>
        <pt x="246" y="732" on="1"/>
        <pt x="177" y="824" on="1"/>
        <pt x="172" y="830" on="0"/>
        <pt x="172" y="837" on="1"/>
        <pt x="172" y="864" on="0"/>
        <pt x="194" y="871" on="1"/>
        <pt x="201" y="873" on="0"/>
        <pt x="207" y="873" on="1"/>
        <pt x="228" y="873" on="0"/>
        <pt x="239" y="850" on="1"/>
      </contour>
    </TTGlyph>
    <TTGlyph name="Ohungarumlaut" xMin="63" yMin="-11" xMax="483" yMax="872">
      <contour>
        <pt x="483" y="506" on="1"/>
        <pt x="483" y="185" on="1"/>
        <pt x="483" y="84" on="0"/>
        <pt x="360" y="-11" on="0"/>
        <pt x="188" y="-11" on="0"/>
        <pt x="63" y="84" on="0"/>
        <pt x="63" y="185" on="1"/>
        <pt x="63" y="507" on="1"/>
        <pt x="63" y="610" on="0"/>
        <pt x="176" y="716" on="0"/>
        <pt x="374" y="716" on="0"/>
        <pt x="483" y="604" on="0"/>
      </contour>
      <contour>
        <pt x="428" y="187" on="1"/>
        <pt x="428" y="516" on="1"/>
        <pt x="428" y="589" on="0"/>
        <pt x="343" y="663" on="0"/>
        <pt x="203" y="663" on="0"/>
        <pt x="119" y="589" on="0"/>
        <pt x="119" y="516" on="1"/>
        <pt x="119" y="186" on="1"/>
        <pt x="119" y="115" on="0"/>
        <pt x="206" y="42" on="0"/>
        <pt x="341" y="42" on="0"/>
        <pt x="428" y="113" on="0"/>
      </contour>
      <contour>
        <pt x="345" y="731" on="1"/>
        <pt x="301" y="731" on="1"/>
        <pt x="352" y="849" on="1"/>
        <pt x="363" y="872" on="0"/>
        <pt x="384" y="872" on="1"/>
        <pt x="411" y="872" on="0"/>
        <pt x="418" y="849" on="1"/>
        <pt x="419" y="843" on="0"/>
        <pt x="419" y="829" on="0"/>
        <pt x="414" y="823" on="1"/>
      </contour>
      <contour>
        <pt x="233" y="731" on="1"/>
        <pt x="189" y="731" on="1"/>
        <pt x="240" y="849" on="1"/>
        <pt x="251" y="872" on="0"/>
        <pt x="272" y="872" on="1"/>
        <pt x="299" y="872" on="0"/>
        <pt x="306" y="849" on="1"/>
        <pt x="307" y="843" on="0"/>
        <pt x="307" y="829" on="0"/>
        <pt x="302" y="823" on="1"/>
      </contour>
    </TTGlyph>
    <TTGlyph name="Omacron" xMin="63" yMin="-11" xMax="483" yMax="788">
      <contour>
        <pt x="483" y="506" on="1"/>
        <pt x="483" y="185" on="1"/>
        <pt x="483" y="84" on="0"/>
        <pt x="360" y="-11" on="0"/>
        <pt x="188" y="-11" on="0"/>
        <pt x="63" y="84" on="0"/>
        <pt x="63" y="185" on="1"/>
        <pt x="63" y="507" on="1"/>
        <pt x="63" y="610" on="0"/>
        <pt x="176" y="716" on="0"/>
        <pt x="374" y="716" on="0"/>
        <pt x="483" y="604" on="0"/>
      </contour>
      <contour>
        <pt x="428" y="187" on="1"/>
        <pt x="428" y="516" on="1"/>
        <pt x="428" y="589" on="0"/>
        <pt x="343" y="663" on="0"/>
        <pt x="203" y="663" on="0"/>
        <pt x="119" y="589" on="0"/>
        <pt x="119" y="516" on="1"/>
        <pt x="119" y="186" on="1"/>
        <pt x="119" y="115" on="0"/>
        <pt x="206" y="42" on="0"/>
        <pt x="341" y="42" on="0"/>
        <pt x="428" y="113" on="0"/>
      </contour>
      <contour>
        <pt x="377" y="730" on="1"/>
        <pt x="160" y="730" on="1"/>
        <pt x="160" y="788" on="1"/>
        <pt x="377" y="788" on="1"/>
      </contour>
    </TTGlyph>
    <TTGlyph name="Omega" xMin="78" yMin="0" xMax="592" yMax="707">
      <contour>
        <pt x="592" y="0" on="1"/>
        <pt x="364" y="0" on="1"/>
        <pt x="364" y="51" on="1"/>
        <pt x="440" y="66" on="0"/>
        <pt x="467" y="82" on="1"/>
        <pt x="523" y="115" on="0"/>
        <pt x="523" y="196" on="1"/>
        <pt x="523" y="513" on="1"/>
        <pt x="523" y="580" on="0"/>
        <pt x="450" y="656" on="0"/>
        <pt x="391" y="656" on="1"/>
        <pt x="279" y="656" on="1"/>
        <pt x="220" y="656" on="0"/>
        <pt x="147" y="580" on="0"/>
        <pt x="147" y="513" on="1"/>
        <pt x="147" y="196" on="1"/>
        <pt x="147" y="136" on="0"/>
        <pt x="179" y="100" on="1"/>
        <pt x="206" y="69" on="0"/>
        <pt x="296" y="53" on="1"/>
        <pt x="303" y="52" on="0"/>
        <pt x="306" y="51" on="1"/>
        <pt x="306" y="0" on="1"/>
        <pt x="78" y="0" on="1"/>
        <pt x="95" y="51" on="1"/>
        <pt x="160" y="51" on="1"/>
        <pt x="91" y="94" on="0"/>
        <pt x="91" y="196" on="1"/>
        <pt x="91" y="503" on="1"/>
        <pt x="91" y="595" on="0"/>
        <pt x="185" y="707" on="0"/>
        <pt x="279" y="707" on="1"/>
        <pt x="391" y="707" on="1"/>
        <pt x="485" y="707" on="0"/>
        <pt x="579" y="595" on="0"/>
        <pt x="579" y="503" on="1"/>
        <pt x="579" y="196" on="1"/>
        <pt x="579" y="96" on="0"/>
        <pt x="506" y="51" on="1"/>
        <pt x="575" y="51" on="1"/>
      </contour>
    </TTGlyph>
    <TTGlyph name="Omegatonos" xMin="78" yMin="0" xMax="686" yMax="709">
      <contour>
        <pt x="686" y="0" on="1"/>
        <pt x="458" y="0" on="1"/>
        <pt x="458" y="51" on="1"/>
        <pt x="534" y="66" on="0"/>
        <pt x="561" y="82" on="1"/>
        <pt x="617" y="115" on="0"/>
        <pt x="617" y="196" on="1"/>
        <pt x="617" y="513" on="1"/>
        <pt x="617" y="580" on="0"/>
        <pt x="544" y="656" on="0"/>
        <pt x="485" y="656" on="1"/>
        <pt x="373" y="656" on="1"/>
        <pt x="314" y="656" on="0"/>
        <pt x="241" y="580" on="0"/>
        <pt x="241" y="513" on="1"/>
        <pt x="241" y="196" on="1"/>
        <pt x="241" y="136" on="0"/>
        <pt x="273" y="100" on="1"/>
        <pt x="300" y="69" on="0"/>
        <pt x="390" y="53" on="1"/>
        <pt x="397" y="52" on="0"/>
        <pt x="400" y="51" on="1"/>
        <pt x="400" y="0" on="1"/>
        <pt x="172" y="0" on="1"/>
        <pt x="189" y="51" on="1"/>
        <pt x="254" y="51" on="1"/>
        <pt x="185" y="94" on="0"/>
        <pt x="185" y="196" on="1"/>
        <pt x="185" y="503" on="1"/>
        <pt x="185" y="595" on="0"/>
        <pt x="279" y="707" on="0"/>
        <pt x="373" y="707" on="1"/>
        <pt x="485" y="707" on="1"/>
        <pt x="579" y="707" on="0"/>
        <pt x="673" y="595" on="0"/>
        <pt x="673" y="503" on="1"/>
        <pt x="673" y="196" on="1"/>
        <pt x="673" y="96" on="0"/>
        <pt x="600" y="51" on="1"/>
        <pt x="669" y="51" on="1"/>
      </contour>
      <contour>
        <pt x="122" y="568" on="1"/>
        <pt x="78" y="568" on="1"/>
        <pt x="129" y="686" on="1"/>
        <pt x="140" y="709" on="0"/>
        <pt x="161" y="709" on="1"/>
        <pt x="188" y="709" on="0"/>
        <pt x="194" y="686" on="1"/>
        <pt x="196" y="680" on="0"/>
        <pt x="196" y="666" on="0"/>
        <pt x="191" y="660" on="1"/>
      </contour>
    </TTGlyph>
    <TTGlyph name="Omicron" xMin="62" yMin="-11" xMax="482" yMax="716">
      <contour>
        <pt x="482" y="506" on="1"/>
        <pt x="482" y="185" on="1"/>
        <pt x="482" y="84" on="0"/>
        <pt x="359" y="-11" on="0"/>
        <pt x="187" y="-11" on="0"/>
        <pt x="62" y="84" on="0"/>
        <pt x="62" y="185" on="1"/>
        <pt x="62" y="507" on="1"/>
        <pt x="62" y="610" on="0"/>
        <pt x="175" y="716" on="0"/>
        <pt x="373" y="716" on="0"/>
        <pt x="482" y="604" on="0"/>
      </contour>
      <contour>
        <pt x="427" y="187" on="1"/>
        <pt x="427" y="516" on="1"/>
        <pt x="427" y="589" on="0"/>
        <pt x="342" y="663" on="0"/>
        <pt x="202" y="663" on="0"/>
        <pt x="118" y="589" on="0"/>
        <pt x="118" y="516" on="1"/>
        <pt x="118" y="186" on="1"/>
        <pt x="118" y="115" on="0"/>
        <pt x="205" y="42" on="0"/>
        <pt x="340" y="42" on="0"/>
        <pt x="427" y="113" on="0"/>
      </contour>
    </TTGlyph>
    <TTGlyph name="Omicrontonos" xMin="78" yMin="-11" xMax="615" yMax="716">
      <contour>
        <pt x="615" y="506" on="1"/>
        <pt x="615" y="185" on="1"/>
        <pt x="615" y="84" on="0"/>
        <pt x="492" y="-11" on="0"/>
        <pt x="320" y="-11" on="0"/>
        <pt x="195" y="84" on="0"/>
        <pt x="195" y="185" on="1"/>
        <pt x="195" y="507" on="1"/>
        <pt x="195" y="610" on="0"/>
        <pt x="308" y="716" on="0"/>
        <pt x="506" y="716" on="0"/>
        <pt x="615" y="604" on="0"/>
      </contour>
      <contour>
        <pt x="560" y="187" on="1"/>
        <pt x="560" y="516" on="1"/>
        <pt x="560" y="589" on="0"/>
        <pt x="475" y="663" on="0"/>
        <pt x="335" y="663" on="0"/>
        <pt x="251" y="589" on="0"/>
        <pt x="251" y="516" on="1"/>
        <pt x="251" y="186" on="1"/>
        <pt x="251" y="115" on="0"/>
        <pt x="338" y="42" on="0"/>
        <pt x="473" y="42" on="0"/>
        <pt x="560" y="113" on="0"/>
      </contour>
      <contour>
        <pt x="122" y="568" on="1"/>
        <pt x="78" y="568" on="1"/>
        <pt x="129" y="686" on="1"/>
        <pt x="140" y="709" on="0"/>
        <pt x="161" y="709" on="1"/>
        <pt x="188" y="709" on="0"/>
        <pt x="194" y="686" on="1"/>
        <pt x="196" y="680" on="0"/>
        <pt x="196" y="666" on="0"/>
        <pt x="191" y="660" on="1"/>
      </contour>
    </TTGlyph>
    <TTGlyph name="Oslash" xMin="78" yMin="-114" xMax="498" yMax="817">
      <contour>
        <pt x="161" y="-114" on="1"/>
        <pt x="100" y="-114" on="1"/>
        <pt x="150" y="29" on="1"/>
        <pt x="78" y="82" on="0"/>
        <pt x="78" y="185" on="1"/>
        <pt x="78" y="507" on="1"/>
        <pt x="78" y="610" on="0"/>
        <pt x="191" y="716" on="0"/>
        <pt x="290" y="716" on="1"/>
        <pt x="340" y="716" on="0"/>
        <pt x="383" y="700" on="1"/>
        <pt x="424" y="817" on="1"/>
        <pt x="481" y="817" on="1"/>
        <pt x="431" y="671" on="1"/>
        <pt x="498" y="616" on="0"/>
        <pt x="498" y="506" on="1"/>
        <pt x="498" y="185" on="1"/>
        <pt x="498" y="84" on="0"/>
        <pt x="375" y="-11" on="0"/>
        <pt x="289" y="-11" on="1"/>
        <pt x="240" y="-11" on="0"/>
        <pt x="201" y="3" on="1"/>
      </contour>
      <contour>
        <pt x="169" y="86" on="1"/>
        <pt x="365" y="648" on="1"/>
        <pt x="332" y="663" on="0"/>
        <pt x="288" y="663" on="1"/>
        <pt x="218" y="663" on="0"/>
        <pt x="134" y="589" on="0"/>
        <pt x="134" y="516" on="1"/>
        <pt x="134" y="186" on="1"/>
        <pt x="134" y="123" on="0"/>
      </contour>
      <contour>
        <pt x="443" y="187" on="1"/>
        <pt x="443" y="516" on="1"/>
        <pt x="443" y="577" on="0"/>
        <pt x="411" y="614" on="1"/>
        <pt x="218" y="54" on="1"/>
        <pt x="249" y="42" on="0"/>
        <pt x="288" y="42" on="1"/>
        <pt x="356" y="42" on="0"/>
        <pt x="443" y="113" on="0"/>
      </contour>
    </TTGlyph>
    <TTGlyph name="Otilde" xMin="63" yMin="-11" xMax="483" yMax="826">
      <contour>
        <pt x="483" y="506" on="1"/>
        <pt x="483" y="185" on="1"/>
        <pt x="483" y="84" on="0"/>
        <pt x="360" y="-11" on="0"/>
        <pt x="188" y="-11" on="0"/>
        <pt x="63" y="84" on="0"/>
        <pt x="63" y="185" on="1"/>
        <pt x="63" y="507" on="1"/>
        <pt x="63" y="610" on="0"/>
        <pt x="176" y="716" on="0"/>
        <pt x="374" y="716" on="0"/>
        <pt x="483" y="604" on="0"/>
      </contour>
      <contour>
        <pt x="428" y="187" on="1"/>
        <pt x="428" y="516" on="1"/>
        <pt x="428" y="589" on="0"/>
        <pt x="343" y="663" on="0"/>
        <pt x="203" y="663" on="0"/>
        <pt x="119" y="589" on="0"/>
        <pt x="119" y="516" on="1"/>
        <pt x="119" y="186" on="1"/>
        <pt x="119" y="115" on="0"/>
        <pt x="206" y="42" on="0"/>
        <pt x="341" y="42" on="0"/>
        <pt x="428" y="113" on="0"/>
      </contour>
      <contour>
        <pt x="350" y="785" on="1"/>
        <pt x="389" y="785" on="0"/>
        <pt x="420" y="820" on="1"/>
        <pt x="445" y="781" on="1"/>
        <pt x="400" y="728" on="0"/>
        <pt x="349" y="728" on="1"/>
        <pt x="331" y="728" on="0"/>
        <pt x="286" y="747" on="0"/>
        <pt x="236" y="770" on="0"/>
        <pt x="211" y="770" on="1"/>
        <pt x="170" y="770" on="0"/>
        <pt x="136" y="734" on="1"/>
        <pt x="111" y="773" on="1"/>
        <pt x="158" y="826" on="0"/>
        <pt x="211" y="826" on="1"/>
        <pt x="229" y="826" on="0"/>
        <pt x="274" y="808" on="0"/>
        <pt x="325" y="785" on="0"/>
      </contour>
    </TTGlyph>
    <TTGlyph name="P" xMin="78" yMin="0" xMax="512" yMax="700">
      <contour>
        <pt x="134" y="300" on="1"/>
        <pt x="332" y="300" on="1"/>
        <pt x="368" y="300" on="0"/>
        <pt x="418" y="329" on="0"/>
        <pt x="442" y="365" on="0"/>
        <pt x="448" y="396" on="1"/>
        <pt x="456" y="431" on="0"/>
        <pt x="456" y="486" on="1"/>
        <pt x="456" y="567" on="0"/>
        <pt x="387" y="647" on="0"/>
        <pt x="328" y="647" on="1"/>
        <pt x="134" y="647" on="1"/>
      </contour>
      <contour>
        <pt x="134" y="0" on="1"/>
        <pt x="78" y="0" on="1"/>
        <pt x="78" y="700" on="1"/>
        <pt x="324" y="700" on="1"/>
        <pt x="419" y="700" on="0"/>
        <pt x="512" y="584" on="0"/>
        <pt x="512" y="486" on="1"/>
        <pt x="512" y="451" on="0"/>
        <pt x="509" y="402" on="0"/>
        <pt x="489" y="327" on="0"/>
        <pt x="453" y="280" on="0"/>
        <pt x="381" y="245" on="0"/>
        <pt x="331" y="245" on="1"/>
        <pt x="134" y="245" on="1"/>
      </contour>
    </TTGlyph>
    <TTGlyph name="Phi" xMin="78" yMin="-35" xMax="605" yMax="711">
      <contour>
        <pt x="368" y="-35" on="1"/>
        <pt x="310" y="-22" on="1"/>
        <pt x="310" y="30" on="1"/>
        <pt x="266" y="30" on="1"/>
        <pt x="171" y="30" on="0"/>
        <pt x="78" y="134" on="0"/>
        <pt x="78" y="225" on="1"/>
        <pt x="78" y="517" on="1"/>
        <pt x="78" y="669" on="0"/>
        <pt x="194" y="706" on="1"/>
        <pt x="224" y="661" on="1"/>
        <pt x="134" y="638" on="0"/>
        <pt x="134" y="517" on="1"/>
        <pt x="134" y="215" on="1"/>
        <pt x="134" y="149" on="0"/>
        <pt x="206" y="81" on="0"/>
        <pt x="266" y="81" on="1"/>
        <pt x="310" y="81" on="1"/>
        <pt x="310" y="605" on="1"/>
        <pt x="313" y="655" on="0"/>
        <pt x="371" y="711" on="0"/>
        <pt x="418" y="711" on="1"/>
        <pt x="505" y="711" on="0"/>
        <pt x="605" y="602" on="0"/>
        <pt x="605" y="511" on="1"/>
        <pt x="605" y="225" on="1"/>
        <pt x="605" y="134" on="0"/>
        <pt x="512" y="30" on="0"/>
        <pt x="417" y="30" on="1"/>
        <pt x="368" y="30" on="1"/>
      </contour>
      <contour>
        <pt x="549" y="215" on="1"/>
        <pt x="549" y="521" on="1"/>
        <pt x="549" y="589" on="0"/>
        <pt x="472" y="658" on="0"/>
        <pt x="426" y="658" on="1"/>
        <pt x="368" y="658" on="0"/>
        <pt x="368" y="596" on="1"/>
        <pt x="368" y="81" on="1"/>
        <pt x="417" y="81" on="1"/>
        <pt x="477" y="81" on="0"/>
        <pt x="549" y="149" on="0"/>
      </contour>
    </TTGlyph>
    <TTGlyph name="Pi" xMin="80" yMin="0" xMax="510" yMax="700">
      <contour>
        <pt x="510" y="0" on="1"/>
        <pt x="454" y="0" on="1"/>
        <pt x="454" y="645" on="1"/>
        <pt x="136" y="645" on="1"/>
        <pt x="136" y="0" on="1"/>
        <pt x="80" y="0" on="1"/>
        <pt x="80" y="700" on="1"/>
        <pt x="510" y="700" on="1"/>
      </contour>
    </TTGlyph>
    <TTGlyph name="Psi" xMin="61" yMin="0" xMax="588" yMax="709">
      <contour>
        <pt x="351" y="0" on="1"/>
        <pt x="294" y="0" on="1"/>
        <pt x="293" y="212" on="1"/>
        <pt x="249" y="212" on="1"/>
        <pt x="154" y="212" on="0"/>
        <pt x="61" y="315" on="0"/>
        <pt x="61" y="406" on="1"/>
        <pt x="61" y="700" on="1"/>
        <pt x="117" y="700" on="1"/>
        <pt x="117" y="396" on="1"/>
        <pt x="117" y="330" on="0"/>
        <pt x="189" y="262" on="0"/>
        <pt x="249" y="262" on="1"/>
        <pt x="293" y="262" on="1"/>
        <pt x="293" y="700" on="1"/>
        <pt x="351" y="700" on="1"/>
        <pt x="351" y="262" on="1"/>
        <pt x="400" y="262" on="1"/>
        <pt x="460" y="262" on="0"/>
        <pt x="532" y="330" on="0"/>
        <pt x="532" y="396" on="1"/>
        <pt x="532" y="564" on="1"/>
        <pt x="532" y="604" on="0"/>
        <pt x="518" y="657" on="0"/>
        <pt x="504" y="675" on="0"/>
        <pt x="487" y="693" on="1"/>
        <pt x="532" y="709" on="1"/>
        <pt x="559" y="692" on="0"/>
        <pt x="585" y="633" on="0"/>
        <pt x="588" y="591" on="0"/>
        <pt x="588" y="549" on="1"/>
        <pt x="588" y="406" on="1"/>
        <pt x="588" y="315" on="0"/>
        <pt x="495" y="212" on="0"/>
        <pt x="400" y="212" on="1"/>
        <pt x="351" y="212" on="1"/>
      </contour>
    </TTGlyph>
    <TTGlyph name="Q" xMin="63" yMin="-94" xMax="483" yMax="716">
      <contour>
        <pt x="428" y="-40" on="1"/>
        <pt x="428" y="-94" on="1"/>
        <pt x="308" y="-94" on="0"/>
        <pt x="266" y="-11" on="1"/>
        <pt x="188" y="-9" on="0"/>
        <pt x="128" y="34" on="1"/>
        <pt x="98" y="56" on="0"/>
        <pt x="63" y="134" on="0"/>
        <pt x="63" y="185" on="1"/>
        <pt x="63" y="507" on="1"/>
        <pt x="63" y="610" on="0"/>
        <pt x="176" y="716" on="0"/>
        <pt x="374" y="716" on="0"/>
        <pt x="483" y="604" on="0"/>
        <pt x="483" y="506" on="1"/>
        <pt x="483" y="185" on="1"/>
        <pt x="483" y="98" on="0"/>
        <pt x="392" y="5" on="0"/>
        <pt x="322" y="-7" on="1"/>
        <pt x="349" y="-40" on="0"/>
        <pt x="424" y="-40" on="1"/>
        <pt x="426" y="-40" on="0"/>
      </contour>
      <contour>
        <pt x="428" y="187" on="1"/>
        <pt x="428" y="516" on="1"/>
        <pt x="428" y="589" on="0"/>
        <pt x="343" y="663" on="0"/>
        <pt x="203" y="663" on="0"/>
        <pt x="119" y="589" on="0"/>
        <pt x="119" y="516" on="1"/>
        <pt x="119" y="186" on="1"/>
        <pt x="119" y="122" on="0"/>
        <pt x="190" y="49" on="0"/>
        <pt x="248" y="43" on="1"/>
        <pt x="244" y="67" on="0"/>
        <pt x="244" y="101" on="1"/>
        <pt x="244" y="174" on="1"/>
        <pt x="300" y="174" on="1"/>
        <pt x="300" y="102" on="1"/>
        <pt x="300" y="61" on="0"/>
        <pt x="303" y="44" on="1"/>
        <pt x="360" y="51" on="0"/>
        <pt x="428" y="122" on="0"/>
      </contour>
    </TTGlyph>
    <TTGlyph name="R" xMin="78" yMin="0" xMax="513" yMax="700">
      <contour>
        <pt x="513" y="0" on="1"/>
        <pt x="456" y="0" on="1"/>
        <pt x="371" y="248" on="1"/>
        <pt x="353" y="245" on="0"/>
        <pt x="331" y="245" on="1"/>
        <pt x="134" y="245" on="1"/>
        <pt x="134" y="0" on="1"/>
        <pt x="78" y="0" on="1"/>
        <pt x="78" y="700" on="1"/>
        <pt x="324" y="700" on="1"/>
        <pt x="419" y="700" on="0"/>
        <pt x="512" y="584" on="0"/>
        <pt x="512" y="486" on="1"/>
        <pt x="512" y="439" on="0"/>
        <pt x="505" y="373" on="0"/>
        <pt x="463" y="286" on="0"/>
        <pt x="424" y="265" on="1"/>
      </contour>
      <contour>
        <pt x="134" y="300" on="1"/>
        <pt x="332" y="300" on="1"/>
        <pt x="368" y="300" on="0"/>
        <pt x="418" y="329" on="0"/>
        <pt x="442" y="365" on="0"/>
        <pt x="448" y="396" on="1"/>
        <pt x="456" y="431" on="0"/>
        <pt x="456" y="486" on="1"/>
        <pt x="456" y="567" on="0"/>
        <pt x="387" y="647" on="0"/>
        <pt x="328" y="647" on="1"/>
        <pt x="134" y="647" on="1"/>
      </contour>
    </TTGlyph>
    <TTGlyph name="Racute" xMin="78" yMin="0" xMax="513" yMax="871">
      <contour>
        <pt x="513" y="0" on="1"/>
        <pt x="456" y="0" on="1"/>
        <pt x="371" y="248" on="1"/>
        <pt x="353" y="245" on="0"/>
        <pt x="331" y="245" on="1"/>
        <pt x="134" y="245" on="1"/>
        <pt x="134" y="0" on="1"/>
        <pt x="78" y="0" on="1"/>
        <pt x="78" y="700" on="1"/>
        <pt x="324" y="700" on="1"/>
        <pt x="419" y="700" on="0"/>
        <pt x="512" y="584" on="0"/>
        <pt x="512" y="486" on="1"/>
        <pt x="512" y="439" on="0"/>
        <pt x="505" y="373" on="0"/>
        <pt x="463" y="286" on="0"/>
        <pt x="424" y="265" on="1"/>
      </contour>
      <contour>
        <pt x="134" y="300" on="1"/>
        <pt x="332" y="300" on="1"/>
        <pt x="368" y="300" on="0"/>
        <pt x="418" y="329" on="0"/>
        <pt x="442" y="365" on="0"/>
        <pt x="448" y="396" on="1"/>
        <pt x="456" y="431" on="0"/>
        <pt x="456" y="486" on="1"/>
        <pt x="456" y="567" on="0"/>
        <pt x="387" y="647" on="0"/>
        <pt x="328" y="647" on="1"/>
        <pt x="134" y="647" on="1"/>
      </contour>
      <contour>
        <pt x="271" y="730" on="1"/>
        <pt x="227" y="730" on="1"/>
        <pt x="278" y="848" on="1"/>
        <pt x="289" y="871" on="0"/>
        <pt x="310" y="871" on="1"/>
        <pt x="337" y="871" on="0"/>
        <pt x="344" y="848" on="1"/>
        <pt x="345" y="842" on="0"/>
        <pt x="345" y="828" on="0"/>
        <pt x="340" y="822" on="1"/>
      </contour>
    </TTGlyph>
    <TTGlyph name="Rcaron" xMin="78" yMin="0" xMax="513" yMax="914">
      <contour>
        <pt x="513" y="0" on="1"/>
        <pt x="456" y="0" on="1"/>
        <pt x="371" y="248" on="1"/>
        <pt x="353" y="245" on="0"/>
        <pt x="331" y="245" on="1"/>
        <pt x="134" y="245" on="1"/>
        <pt x="134" y="0" on="1"/>
        <pt x="78" y="0" on="1"/>
        <pt x="78" y="700" on="1"/>
        <pt x="324" y="700" on="1"/>
        <pt x="419" y="700" on="0"/>
        <pt x="512" y="584" on="0"/>
        <pt x="512" y="486" on="1"/>
        <pt x="512" y="439" on="0"/>
        <pt x="505" y="373" on="0"/>
        <pt x="463" y="286" on="0"/>
        <pt x="424" y="265" on="1"/>
      </contour>
      <contour>
        <pt x="134" y="300" on="1"/>
        <pt x="332" y="300" on="1"/>
        <pt x="368" y="300" on="0"/>
        <pt x="418" y="329" on="0"/>
        <pt x="442" y="365" on="0"/>
        <pt x="448" y="396" on="1"/>
        <pt x="456" y="431" on="0"/>
        <pt x="456" y="486" on="1"/>
        <pt x="456" y="567" on="0"/>
        <pt x="387" y="647" on="0"/>
        <pt x="328" y="647" on="1"/>
        <pt x="134" y="647" on="1"/>
      </contour>
      <contour>
        <pt x="427" y="875" on="1"/>
        <pt x="285" y="734" on="1"/>
        <pt x="137" y="875" on="1"/>
        <pt x="175" y="914" on="1"/>
        <pt x="284" y="810" on="1"/>
        <pt x="389" y="914" on="1"/>
      </contour>
    </TTGlyph>
    <TTGlyph name="Rcommaaccent" xMin="78" yMin="-184" xMax="513" yMax="700">
      <contour>
        <pt x="513" y="0" on="1"/>
        <pt x="456" y="0" on="1"/>
        <pt x="371" y="248" on="1"/>
        <pt x="353" y="245" on="0"/>
        <pt x="331" y="245" on="1"/>
        <pt x="134" y="245" on="1"/>
        <pt x="134" y="0" on="1"/>
        <pt x="78" y="0" on="1"/>
        <pt x="78" y="700" on="1"/>
        <pt x="324" y="700" on="1"/>
        <pt x="419" y="700" on="0"/>
        <pt x="512" y="584" on="0"/>
        <pt x="512" y="486" on="1"/>
        <pt x="512" y="439" on="0"/>
        <pt x="505" y="373" on="0"/>
        <pt x="463" y="286" on="0"/>
        <pt x="424" y="265" on="1"/>
      </contour>
      <contour>
        <pt x="134" y="300" on="1"/>
        <pt x="332" y="300" on="1"/>
        <pt x="368" y="300" on="0"/>
        <pt x="418" y="329" on="0"/>
        <pt x="442" y="365" on="0"/>
        <pt x="448" y="396" on="1"/>
        <pt x="456" y="431" on="0"/>
        <pt x="456" y="486" on="1"/>
        <pt x="456" y="567" on="0"/>
        <pt x="387" y="647" on="0"/>
        <pt x="328" y="647" on="1"/>
        <pt x="134" y="647" on="1"/>
      </contour>
      <contour>
        <pt x="251" y="-184" on="1"/>
        <pt x="211" y="-156" on="1"/>
        <pt x="256" y="-130" on="0"/>
        <pt x="269" y="-110" on="1"/>
        <pt x="274" y="-103" on="1"/>
        <pt x="264" y="-100" on="1"/>
        <pt x="246" y="-87" on="0"/>
        <pt x="247" y="-51" on="0"/>
        <pt x="266" y="-34" on="0"/>
        <pt x="280" y="-34" on="0"/>
        <pt x="294" y="-35" on="0"/>
        <pt x="315" y="-58" on="0"/>
        <pt x="315" y="-73" on="1"/>
        <pt x="315" y="-131" on="0"/>
      </contour>
    </TTGlyph>
    <TTGlyph name="Rho" xMin="78" yMin="0" xMax="512" yMax="700">
      <contour>
        <pt x="134" y="300" on="1"/>
        <pt x="332" y="300" on="1"/>
        <pt x="368" y="300" on="0"/>
        <pt x="418" y="329" on="0"/>
        <pt x="442" y="365" on="0"/>
        <pt x="448" y="396" on="1"/>
        <pt x="456" y="431" on="0"/>
        <pt x="456" y="486" on="1"/>
        <pt x="456" y="567" on="0"/>
        <pt x="387" y="647" on="0"/>
        <pt x="328" y="647" on="1"/>
        <pt x="134" y="647" on="1"/>
      </contour>
      <contour>
        <pt x="134" y="0" on="1"/>
        <pt x="78" y="0" on="1"/>
        <pt x="78" y="700" on="1"/>
        <pt x="324" y="700" on="1"/>
        <pt x="419" y="700" on="0"/>
        <pt x="512" y="584" on="0"/>
        <pt x="512" y="486" on="1"/>
        <pt x="512" y="451" on="0"/>
        <pt x="509" y="402" on="0"/>
        <pt x="489" y="327" on="0"/>
        <pt x="453" y="280" on="0"/>
        <pt x="381" y="245" on="0"/>
        <pt x="331" y="245" on="1"/>
        <pt x="134" y="245" on="1"/>
      </contour>
    </TTGlyph>
    <TTGlyph name="S" xMin="37" yMin="-11" xMax="512" yMax="710">
      <contour>
        <pt x="37" y="178" on="1"/>
        <pt x="94" y="178" on="1"/>
        <pt x="99" y="125" on="0"/>
        <pt x="196" y="43" on="0"/>
        <pt x="348" y="43" on="0"/>
        <pt x="452" y="112" on="0"/>
        <pt x="452" y="187" on="1"/>
        <pt x="452" y="233" on="0"/>
        <pt x="393" y="298" on="0"/>
        <pt x="305" y="332" on="0"/>
        <pt x="202" y="371" on="0"/>
        <pt x="114" y="409" on="0"/>
        <pt x="55" y="485" on="0"/>
        <pt x="55" y="538" on="1"/>
        <pt x="55" y="608" on="0"/>
        <pt x="171" y="710" on="0"/>
        <pt x="280" y="710" on="1"/>
        <pt x="363" y="710" on="0"/>
        <pt x="426" y="680" on="1"/>
        <pt x="426" y="678" on="0"/>
        <pt x="409" y="627" on="1"/>
        <pt x="352" y="656" on="0"/>
        <pt x="205" y="656" on="0"/>
        <pt x="113" y="592" on="0"/>
        <pt x="113" y="535" on="1"/>
        <pt x="113" y="471" on="0"/>
        <pt x="192" y="435" on="1"/>
        <pt x="227" y="419" on="0"/>
        <pt x="312" y="391" on="0"/>
        <pt x="398" y="357" on="0"/>
        <pt x="468" y="314" on="0"/>
        <pt x="512" y="240" on="0"/>
        <pt x="512" y="192" on="1"/>
        <pt x="512" y="100" on="0"/>
        <pt x="395" y="-11" on="0"/>
        <pt x="164" y="-11" on="0"/>
        <pt x="39" y="104" on="0"/>
      </contour>
    </TTGlyph>
    <TTGlyph name="Sacute" xMin="37" yMin="-11" xMax="512" yMax="876">
      <contour>
        <pt x="37" y="178" on="1"/>
        <pt x="94" y="178" on="1"/>
        <pt x="99" y="125" on="0"/>
        <pt x="196" y="43" on="0"/>
        <pt x="348" y="43" on="0"/>
        <pt x="452" y="112" on="0"/>
        <pt x="452" y="187" on="1"/>
        <pt x="452" y="233" on="0"/>
        <pt x="393" y="298" on="0"/>
        <pt x="305" y="332" on="0"/>
        <pt x="202" y="371" on="0"/>
        <pt x="114" y="409" on="0"/>
        <pt x="55" y="485" on="0"/>
        <pt x="55" y="538" on="1"/>
        <pt x="55" y="608" on="0"/>
        <pt x="171" y="710" on="0"/>
        <pt x="280" y="710" on="1"/>
        <pt x="363" y="710" on="0"/>
        <pt x="426" y="680" on="1"/>
        <pt x="426" y="678" on="0"/>
        <pt x="409" y="627" on="1"/>
        <pt x="352" y="656" on="0"/>
        <pt x="205" y="656" on="0"/>
        <pt x="113" y="592" on="0"/>
        <pt x="113" y="535" on="1"/>
        <pt x="113" y="471" on="0"/>
        <pt x="192" y="435" on="1"/>
        <pt x="227" y="419" on="0"/>
        <pt x="312" y="391" on="0"/>
        <pt x="398" y="357" on="0"/>
        <pt x="468" y="314" on="0"/>
        <pt x="512" y="240" on="0"/>
        <pt x="512" y="192" on="1"/>
        <pt x="512" y="100" on="0"/>
        <pt x="395" y="-11" on="0"/>
        <pt x="164" y="-11" on="0"/>
        <pt x="39" y="104" on="0"/>
      </contour>
      <contour>
        <pt x="284" y="735" on="1"/>
        <pt x="240" y="735" on="1"/>
        <pt x="291" y="853" on="1"/>
        <pt x="302" y="876" on="0"/>
        <pt x="323" y="876" on="1"/>
        <pt x="350" y="876" on="0"/>
        <pt x="356" y="853" on="1"/>
        <pt x="358" y="847" on="0"/>
        <pt x="358" y="833" on="0"/>
        <pt x="353" y="827" on="1"/>
      </contour>
    </TTGlyph>
    <TTGlyph name="Scaron" xMin="37" yMin="-11" xMax="512" yMax="964">
      <contour>
        <pt x="37" y="178" on="1"/>
        <pt x="94" y="178" on="1"/>
        <pt x="99" y="125" on="0"/>
        <pt x="196" y="43" on="0"/>
        <pt x="348" y="43" on="0"/>
        <pt x="452" y="112" on="0"/>
        <pt x="452" y="187" on="1"/>
        <pt x="452" y="233" on="0"/>
        <pt x="393" y="298" on="0"/>
        <pt x="305" y="332" on="0"/>
        <pt x="202" y="371" on="0"/>
        <pt x="114" y="409" on="0"/>
        <pt x="55" y="485" on="0"/>
        <pt x="55" y="538" on="1"/>
        <pt x="55" y="608" on="0"/>
        <pt x="171" y="710" on="0"/>
        <pt x="280" y="710" on="1"/>
        <pt x="363" y="710" on="0"/>
        <pt x="426" y="680" on="1"/>
        <pt x="426" y="678" on="0"/>
        <pt x="409" y="627" on="1"/>
        <pt x="352" y="656" on="0"/>
        <pt x="205" y="656" on="0"/>
        <pt x="113" y="592" on="0"/>
        <pt x="113" y="535" on="1"/>
        <pt x="113" y="471" on="0"/>
        <pt x="192" y="435" on="1"/>
        <pt x="227" y="419" on="0"/>
        <pt x="312" y="391" on="0"/>
        <pt x="398" y="357" on="0"/>
        <pt x="468" y="314" on="0"/>
        <pt x="512" y="240" on="0"/>
        <pt x="512" y="192" on="1"/>
        <pt x="512" y="100" on="0"/>
        <pt x="395" y="-11" on="0"/>
        <pt x="164" y="-11" on="0"/>
        <pt x="39" y="104" on="0"/>
      </contour>
      <contour>
        <pt x="444" y="925" on="1"/>
        <pt x="302" y="784" on="1"/>
        <pt x="154" y="925" on="1"/>
        <pt x="192" y="964" on="1"/>
        <pt x="301" y="860" on="1"/>
        <pt x="406" y="964" on="1"/>
      </contour>
    </TTGlyph>
    <TTGlyph name="Scircumflex" xMin="37" yMin="-11" xMax="512" yMax="913">
      <contour>
        <pt x="37" y="178" on="1"/>
        <pt x="94" y="178" on="1"/>
        <pt x="99" y="125" on="0"/>
        <pt x="196" y="43" on="0"/>
        <pt x="348" y="43" on="0"/>
        <pt x="452" y="112" on="0"/>
        <pt x="452" y="187" on="1"/>
        <pt x="452" y="233" on="0"/>
        <pt x="393" y="298" on="0"/>
        <pt x="305" y="332" on="0"/>
        <pt x="202" y="371" on="0"/>
        <pt x="114" y="409" on="0"/>
        <pt x="55" y="485" on="0"/>
        <pt x="55" y="538" on="1"/>
        <pt x="55" y="608" on="0"/>
        <pt x="171" y="710" on="0"/>
        <pt x="280" y="710" on="1"/>
        <pt x="363" y="710" on="0"/>
        <pt x="426" y="680" on="1"/>
        <pt x="426" y="678" on="0"/>
        <pt x="409" y="627" on="1"/>
        <pt x="352" y="656" on="0"/>
        <pt x="205" y="656" on="0"/>
        <pt x="113" y="592" on="0"/>
        <pt x="113" y="535" on="1"/>
        <pt x="113" y="471" on="0"/>
        <pt x="192" y="435" on="1"/>
        <pt x="227" y="419" on="0"/>
        <pt x="312" y="391" on="0"/>
        <pt x="398" y="357" on="0"/>
        <pt x="468" y="314" on="0"/>
        <pt x="512" y="240" on="0"/>
        <pt x="512" y="192" on="1"/>
        <pt x="512" y="100" on="0"/>
        <pt x="395" y="-11" on="0"/>
        <pt x="164" y="-11" on="0"/>
        <pt x="39" y="104" on="0"/>
      </contour>
      <contour>
        <pt x="377" y="733" on="1"/>
        <pt x="272" y="837" on="1"/>
        <pt x="163" y="733" on="1"/>
        <pt x="125" y="772" on="1"/>
        <pt x="273" y="913" on="1"/>
        <pt x="415" y="772" on="1"/>
      </contour>
    </TTGlyph>
    <TTGlyph name="Scommaaccent" xMin="37" yMin="-184" xMax="512" yMax="710">
      <contour>
        <pt x="37" y="178" on="1"/>
        <pt x="94" y="178" on="1"/>
        <pt x="99" y="125" on="0"/>
        <pt x="196" y="43" on="0"/>
        <pt x="348" y="43" on="0"/>
        <pt x="452" y="112" on="0"/>
        <pt x="452" y="187" on="1"/>
        <pt x="452" y="233" on="0"/>
        <pt x="393" y="298" on="0"/>
        <pt x="305" y="332" on="0"/>
        <pt x="202" y="371" on="0"/>
        <pt x="114" y="409" on="0"/>
        <pt x="55" y="485" on="0"/>
        <pt x="55" y="538" on="1"/>
        <pt x="55" y="608" on="0"/>
        <pt x="171" y="710" on="0"/>
        <pt x="280" y="710" on="1"/>
        <pt x="363" y="710" on="0"/>
        <pt x="426" y="680" on="1"/>
        <pt x="426" y="678" on="0"/>
        <pt x="409" y="627" on="1"/>
        <pt x="352" y="656" on="0"/>
        <pt x="205" y="656" on="0"/>
        <pt x="113" y="592" on="0"/>
        <pt x="113" y="535" on="1"/>
        <pt x="113" y="471" on="0"/>
        <pt x="192" y="435" on="1"/>
        <pt x="227" y="419" on="0"/>
        <pt x="312" y="391" on="0"/>
        <pt x="398" y="357" on="0"/>
        <pt x="468" y="314" on="0"/>
        <pt x="512" y="240" on="0"/>
        <pt x="512" y="192" on="1"/>
        <pt x="512" y="100" on="0"/>
        <pt x="395" y="-11" on="0"/>
        <pt x="164" y="-11" on="0"/>
        <pt x="39" y="104" on="0"/>
      </contour>
      <contour>
        <pt x="245" y="-184" on="1"/>
        <pt x="205" y="-156" on="1"/>
        <pt x="250" y="-130" on="0"/>
        <pt x="263" y="-110" on="1"/>
        <pt x="268" y="-103" on="1"/>
        <pt x="258" y="-100" on="1"/>
        <pt x="240" y="-87" on="0"/>
        <pt x="241" y="-51" on="0"/>
        <pt x="260" y="-34" on="0"/>
        <pt x="274" y="-34" on="0"/>
        <pt x="288" y="-35" on="0"/>
        <pt x="309" y="-58" on="0"/>
        <pt x="309" y="-73" on="1"/>
        <pt x="309" y="-131" on="0"/>
      </contour>
    </TTGlyph>
    <TTGlyph name="Sigma" xMin="78" yMin="0" xMax="546" yMax="702">
      <contour>
        <pt x="401" y="0" on="1"/>
        <pt x="78" y="0" on="1"/>
        <pt x="304" y="384" on="1"/>
        <pt x="94" y="702" on="1"/>
        <pt x="522" y="702" on="1"/>
        <pt x="504" y="649" on="1"/>
        <pt x="195" y="649" on="1"/>
        <pt x="371" y="387" on="1"/>
        <pt x="171" y="51" on="1"/>
        <pt x="397" y="51" on="1"/>
        <pt x="435" y="51" on="0"/>
        <pt x="491" y="88" on="0"/>
        <pt x="503" y="122" on="1"/>
        <pt x="546" y="106" on="1"/>
        <pt x="530" y="50" on="0"/>
        <pt x="460" y="0" on="0"/>
      </contour>
    </TTGlyph>
    <TTGlyph name="T" xMin="0" yMin="0" xMax="402" yMax="700">
      <contour>
        <pt x="226" y="0" on="1"/>
        <pt x="170" y="0" on="1"/>
        <pt x="170" y="650" on="1"/>
        <pt x="0" y="650" on="1"/>
        <pt x="0" y="700" on="1"/>
        <pt x="402" y="700" on="1"/>
        <pt x="402" y="650" on="1"/>
        <pt x="226" y="650" on="1"/>
      </contour>
    </TTGlyph>
    <TTGlyph name="Tau" xMin="78" yMin="0" xMax="480" yMax="700">
      <contour>
        <pt x="304" y="0" on="1"/>
        <pt x="248" y="0" on="1"/>
        <pt x="248" y="650" on="1"/>
        <pt x="78" y="650" on="1"/>
        <pt x="78" y="700" on="1"/>
        <pt x="480" y="700" on="1"/>
        <pt x="480" y="650" on="1"/>
        <pt x="304" y="650" on="1"/>
      </contour>
    </TTGlyph>
    <TTGlyph name="Tbar" xMin="0" yMin="0" xMax="402" yMax="788">
      <contour>
        <pt x="226" y="0" on="1"/>
        <pt x="170" y="0" on="1"/>
        <pt x="170" y="650" on="1"/>
        <pt x="0" y="650" on="1"/>
        <pt x="0" y="700" on="1"/>
        <pt x="402" y="700" on="1"/>
        <pt x="402" y="650" on="1"/>
        <pt x="226" y="650" on="1"/>
      </contour>
      <contour>
        <pt x="307" y="730" on="1"/>
        <pt x="90" y="730" on="1"/>
        <pt x="90" y="788" on="1"/>
        <pt x="307" y="788" on="1"/>
      </contour>
    </TTGlyph>
    <TTGlyph name="Tcaron" xMin="0" yMin="0" xMax="402" yMax="914">
      <contour>
        <pt x="226" y="0" on="1"/>
        <pt x="170" y="0" on="1"/>
        <pt x="170" y="650" on="1"/>
        <pt x="0" y="650" on="1"/>
        <pt x="0" y="700" on="1"/>
        <pt x="402" y="700" on="1"/>
        <pt x="402" y="650" on="1"/>
        <pt x="226" y="650" on="1"/>
      </contour>
      <contour>
        <pt x="344" y="875" on="1"/>
        <pt x="202" y="734" on="1"/>
        <pt x="54" y="875" on="1"/>
        <pt x="92" y="914" on="1"/>
        <pt x="201" y="810" on="1"/>
        <pt x="306" y="914" on="1"/>
      </contour>
    </TTGlyph>
    <TTGlyph name="Tcommaaccent" xMin="0" yMin="-184" xMax="402" yMax="700">
      <contour>
        <pt x="226" y="0" on="1"/>
        <pt x="170" y="0" on="1"/>
        <pt x="170" y="650" on="1"/>
        <pt x="0" y="650" on="1"/>
        <pt x="0" y="700" on="1"/>
        <pt x="402" y="700" on="1"/>
        <pt x="402" y="650" on="1"/>
        <pt x="226" y="650" on="1"/>
      </contour>
      <contour>
        <pt x="171" y="-184" on="1"/>
        <pt x="131" y="-156" on="1"/>
        <pt x="176" y="-130" on="0"/>
        <pt x="189" y="-110" on="1"/>
        <pt x="194" y="-103" on="1"/>
        <pt x="184" y="-100" on="1"/>
        <pt x="166" y="-87" on="0"/>
        <pt x="167" y="-51" on="0"/>
        <pt x="186" y="-34" on="0"/>
        <pt x="200" y="-34" on="0"/>
        <pt x="214" y="-35" on="0"/>
        <pt x="235" y="-58" on="0"/>
        <pt x="235" y="-73" on="1"/>
        <pt x="235" y="-131" on="0"/>
      </contour>
    </TTGlyph>
    <TTGlyph name="Theta" xMin="142" yMin="-11" xMax="562" yMax="716">
      <contour>
        <pt x="562" y="506" on="1"/>
        <pt x="562" y="185" on="1"/>
        <pt x="562" y="84" on="0"/>
        <pt x="439" y="-11" on="0"/>
        <pt x="267" y="-11" on="0"/>
        <pt x="142" y="84" on="0"/>
        <pt x="142" y="185" on="1"/>
        <pt x="142" y="507" on="1"/>
        <pt x="142" y="610" on="0"/>
        <pt x="255" y="716" on="0"/>
        <pt x="453" y="716" on="0"/>
        <pt x="562" y="604" on="0"/>
      </contour>
      <contour>
        <pt x="198" y="516" on="1"/>
        <pt x="198" y="358" on="1"/>
        <pt x="507" y="358" on="1"/>
        <pt x="507" y="516" on="1"/>
        <pt x="507" y="589" on="0"/>
        <pt x="422" y="663" on="0"/>
        <pt x="282" y="663" on="0"/>
        <pt x="198" y="589" on="0"/>
      </contour>
      <contour>
        <pt x="507" y="187" on="1"/>
        <pt x="507" y="303" on="1"/>
        <pt x="198" y="303" on="1"/>
        <pt x="198" y="186" on="1"/>
        <pt x="198" y="115" on="0"/>
        <pt x="285" y="42" on="0"/>
        <pt x="420" y="42" on="0"/>
        <pt x="507" y="113" on="0"/>
      </contour>
    </TTGlyph>
    <TTGlyph name="Thorn" xMin="78" yMin="0" xMax="455" yMax="700">
      <contour>
        <pt x="134" y="0" on="1"/>
        <pt x="78" y="0" on="1"/>
        <pt x="78" y="700" on="1"/>
        <pt x="134" y="700" on="1"/>
        <pt x="134" y="455" on="1"/>
        <pt x="187" y="509" on="0"/>
        <pt x="358" y="509" on="0"/>
        <pt x="455" y="401" on="0"/>
        <pt x="455" y="221" on="0"/>
        <pt x="352" y="116" on="0"/>
        <pt x="269" y="116" on="1"/>
        <pt x="232" y="116" on="0"/>
        <pt x="154" y="153" on="0"/>
        <pt x="134" y="185" on="1"/>
      </contour>
      <contour>
        <pt x="134" y="324" on="1"/>
        <pt x="134" y="247" on="0"/>
        <pt x="208" y="170" on="0"/>
        <pt x="326" y="170" on="0"/>
        <pt x="399" y="242" on="0"/>
        <pt x="399" y="392" on="0"/>
        <pt x="322" y="458" on="0"/>
        <pt x="215" y="458" on="0"/>
        <pt x="137" y="393" on="0"/>
      </contour>
    </TTGlyph>
    <TTGlyph name="U" xMin="74" yMin="-7" xMax="495" yMax="701">
      <contour>
        <pt x="439" y="178" on="1"/>
        <pt x="439" y="701" on="1"/>
        <pt x="495" y="701" on="1"/>
        <pt x="495" y="186" on="1"/>
        <pt x="495" y="133" on="0"/>
        <pt x="458" y="55" on="0"/>
        <pt x="395" y="13" on="0"/>
        <pt x="325" y="-7" on="0"/>
        <pt x="245" y="-7" on="0"/>
        <pt x="174" y="13" on="0"/>
        <pt x="111" y="55" on="0"/>
        <pt x="74" y="133" on="0"/>
        <pt x="74" y="186" on="1"/>
        <pt x="74" y="701" on="1"/>
        <pt x="130" y="701" on="1"/>
        <pt x="130" y="178" on="1"/>
        <pt x="130" y="117" on="0"/>
        <pt x="219" y="43" on="0"/>
        <pt x="349" y="43" on="0"/>
        <pt x="439" y="117" on="0"/>
      </contour>
    </TTGlyph>
    <TTGlyph name="Uacute" xMin="74" yMin="-7" xMax="495" yMax="872">
      <contour>
        <pt x="439" y="178" on="1"/>
        <pt x="439" y="701" on="1"/>
        <pt x="495" y="701" on="1"/>
        <pt x="495" y="186" on="1"/>
        <pt x="495" y="133" on="0"/>
        <pt x="458" y="55" on="0"/>
        <pt x="395" y="13" on="0"/>
        <pt x="325" y="-7" on="0"/>
        <pt x="245" y="-7" on="0"/>
        <pt x="174" y="13" on="0"/>
        <pt x="111" y="55" on="0"/>
        <pt x="74" y="133" on="0"/>
        <pt x="74" y="186" on="1"/>
        <pt x="74" y="701" on="1"/>
        <pt x="130" y="701" on="1"/>
        <pt x="130" y="178" on="1"/>
        <pt x="130" y="117" on="0"/>
        <pt x="219" y="43" on="0"/>
        <pt x="349" y="43" on="0"/>
        <pt x="439" y="117" on="0"/>
      </contour>
      <contour>
        <pt x="306" y="731" on="1"/>
        <pt x="262" y="731" on="1"/>
        <pt x="313" y="849" on="1"/>
        <pt x="324" y="872" on="0"/>
        <pt x="345" y="872" on="1"/>
        <pt x="372" y="872" on="0"/>
        <pt x="378" y="849" on="1"/>
        <pt x="380" y="843" on="0"/>
        <pt x="380" y="829" on="0"/>
        <pt x="375" y="823" on="1"/>
      </contour>
    </TTGlyph>
    <TTGlyph name="Ubreve" xMin="74" yMin="-7" xMax="495" yMax="842">
      <contour>
        <pt x="439" y="178" on="1"/>
        <pt x="439" y="701" on="1"/>
        <pt x="495" y="701" on="1"/>
        <pt x="495" y="186" on="1"/>
        <pt x="495" y="133" on="0"/>
        <pt x="458" y="55" on="0"/>
        <pt x="395" y="13" on="0"/>
        <pt x="325" y="-7" on="0"/>
        <pt x="245" y="-7" on="0"/>
        <pt x="174" y="13" on="0"/>
        <pt x="111" y="55" on="0"/>
        <pt x="74" y="133" on="0"/>
        <pt x="74" y="186" on="1"/>
        <pt x="74" y="701" on="1"/>
        <pt x="130" y="701" on="1"/>
        <pt x="130" y="178" on="1"/>
        <pt x="130" y="117" on="0"/>
        <pt x="219" y="43" on="0"/>
        <pt x="349" y="43" on="0"/>
        <pt x="439" y="117" on="0"/>
      </contour>
      <contour>
        <pt x="397" y="842" on="1"/>
        <pt x="397" y="837" on="1"/>
        <pt x="397" y="790" on="0"/>
        <pt x="330" y="724" on="0"/>
        <pt x="238" y="724" on="0"/>
        <pt x="171" y="790" on="0"/>
        <pt x="171" y="837" on="1"/>
        <pt x="171" y="842" on="1"/>
        <pt x="216" y="842" on="1"/>
        <pt x="216" y="837" on="1"/>
        <pt x="216" y="808" on="0"/>
        <pt x="256" y="769" on="0"/>
        <pt x="312" y="769" on="0"/>
        <pt x="352" y="808" on="0"/>
        <pt x="352" y="837" on="1"/>
        <pt x="352" y="842" on="1"/>
      </contour>
    </TTGlyph>
    <TTGlyph name="Ucircumflex" xMin="74" yMin="-7" xMax="495" yMax="913">
      <contour>
        <pt x="439" y="178" on="1"/>
        <pt x="439" y="701" on="1"/>
        <pt x="495" y="701" on="1"/>
        <pt x="495" y="186" on="1"/>
        <pt x="495" y="133" on="0"/>
        <pt x="458" y="55" on="0"/>
        <pt x="395" y="13" on="0"/>
        <pt x="325" y="-7" on="0"/>
        <pt x="245" y="-7" on="0"/>
        <pt x="174" y="13" on="0"/>
        <pt x="111" y="55" on="0"/>
        <pt x="74" y="133" on="0"/>
        <pt x="74" y="186" on="1"/>
        <pt x="74" y="701" on="1"/>
        <pt x="130" y="701" on="1"/>
        <pt x="130" y="178" on="1"/>
        <pt x="130" y="117" on="0"/>
        <pt x="219" y="43" on="0"/>
        <pt x="349" y="43" on="0"/>
        <pt x="439" y="117" on="0"/>
      </contour>
      <contour>
        <pt x="393" y="733" on="1"/>
        <pt x="288" y="837" on="1"/>
        <pt x="179" y="733" on="1"/>
        <pt x="141" y="772" on="1"/>
        <pt x="289" y="913" on="1"/>
        <pt x="431" y="772" on="1"/>
      </contour>
    </TTGlyph>
    <TTGlyph name="Udieresis" xMin="74" yMin="-7" xMax="495" yMax="797">
      <contour>
        <pt x="439" y="178" on="1"/>
        <pt x="439" y="701" on="1"/>
        <pt x="495" y="701" on="1"/>
        <pt x="495" y="186" on="1"/>
        <pt x="495" y="133" on="0"/>
        <pt x="458" y="55" on="0"/>
        <pt x="395" y="13" on="0"/>
        <pt x="325" y="-7" on="0"/>
        <pt x="245" y="-7" on="0"/>
        <pt x="174" y="13" on="0"/>
        <pt x="111" y="55" on="0"/>
        <pt x="74" y="133" on="0"/>
        <pt x="74" y="186" on="1"/>
        <pt x="74" y="701" on="1"/>
        <pt x="130" y="701" on="1"/>
        <pt x="130" y="178" on="1"/>
        <pt x="130" y="117" on="0"/>
        <pt x="219" y="43" on="0"/>
        <pt x="349" y="43" on="0"/>
        <pt x="439" y="117" on="0"/>
      </contour>
      <contour>
        <pt x="218" y="731" on="0"/>
        <pt x="192" y="731" on="0"/>
        <pt x="172" y="750" on="0"/>
        <pt x="172" y="778" on="0"/>
        <pt x="192" y="797" on="0"/>
        <pt x="218" y="797" on="0"/>
        <pt x="238" y="778" on="0"/>
        <pt x="238" y="750" on="0"/>
      </contour>
      <contour>
        <pt x="374" y="731" on="0"/>
        <pt x="348" y="731" on="0"/>
        <pt x="328" y="750" on="0"/>
        <pt x="328" y="778" on="0"/>
        <pt x="348" y="797" on="0"/>
        <pt x="374" y="797" on="0"/>
        <pt x="394" y="778" on="0"/>
        <pt x="394" y="750" on="0"/>
      </contour>
    </TTGlyph>
    <TTGlyph name="Ugrave" xMin="74" yMin="-7" xMax="495" yMax="873">
      <contour>
        <pt x="439" y="178" on="1"/>
        <pt x="439" y="701" on="1"/>
        <pt x="495" y="701" on="1"/>
        <pt x="495" y="186" on="1"/>
        <pt x="495" y="133" on="0"/>
        <pt x="458" y="55" on="0"/>
        <pt x="395" y="13" on="0"/>
        <pt x="325" y="-7" on="0"/>
        <pt x="245" y="-7" on="0"/>
        <pt x="174" y="13" on="0"/>
        <pt x="111" y="55" on="0"/>
        <pt x="74" y="133" on="0"/>
        <pt x="74" y="186" on="1"/>
        <pt x="74" y="701" on="1"/>
        <pt x="130" y="701" on="1"/>
        <pt x="130" y="178" on="1"/>
        <pt x="130" y="117" on="0"/>
        <pt x="219" y="43" on="0"/>
        <pt x="349" y="43" on="0"/>
        <pt x="439" y="117" on="0"/>
      </contour>
      <contour>
        <pt x="306" y="732" on="1"/>
        <pt x="262" y="732" on="1"/>
        <pt x="193" y="824" on="1"/>
        <pt x="188" y="830" on="0"/>
        <pt x="188" y="837" on="1"/>
        <pt x="188" y="864" on="0"/>
        <pt x="210" y="871" on="1"/>
        <pt x="217" y="873" on="0"/>
        <pt x="223" y="873" on="1"/>
        <pt x="244" y="873" on="0"/>
        <pt x="255" y="850" on="1"/>
      </contour>
    </TTGlyph>
    <TTGlyph name="Uhungarumlaut" xMin="74" yMin="-7" xMax="495" yMax="872">
      <contour>
        <pt x="439" y="178" on="1"/>
        <pt x="439" y="701" on="1"/>
        <pt x="495" y="701" on="1"/>
        <pt x="495" y="186" on="1"/>
        <pt x="495" y="133" on="0"/>
        <pt x="458" y="55" on="0"/>
        <pt x="395" y="13" on="0"/>
        <pt x="325" y="-7" on="0"/>
        <pt x="245" y="-7" on="0"/>
        <pt x="174" y="13" on="0"/>
        <pt x="111" y="55" on="0"/>
        <pt x="74" y="133" on="0"/>
        <pt x="74" y="186" on="1"/>
        <pt x="74" y="701" on="1"/>
        <pt x="130" y="701" on="1"/>
        <pt x="130" y="178" on="1"/>
        <pt x="130" y="117" on="0"/>
        <pt x="219" y="43" on="0"/>
        <pt x="349" y="43" on="0"/>
        <pt x="439" y="117" on="0"/>
      </contour>
      <contour>
        <pt x="357" y="731" on="1"/>
        <pt x="313" y="731" on="1"/>
        <pt x="364" y="849" on="1"/>
        <pt x="375" y="872" on="0"/>
        <pt x="396" y="872" on="1"/>
        <pt x="423" y="872" on="0"/>
        <pt x="430" y="849" on="1"/>
        <pt x="431" y="843" on="0"/>
        <pt x="431" y="829" on="0"/>
        <pt x="426" y="823" on="1"/>
      </contour>
      <contour>
        <pt x="245" y="731" on="1"/>
        <pt x="201" y="731" on="1"/>
        <pt x="252" y="849" on="1"/>
        <pt x="263" y="872" on="0"/>
        <pt x="284" y="872" on="1"/>
        <pt x="311" y="872" on="0"/>
        <pt x="318" y="849" on="1"/>
        <pt x="319" y="843" on="0"/>
        <pt x="319" y="829" on="0"/>
        <pt x="314" y="823" on="1"/>
      </contour>
    </TTGlyph>
    <TTGlyph name="Umacron" xMin="74" yMin="-7" xMax="495" yMax="788">
      <contour>
        <pt x="439" y="178" on="1"/>
        <pt x="439" y="701" on="1"/>
        <pt x="495" y="701" on="1"/>
        <pt x="495" y="186" on="1"/>
        <pt x="495" y="133" on="0"/>
        <pt x="458" y="55" on="0"/>
        <pt x="395" y="13" on="0"/>
        <pt x="325" y="-7" on="0"/>
        <pt x="245" y="-7" on="0"/>
        <pt x="174" y="13" on="0"/>
        <pt x="111" y="55" on="0"/>
        <pt x="74" y="133" on="0"/>
        <pt x="74" y="186" on="1"/>
        <pt x="74" y="701" on="1"/>
        <pt x="130" y="701" on="1"/>
        <pt x="130" y="178" on="1"/>
        <pt x="130" y="117" on="0"/>
        <pt x="219" y="43" on="0"/>
        <pt x="349" y="43" on="0"/>
        <pt x="439" y="117" on="0"/>
      </contour>
      <contour>
        <pt x="391" y="730" on="1"/>
        <pt x="174" y="730" on="1"/>
        <pt x="174" y="788" on="1"/>
        <pt x="391" y="788" on="1"/>
      </contour>
    </TTGlyph>
    <TTGlyph name="Uogonek" xMin="74" yMin="-213" xMax="495" yMax="701">
      <contour>
        <pt x="327" y="-125" on="1"/>
        <pt x="364" y="-163" on="1"/>
        <pt x="332" y="-213" on="0"/>
        <pt x="267" y="-213" on="1"/>
        <pt x="250" y="-213" on="0"/>
        <pt x="214" y="-204" on="0"/>
        <pt x="175" y="-164" on="0"/>
        <pt x="175" y="-131" on="1"/>
        <pt x="175" y="-66" on="0"/>
        <pt x="262" y="-6" on="1"/>
        <pt x="182" y="0" on="0"/>
        <pt x="74" y="92" on="0"/>
        <pt x="74" y="186" on="1"/>
        <pt x="74" y="701" on="1"/>
        <pt x="130" y="701" on="1"/>
        <pt x="130" y="178" on="1"/>
        <pt x="130" y="117" on="0"/>
        <pt x="219" y="43" on="0"/>
        <pt x="349" y="43" on="0"/>
        <pt x="439" y="117" on="0"/>
        <pt x="439" y="178" on="1"/>
        <pt x="439" y="701" on="1"/>
        <pt x="495" y="701" on="1"/>
        <pt x="495" y="186" on="1"/>
        <pt x="495" y="97" on="0"/>
        <pt x="397" y="4" on="0"/>
        <pt x="323" y="-4" on="1"/>
        <pt x="225" y="-86" on="0"/>
        <pt x="225" y="-127" on="1"/>
        <pt x="225" y="-142" on="0"/>
        <pt x="244" y="-166" on="0"/>
        <pt x="286" y="-166" on="0"/>
        <pt x="313" y="-147" on="0"/>
      </contour>
    </TTGlyph>
    <TTGlyph name="Upsilon" xMin="60" yMin="-7" xMax="504" yMax="700">
      <contour>
        <pt x="399" y="-7" on="1"/>
        <pt x="386" y="30" on="1"/>
        <pt x="447" y="53" on="0"/>
        <pt x="447" y="152" on="1"/>
        <pt x="447" y="294" on="1"/>
        <pt x="420" y="270" on="0"/>
        <pt x="330" y="245" on="0"/>
        <pt x="289" y="245" on="1"/>
        <pt x="183" y="245" on="0"/>
        <pt x="60" y="350" on="0"/>
        <pt x="60" y="453" on="1"/>
        <pt x="60" y="700" on="1"/>
        <pt x="116" y="700" on="1"/>
        <pt x="116" y="443" on="1"/>
        <pt x="116" y="373" on="0"/>
        <pt x="212" y="300" on="0"/>
        <pt x="348" y="300" on="0"/>
        <pt x="436" y="350" on="0"/>
        <pt x="447" y="400" on="1"/>
        <pt x="447" y="700" on="1"/>
        <pt x="504" y="700" on="1"/>
        <pt x="504" y="156" on="1"/>
        <pt x="504" y="83" on="0"/>
        <pt x="449" y="0" on="0"/>
      </contour>
    </TTGlyph>
    <TTGlyph name="Upsilon_alt" xMin="0" yMin="0" xMax="472" yMax="700">
      <contour>
        <pt x="264" y="0" on="1"/>
        <pt x="208" y="0" on="1"/>
        <pt x="208" y="340" on="1"/>
        <pt x="0" y="700" on="1"/>
        <pt x="63" y="700" on="1"/>
        <pt x="235" y="406" on="1"/>
        <pt x="409" y="700" on="1"/>
        <pt x="472" y="700" on="1"/>
        <pt x="264" y="342" on="1"/>
      </contour>
    </TTGlyph>
    <TTGlyph name="Upsilondieresis" xMin="78" yMin="-7" xMax="522" yMax="797">
      <contour>
        <pt x="417" y="-7" on="1"/>
        <pt x="404" y="30" on="1"/>
        <pt x="465" y="53" on="0"/>
        <pt x="465" y="152" on="1"/>
        <pt x="465" y="294" on="1"/>
        <pt x="438" y="270" on="0"/>
        <pt x="348" y="245" on="0"/>
        <pt x="307" y="245" on="1"/>
        <pt x="201" y="245" on="0"/>
        <pt x="78" y="350" on="0"/>
        <pt x="78" y="453" on="1"/>
        <pt x="78" y="700" on="1"/>
        <pt x="134" y="700" on="1"/>
        <pt x="134" y="443" on="1"/>
        <pt x="134" y="373" on="0"/>
        <pt x="230" y="300" on="0"/>
        <pt x="366" y="300" on="0"/>
        <pt x="454" y="350" on="0"/>
        <pt x="465" y="400" on="1"/>
        <pt x="465" y="700" on="1"/>
        <pt x="522" y="700" on="1"/>
        <pt x="522" y="156" on="1"/>
        <pt x="522" y="83" on="0"/>
        <pt x="467" y="0" on="0"/>
      </contour>
      <contour>
        <pt x="236" y="731" on="0"/>
        <pt x="210" y="731" on="0"/>
        <pt x="190" y="750" on="0"/>
        <pt x="190" y="778" on="0"/>
        <pt x="210" y="797" on="0"/>
        <pt x="236" y="797" on="0"/>
        <pt x="256" y="778" on="0"/>
        <pt x="256" y="750" on="0"/>
      </contour>
      <contour>
        <pt x="392" y="731" on="0"/>
        <pt x="366" y="731" on="0"/>
        <pt x="346" y="750" on="0"/>
        <pt x="346" y="778" on="0"/>
        <pt x="366" y="797" on="0"/>
        <pt x="392" y="797" on="0"/>
        <pt x="412" y="778" on="0"/>
        <pt x="412" y="750" on="0"/>
      </contour>
    </TTGlyph>
    <TTGlyph name="Upsilondieresis_alt" xMin="2" yMin="0" xMax="474" yMax="795">
      <contour>
        <pt x="168" y="729" on="0"/>
        <pt x="140" y="729" on="0"/>
        <pt x="121" y="748" on="0"/>
        <pt x="121" y="776" on="0"/>
        <pt x="140" y="795" on="0"/>
        <pt x="168" y="795" on="0"/>
        <pt x="187" y="776" on="0"/>
        <pt x="187" y="748" on="0"/>
      </contour>
      <contour>
        <pt x="324" y="729" on="0"/>
        <pt x="296" y="729" on="0"/>
        <pt x="277" y="748" on="0"/>
        <pt x="277" y="776" on="0"/>
        <pt x="296" y="795" on="0"/>
        <pt x="324" y="795" on="0"/>
        <pt x="343" y="776" on="0"/>
        <pt x="343" y="748" on="0"/>
      </contour>
      <contour>
        <pt x="266" y="0" on="1"/>
        <pt x="210" y="0" on="1"/>
        <pt x="210" y="340" on="1"/>
        <pt x="2" y="700" on="1"/>
        <pt x="65" y="700" on="1"/>
        <pt x="237" y="406" on="1"/>
        <pt x="411" y="700" on="1"/>
        <pt x="474" y="700" on="1"/>
        <pt x="266" y="342" on="1"/>
      </contour>
    </TTGlyph>
    <TTGlyph name="Upsilontonos" xMin="78" yMin="-7" xMax="681" yMax="709">
      <contour>
        <pt x="122" y="568" on="1"/>
        <pt x="78" y="568" on="1"/>
        <pt x="129" y="686" on="1"/>
        <pt x="140" y="709" on="0"/>
        <pt x="161" y="709" on="1"/>
        <pt x="188" y="709" on="0"/>
        <pt x="194" y="686" on="1"/>
        <pt x="199" y="670" on="0"/>
        <pt x="191" y="660" on="1"/>
      </contour>
      <contour>
        <pt x="576" y="-7" on="1"/>
        <pt x="563" y="30" on="1"/>
        <pt x="624" y="53" on="0"/>
        <pt x="624" y="152" on="1"/>
        <pt x="624" y="294" on="1"/>
        <pt x="597" y="270" on="0"/>
        <pt x="507" y="245" on="0"/>
        <pt x="466" y="245" on="1"/>
        <pt x="360" y="245" on="0"/>
        <pt x="237" y="350" on="0"/>
        <pt x="237" y="453" on="1"/>
        <pt x="237" y="700" on="1"/>
        <pt x="293" y="700" on="1"/>
        <pt x="293" y="443" on="1"/>
        <pt x="293" y="373" on="0"/>
        <pt x="389" y="300" on="0"/>
        <pt x="525" y="300" on="0"/>
        <pt x="613" y="350" on="0"/>
        <pt x="624" y="400" on="1"/>
        <pt x="624" y="700" on="1"/>
        <pt x="681" y="700" on="1"/>
        <pt x="681" y="156" on="1"/>
        <pt x="681" y="83" on="0"/>
        <pt x="626" y="0" on="0"/>
      </contour>
    </TTGlyph>
    <TTGlyph name="Upsilontonos_alt" xMin="78" yMin="0" xMax="710" yMax="709">
      <contour>
        <pt x="122" y="568" on="1"/>
        <pt x="78" y="568" on="1"/>
        <pt x="129" y="686" on="1"/>
        <pt x="140" y="709" on="0"/>
        <pt x="161" y="709" on="1"/>
        <pt x="188" y="709" on="0"/>
        <pt x="194" y="686" on="1"/>
        <pt x="199" y="670" on="0"/>
        <pt x="191" y="660" on="1"/>
      </contour>
      <contour>
        <pt x="502" y="0" on="1"/>
        <pt x="446" y="0" on="1"/>
        <pt x="446" y="340" on="1"/>
        <pt x="238" y="700" on="1"/>
        <pt x="301" y="700" on="1"/>
        <pt x="473" y="406" on="1"/>
        <pt x="647" y="700" on="1"/>
        <pt x="710" y="700" on="1"/>
        <pt x="502" y="342" on="1"/>
      </contour>
    </TTGlyph>
    <TTGlyph name="Uring" xMin="74" yMin="-7" xMax="495" yMax="883">
      <contour>
        <pt x="439" y="178" on="1"/>
        <pt x="439" y="701" on="1"/>
        <pt x="495" y="701" on="1"/>
        <pt x="495" y="186" on="1"/>
        <pt x="495" y="133" on="0"/>
        <pt x="458" y="55" on="0"/>
        <pt x="395" y="13" on="0"/>
        <pt x="325" y="-7" on="0"/>
        <pt x="245" y="-7" on="0"/>
        <pt x="174" y="13" on="0"/>
        <pt x="111" y="55" on="0"/>
        <pt x="74" y="133" on="0"/>
        <pt x="74" y="186" on="1"/>
        <pt x="74" y="701" on="1"/>
        <pt x="130" y="701" on="1"/>
        <pt x="130" y="178" on="1"/>
        <pt x="130" y="117" on="0"/>
        <pt x="219" y="43" on="0"/>
        <pt x="349" y="43" on="0"/>
        <pt x="439" y="117" on="0"/>
      </contour>
      <contour>
        <pt x="352" y="742" on="0"/>
        <pt x="352" y="798" on="0"/>
        <pt x="312" y="838" on="0"/>
        <pt x="256" y="838" on="0"/>
        <pt x="216" y="798" on="0"/>
        <pt x="216" y="742" on="0"/>
        <pt x="256" y="702" on="0"/>
        <pt x="312" y="702" on="0"/>
      </contour>
      <contour>
        <pt x="330" y="657" on="0"/>
        <pt x="238" y="657" on="0"/>
        <pt x="171" y="724" on="0"/>
        <pt x="171" y="816" on="0"/>
        <pt x="238" y="883" on="0"/>
        <pt x="330" y="883" on="0"/>
        <pt x="397" y="816" on="0"/>
        <pt x="397" y="724" on="0"/>
      </contour>
    </TTGlyph>
    <TTGlyph name="Utilde" xMin="74" yMin="-7" xMax="495" yMax="827">
      <contour>
        <pt x="439" y="178" on="1"/>
        <pt x="439" y="701" on="1"/>
        <pt x="495" y="701" on="1"/>
        <pt x="495" y="186" on="1"/>
        <pt x="495" y="133" on="0"/>
        <pt x="458" y="55" on="0"/>
        <pt x="395" y="13" on="0"/>
        <pt x="325" y="-7" on="0"/>
        <pt x="245" y="-7" on="0"/>
        <pt x="174" y="13" on="0"/>
        <pt x="111" y="55" on="0"/>
        <pt x="74" y="133" on="0"/>
        <pt x="74" y="186" on="1"/>
        <pt x="74" y="701" on="1"/>
        <pt x="130" y="701" on="1"/>
        <pt x="130" y="178" on="1"/>
        <pt x="130" y="117" on="0"/>
        <pt x="219" y="43" on="0"/>
        <pt x="349" y="43" on="0"/>
        <pt x="439" y="117" on="0"/>
      </contour>
      <contour>
        <pt x="359" y="786" on="1"/>
        <pt x="398" y="786" on="0"/>
        <pt x="429" y="821" on="1"/>
        <pt x="454" y="782" on="1"/>
        <pt x="409" y="729" on="0"/>
        <pt x="358" y="729" on="1"/>
        <pt x="340" y="729" on="0"/>
        <pt x="295" y="748" on="0"/>
        <pt x="245" y="771" on="0"/>
        <pt x="220" y="771" on="1"/>
        <pt x="179" y="771" on="0"/>
        <pt x="145" y="735" on="1"/>
        <pt x="120" y="774" on="1"/>
        <pt x="167" y="827" on="0"/>
        <pt x="220" y="827" on="1"/>
        <pt x="238" y="827" on="0"/>
        <pt x="283" y="809" on="0"/>
        <pt x="334" y="786" on="0"/>
      </contour>
    </TTGlyph>
    <TTGlyph name="V" xMin="78" yMin="0" xMax="556" yMax="700">
      <contour>
        <pt x="356" y="0" on="1"/>
        <pt x="279" y="0" on="1"/>
        <pt x="78" y="700" on="1"/>
        <pt x="138" y="700" on="1"/>
        <pt x="317" y="69" on="1"/>
        <pt x="496" y="700" on="1"/>
        <pt x="556" y="700" on="1"/>
      </contour>
    </TTGlyph>
    <TTGlyph name="W" xMin="78" yMin="0" xMax="774" yMax="700">
      <contour>
        <pt x="611" y="0" on="1"/>
        <pt x="526" y="0" on="1"/>
        <pt x="427" y="599" on="1"/>
        <pt x="328" y="0" on="1"/>
        <pt x="243" y="0" on="1"/>
        <pt x="78" y="700" on="1"/>
        <pt x="138" y="700" on="1"/>
        <pt x="281" y="69" on="1"/>
        <pt x="388" y="700" on="1"/>
        <pt x="466" y="700" on="1"/>
        <pt x="573" y="69" on="1"/>
        <pt x="714" y="700" on="1"/>
        <pt x="774" y="700" on="1"/>
      </contour>
    </TTGlyph>
    <TTGlyph name="X" xMin="78" yMin="0" xMax="585" yMax="700">
      <contour>
        <pt x="585" y="0" on="1"/>
        <pt x="516" y="0" on="1"/>
        <pt x="332" y="294" on="1"/>
        <pt x="147" y="0" on="1"/>
        <pt x="78" y="0" on="1"/>
        <pt x="299" y="352" on="1"/>
        <pt x="97" y="700" on="1"/>
        <pt x="160" y="700" on="1"/>
        <pt x="332" y="406" on="1"/>
        <pt x="506" y="700" on="1"/>
        <pt x="569" y="700" on="1"/>
        <pt x="366" y="352" on="1"/>
      </contour>
    </TTGlyph>
    <TTGlyph name="Xi" xMin="78" yMin="0" xMax="587" yMax="701">
      <contour>
        <pt x="469" y="358" on="1"/>
        <pt x="205" y="358" on="1"/>
        <pt x="205" y="413" on="1"/>
        <pt x="469" y="413" on="1"/>
      </contour>
      <contour>
        <pt x="527" y="649" on="1"/>
        <pt x="223" y="649" on="1"/>
        <pt x="145" y="649" on="0"/>
        <pt x="121" y="579" on="1"/>
        <pt x="78" y="595" on="1"/>
        <pt x="94" y="651" on="0"/>
        <pt x="164" y="701" on="0"/>
        <pt x="223" y="701" on="1"/>
        <pt x="548" y="701" on="1"/>
      </contour>
      <contour>
        <pt x="442" y="0" on="1"/>
        <pt x="117" y="0" on="1"/>
        <pt x="138" y="52" on="1"/>
        <pt x="442" y="52" on="1"/>
        <pt x="520" y="52" on="0"/>
        <pt x="544" y="122" on="1"/>
        <pt x="587" y="106" on="1"/>
        <pt x="571" y="50" on="0"/>
        <pt x="501" y="0" on="0"/>
      </contour>
    </TTGlyph>
    <TTGlyph name="Y" xMin="60" yMin="-7" xMax="504" yMax="700">
      <contour>
        <pt x="399" y="-7" on="1"/>
        <pt x="386" y="30" on="1"/>
        <pt x="447" y="53" on="0"/>
        <pt x="447" y="152" on="1"/>
        <pt x="447" y="294" on="1"/>
        <pt x="420" y="270" on="0"/>
        <pt x="330" y="245" on="0"/>
        <pt x="289" y="245" on="1"/>
        <pt x="183" y="245" on="0"/>
        <pt x="60" y="350" on="0"/>
        <pt x="60" y="453" on="1"/>
        <pt x="60" y="700" on="1"/>
        <pt x="116" y="700" on="1"/>
        <pt x="116" y="443" on="1"/>
        <pt x="116" y="373" on="0"/>
        <pt x="212" y="300" on="0"/>
        <pt x="348" y="300" on="0"/>
        <pt x="436" y="350" on="0"/>
        <pt x="447" y="400" on="1"/>
        <pt x="447" y="700" on="1"/>
        <pt x="504" y="700" on="1"/>
        <pt x="504" y="156" on="1"/>
        <pt x="504" y="83" on="0"/>
        <pt x="449" y="0" on="0"/>
      </contour>
    </TTGlyph>
    <TTGlyph name="Y_alt" xMin="2" yMin="0" xMax="474" yMax="700">
      <contour>
        <pt x="266" y="0" on="1"/>
        <pt x="210" y="0" on="1"/>
        <pt x="210" y="340" on="1"/>
        <pt x="2" y="700" on="1"/>
        <pt x="65" y="700" on="1"/>
        <pt x="237" y="406" on="1"/>
        <pt x="411" y="700" on="1"/>
        <pt x="474" y="700" on="1"/>
        <pt x="266" y="342" on="1"/>
      </contour>
    </TTGlyph>
    <TTGlyph name="Yacute" xMin="60" yMin="-7" xMax="504" yMax="872">
      <contour>
        <pt x="399" y="-7" on="1"/>
        <pt x="386" y="30" on="1"/>
        <pt x="447" y="53" on="0"/>
        <pt x="447" y="152" on="1"/>
        <pt x="447" y="294" on="1"/>
        <pt x="420" y="270" on="0"/>
        <pt x="330" y="245" on="0"/>
        <pt x="289" y="245" on="1"/>
        <pt x="183" y="245" on="0"/>
        <pt x="60" y="350" on="0"/>
        <pt x="60" y="453" on="1"/>
        <pt x="60" y="700" on="1"/>
        <pt x="116" y="700" on="1"/>
        <pt x="116" y="443" on="1"/>
        <pt x="116" y="373" on="0"/>
        <pt x="212" y="300" on="0"/>
        <pt x="348" y="300" on="0"/>
        <pt x="436" y="350" on="0"/>
        <pt x="447" y="400" on="1"/>
        <pt x="447" y="700" on="1"/>
        <pt x="504" y="700" on="1"/>
        <pt x="504" y="156" on="1"/>
        <pt x="504" y="83" on="0"/>
        <pt x="449" y="0" on="0"/>
      </contour>
      <contour>
        <pt x="306" y="731" on="1"/>
        <pt x="262" y="731" on="1"/>
        <pt x="313" y="849" on="1"/>
        <pt x="324" y="872" on="0"/>
        <pt x="345" y="872" on="1"/>
        <pt x="372" y="872" on="0"/>
        <pt x="378" y="849" on="1"/>
        <pt x="380" y="843" on="0"/>
        <pt x="380" y="829" on="0"/>
        <pt x="375" y="823" on="1"/>
      </contour>
    </TTGlyph>
    <TTGlyph name="Yacute_alt" xMin="2" yMin="0" xMax="474" yMax="872">
      <contour>
        <pt x="260" y="731" on="1"/>
        <pt x="216" y="731" on="1"/>
        <pt x="267" y="849" on="1"/>
        <pt x="278" y="872" on="0"/>
        <pt x="299" y="872" on="1"/>
        <pt x="326" y="872" on="0"/>
        <pt x="332" y="849" on="1"/>
        <pt x="337" y="833" on="0"/>
        <pt x="329" y="823" on="1"/>
      </contour>
      <contour>
        <pt x="266" y="0" on="1"/>
        <pt x="210" y="0" on="1"/>
        <pt x="210" y="340" on="1"/>
        <pt x="2" y="700" on="1"/>
        <pt x="65" y="700" on="1"/>
        <pt x="237" y="406" on="1"/>
        <pt x="411" y="700" on="1"/>
        <pt x="474" y="700" on="1"/>
        <pt x="266" y="342" on="1"/>
      </contour>
    </TTGlyph>
    <TTGlyph name="Ydieresis" xMin="60" yMin="-7" xMax="504" yMax="797">
      <contour>
        <pt x="399" y="-7" on="1"/>
        <pt x="386" y="30" on="1"/>
        <pt x="447" y="53" on="0"/>
        <pt x="447" y="152" on="1"/>
        <pt x="447" y="294" on="1"/>
        <pt x="420" y="270" on="0"/>
        <pt x="330" y="245" on="0"/>
        <pt x="289" y="245" on="1"/>
        <pt x="183" y="245" on="0"/>
        <pt x="60" y="350" on="0"/>
        <pt x="60" y="453" on="1"/>
        <pt x="60" y="700" on="1"/>
        <pt x="116" y="700" on="1"/>
        <pt x="116" y="443" on="1"/>
        <pt x="116" y="373" on="0"/>
        <pt x="212" y="300" on="0"/>
        <pt x="348" y="300" on="0"/>
        <pt x="436" y="350" on="0"/>
        <pt x="447" y="400" on="1"/>
        <pt x="447" y="700" on="1"/>
        <pt x="504" y="700" on="1"/>
        <pt x="504" y="156" on="1"/>
        <pt x="504" y="83" on="0"/>
        <pt x="449" y="0" on="0"/>
      </contour>
      <contour>
        <pt x="218" y="731" on="0"/>
        <pt x="190" y="731" on="0"/>
        <pt x="171" y="750" on="0"/>
        <pt x="171" y="778" on="0"/>
        <pt x="190" y="797" on="0"/>
        <pt x="218" y="797" on="0"/>
        <pt x="237" y="778" on="0"/>
        <pt x="237" y="750" on="0"/>
      </contour>
      <contour>
        <pt x="374" y="731" on="0"/>
        <pt x="346" y="731" on="0"/>
        <pt x="327" y="750" on="0"/>
        <pt x="327" y="778" on="0"/>
        <pt x="346" y="797" on="0"/>
        <pt x="374" y="797" on="0"/>
        <pt x="393" y="778" on="0"/>
        <pt x="393" y="750" on="0"/>
      </contour>
    </TTGlyph>
    <TTGlyph name="Ydieresis_alt" xMin="-3" yMin="0" xMax="469" yMax="797">
      <contour>
        <pt x="261" y="0" on="1"/>
        <pt x="205" y="0" on="1"/>
        <pt x="205" y="340" on="1"/>
        <pt x="-3" y="700" on="1"/>
        <pt x="60" y="700" on="1"/>
        <pt x="232" y="406" on="1"/>
        <pt x="406" y="700" on="1"/>
        <pt x="469" y="700" on="1"/>
        <pt x="261" y="342" on="1"/>
      </contour>
      <contour>
        <pt x="166" y="731" on="0"/>
        <pt x="140" y="731" on="0"/>
        <pt x="120" y="750" on="0"/>
        <pt x="120" y="778" on="0"/>
        <pt x="140" y="797" on="0"/>
        <pt x="166" y="797" on="0"/>
        <pt x="186" y="778" on="0"/>
        <pt x="186" y="750" on="0"/>
      </contour>
      <contour>
        <pt x="322" y="731" on="0"/>
        <pt x="296" y="731" on="0"/>
        <pt x="276" y="750" on="0"/>
        <pt x="276" y="778" on="0"/>
        <pt x="296" y="797" on="0"/>
        <pt x="322" y="797" on="0"/>
        <pt x="342" y="778" on="0"/>
        <pt x="342" y="750" on="0"/>
      </contour>
    </TTGlyph>
    <TTGlyph name="Z" xMin="31" yMin="0" xMax="518" yMax="700">
      <contour>
        <pt x="518" y="0" on="1"/>
        <pt x="31" y="0" on="1"/>
        <pt x="31" y="50" on="1"/>
        <pt x="441" y="649" on="1"/>
        <pt x="44" y="649" on="1"/>
        <pt x="44" y="700" on="1"/>
        <pt x="512" y="700" on="1"/>
        <pt x="512" y="650" on="1"/>
        <pt x="102" y="51" on="1"/>
        <pt x="518" y="51" on="1"/>
      </contour>
    </TTGlyph>
    <TTGlyph name="Zacute" xMin="31" yMin="0" xMax="518" yMax="926">
      <contour>
        <pt x="518" y="0" on="1"/>
        <pt x="31" y="0" on="1"/>
        <pt x="31" y="50" on="1"/>
        <pt x="441" y="649" on="1"/>
        <pt x="44" y="649" on="1"/>
        <pt x="44" y="700" on="1"/>
        <pt x="512" y="700" on="1"/>
        <pt x="512" y="650" on="1"/>
        <pt x="102" y="51" on="1"/>
        <pt x="518" y="51" on="1"/>
      </contour>
      <contour>
        <pt x="248" y="785" on="1"/>
        <pt x="204" y="785" on="1"/>
        <pt x="255" y="903" on="1"/>
        <pt x="266" y="926" on="0"/>
        <pt x="287" y="926" on="1"/>
        <pt x="314" y="926" on="0"/>
        <pt x="320" y="903" on="1"/>
        <pt x="322" y="897" on="0"/>
        <pt x="322" y="883" on="0"/>
        <pt x="317" y="877" on="1"/>
      </contour>
    </TTGlyph>
    <TTGlyph name="Zcaron" xMin="31" yMin="0" xMax="518" yMax="964">
      <contour>
        <pt x="518" y="0" on="1"/>
        <pt x="31" y="0" on="1"/>
        <pt x="31" y="50" on="1"/>
        <pt x="441" y="649" on="1"/>
        <pt x="44" y="649" on="1"/>
        <pt x="44" y="700" on="1"/>
        <pt x="512" y="700" on="1"/>
        <pt x="512" y="650" on="1"/>
        <pt x="102" y="51" on="1"/>
        <pt x="518" y="51" on="1"/>
      </contour>
      <contour>
        <pt x="444" y="925" on="1"/>
        <pt x="302" y="784" on="1"/>
        <pt x="154" y="925" on="1"/>
        <pt x="192" y="964" on="1"/>
        <pt x="301" y="860" on="1"/>
        <pt x="406" y="964" on="1"/>
      </contour>
    </TTGlyph>
    <TTGlyph name="Zdotaccent" xMin="31" yMin="0" xMax="518" yMax="793">
      <contour>
        <pt x="518" y="0" on="1"/>
        <pt x="31" y="0" on="1"/>
        <pt x="31" y="50" on="1"/>
        <pt x="441" y="649" on="1"/>
        <pt x="44" y="649" on="1"/>
        <pt x="44" y="700" on="1"/>
        <pt x="512" y="700" on="1"/>
        <pt x="512" y="650" on="1"/>
        <pt x="102" y="51" on="1"/>
        <pt x="518" y="51" on="1"/>
      </contour>
      <contour>
        <pt x="321" y="746" on="0"/>
        <pt x="301" y="726" on="0"/>
        <pt x="274" y="726" on="0"/>
        <pt x="254" y="746" on="0"/>
        <pt x="254" y="773" on="0"/>
        <pt x="274" y="793" on="0"/>
        <pt x="302" y="793" on="0"/>
        <pt x="321" y="774" on="0"/>
      </contour>
    </TTGlyph>
    <TTGlyph name="Zeta" xMin="78" yMin="0" xMax="565" yMax="700">
      <contour>
        <pt x="565" y="0" on="1"/>
        <pt x="78" y="0" on="1"/>
        <pt x="78" y="50" on="1"/>
        <pt x="488" y="649" on="1"/>
        <pt x="91" y="649" on="1"/>
        <pt x="91" y="700" on="1"/>
        <pt x="559" y="700" on="1"/>
        <pt x="559" y="650" on="1"/>
        <pt x="149" y="51" on="1"/>
        <pt x="565" y="51" on="1"/>
      </contour>
    </TTGlyph>
    <TTGlyph name="_196" xMin="78" yMin="0" xMax="583" yMax="700">
      <contour>
        <pt x="583" y="0" on="1"/>
        <pt x="78" y="0" on="1"/>
        <pt x="302" y="700" on="1"/>
        <pt x="355" y="700" on="1"/>
      </contour>
      <contour>
        <pt x="507" y="50" on="1"/>
        <pt x="328" y="613" on="1"/>
        <pt x="152" y="50" on="1"/>
      </contour>
    </TTGlyph>
    <TTGlyph name="a" xMin="37" yMin="-10" xMax="422" yMax="509">
      <contour>
        <pt x="256" y="-10" on="1"/>
        <pt x="37" y="-10" on="0"/>
        <pt x="37" y="169" on="1"/>
        <pt x="37" y="252" on="1"/>
        <pt x="37" y="351" on="0"/>
        <pt x="106" y="385" on="1"/>
        <pt x="142" y="402" on="0"/>
        <pt x="177" y="402" on="1"/>
        <pt x="295" y="402" on="0"/>
        <pt x="366" y="346" on="1"/>
        <pt x="366" y="401" on="0"/>
        <pt x="302" y="466" on="0"/>
        <pt x="211" y="466" on="1"/>
        <pt x="214" y="509" on="1"/>
        <pt x="295" y="509" on="0"/>
        <pt x="334" y="490" on="1"/>
        <pt x="355" y="479" on="0"/>
        <pt x="387" y="457" on="0"/>
        <pt x="405" y="421" on="0"/>
        <pt x="417" y="394" on="0"/>
        <pt x="419" y="371" on="1"/>
        <pt x="422" y="336" on="0"/>
        <pt x="422" y="298" on="1"/>
        <pt x="422" y="0" on="1"/>
        <pt x="318" y="-10" on="0"/>
      </contour>
      <contour>
        <pt x="366" y="46" on="1"/>
        <pt x="366" y="303" on="1"/>
        <pt x="283" y="343" on="0"/>
        <pt x="196" y="350" on="1"/>
        <pt x="190" y="351" on="0"/>
        <pt x="184" y="351" on="1"/>
        <pt x="146" y="351" on="0"/>
        <pt x="92" y="304" on="0"/>
        <pt x="92" y="249" on="1"/>
        <pt x="92" y="162" on="1"/>
        <pt x="92" y="79" on="0"/>
        <pt x="164" y="54" on="1"/>
        <pt x="206" y="39" on="0"/>
        <pt x="312" y="39" on="0"/>
      </contour>
    </TTGlyph>
    <TTGlyph name="aacute" xMin="78" yMin="-10" xMax="463" yMax="679">
      <contour>
        <pt x="297" y="-10" on="1"/>
        <pt x="78" y="-10" on="0"/>
        <pt x="78" y="169" on="1"/>
        <pt x="78" y="252" on="1"/>
        <pt x="78" y="351" on="0"/>
        <pt x="147" y="385" on="1"/>
        <pt x="183" y="402" on="0"/>
        <pt x="218" y="402" on="1"/>
        <pt x="336" y="402" on="0"/>
        <pt x="407" y="346" on="1"/>
        <pt x="407" y="401" on="0"/>
        <pt x="343" y="466" on="0"/>
        <pt x="252" y="466" on="1"/>
        <pt x="255" y="509" on="1"/>
        <pt x="336" y="509" on="0"/>
        <pt x="375" y="490" on="1"/>
        <pt x="396" y="479" on="0"/>
        <pt x="428" y="457" on="0"/>
        <pt x="446" y="421" on="0"/>
        <pt x="458" y="394" on="0"/>
        <pt x="460" y="371" on="1"/>
        <pt x="463" y="336" on="0"/>
        <pt x="463" y="298" on="1"/>
        <pt x="463" y="0" on="1"/>
        <pt x="359" y="-10" on="0"/>
      </contour>
      <contour>
        <pt x="407" y="46" on="1"/>
        <pt x="407" y="303" on="1"/>
        <pt x="324" y="343" on="0"/>
        <pt x="238" y="350" on="1"/>
        <pt x="231" y="351" on="0"/>
        <pt x="225" y="351" on="1"/>
        <pt x="187" y="351" on="0"/>
        <pt x="133" y="304" on="0"/>
        <pt x="133" y="249" on="1"/>
        <pt x="133" y="162" on="1"/>
        <pt x="133" y="79" on="0"/>
        <pt x="205" y="54" on="1"/>
        <pt x="247" y="39" on="0"/>
        <pt x="353" y="39" on="0"/>
      </contour>
      <contour>
        <pt x="302" y="538" on="1"/>
        <pt x="258" y="538" on="1"/>
        <pt x="309" y="656" on="1"/>
        <pt x="320" y="679" on="0"/>
        <pt x="341" y="679" on="1"/>
        <pt x="368" y="679" on="0"/>
        <pt x="374" y="656" on="1"/>
        <pt x="376" y="650" on="0"/>
        <pt x="376" y="636" on="0"/>
        <pt x="371" y="630" on="1"/>
      </contour>
    </TTGlyph>
    <TTGlyph name="abreve" xMin="78" yMin="-10" xMax="463" yMax="656">
      <contour>
        <pt x="297" y="-10" on="1"/>
        <pt x="78" y="-10" on="0"/>
        <pt x="78" y="169" on="1"/>
        <pt x="78" y="252" on="1"/>
        <pt x="78" y="351" on="0"/>
        <pt x="147" y="385" on="1"/>
        <pt x="183" y="402" on="0"/>
        <pt x="218" y="402" on="1"/>
        <pt x="336" y="402" on="0"/>
        <pt x="407" y="346" on="1"/>
        <pt x="407" y="401" on="0"/>
        <pt x="343" y="466" on="0"/>
        <pt x="252" y="466" on="1"/>
        <pt x="255" y="509" on="1"/>
        <pt x="336" y="509" on="0"/>
        <pt x="375" y="490" on="1"/>
        <pt x="396" y="479" on="0"/>
        <pt x="428" y="457" on="0"/>
        <pt x="446" y="421" on="0"/>
        <pt x="458" y="394" on="0"/>
        <pt x="460" y="371" on="1"/>
        <pt x="463" y="336" on="0"/>
        <pt x="463" y="298" on="1"/>
        <pt x="463" y="0" on="1"/>
        <pt x="359" y="-10" on="0"/>
      </contour>
      <contour>
        <pt x="407" y="46" on="1"/>
        <pt x="407" y="303" on="1"/>
        <pt x="324" y="343" on="0"/>
        <pt x="238" y="350" on="1"/>
        <pt x="231" y="351" on="0"/>
        <pt x="225" y="351" on="1"/>
        <pt x="187" y="351" on="0"/>
        <pt x="133" y="304" on="0"/>
        <pt x="133" y="249" on="1"/>
        <pt x="133" y="162" on="1"/>
        <pt x="133" y="79" on="0"/>
        <pt x="205" y="54" on="1"/>
        <pt x="247" y="39" on="0"/>
        <pt x="353" y="39" on="0"/>
      </contour>
      <contour>
        <pt x="422" y="656" on="1"/>
        <pt x="422" y="651" on="1"/>
        <pt x="422" y="604" on="0"/>
        <pt x="356" y="538" on="0"/>
        <pt x="262" y="538" on="0"/>
        <pt x="196" y="604" on="0"/>
        <pt x="196" y="651" on="1"/>
        <pt x="196" y="656" on="1"/>
        <pt x="241" y="656" on="1"/>
        <pt x="241" y="651" on="1"/>
        <pt x="241" y="622" on="0"/>
        <pt x="280" y="583" on="0"/>
        <pt x="338" y="583" on="0"/>
        <pt x="377" y="622" on="0"/>
        <pt x="377" y="651" on="1"/>
        <pt x="377" y="656" on="1"/>
      </contour>
    </TTGlyph>
    <TTGlyph name="acircumflex" xMin="78" yMin="-10" xMax="463" yMax="720">
      <contour>
        <pt x="297" y="-10" on="1"/>
        <pt x="78" y="-10" on="0"/>
        <pt x="78" y="169" on="1"/>
        <pt x="78" y="252" on="1"/>
        <pt x="78" y="351" on="0"/>
        <pt x="147" y="385" on="1"/>
        <pt x="183" y="402" on="0"/>
        <pt x="218" y="402" on="1"/>
        <pt x="336" y="402" on="0"/>
        <pt x="407" y="346" on="1"/>
        <pt x="407" y="401" on="0"/>
        <pt x="343" y="466" on="0"/>
        <pt x="252" y="466" on="1"/>
        <pt x="255" y="509" on="1"/>
        <pt x="336" y="509" on="0"/>
        <pt x="375" y="490" on="1"/>
        <pt x="396" y="479" on="0"/>
        <pt x="428" y="457" on="0"/>
        <pt x="446" y="421" on="0"/>
        <pt x="458" y="394" on="0"/>
        <pt x="460" y="371" on="1"/>
        <pt x="463" y="336" on="0"/>
        <pt x="463" y="298" on="1"/>
        <pt x="463" y="0" on="1"/>
        <pt x="359" y="-10" on="0"/>
      </contour>
      <contour>
        <pt x="407" y="46" on="1"/>
        <pt x="407" y="303" on="1"/>
        <pt x="324" y="343" on="0"/>
        <pt x="238" y="350" on="1"/>
        <pt x="231" y="351" on="0"/>
        <pt x="225" y="351" on="1"/>
        <pt x="187" y="351" on="0"/>
        <pt x="133" y="304" on="0"/>
        <pt x="133" y="249" on="1"/>
        <pt x="133" y="162" on="1"/>
        <pt x="133" y="79" on="0"/>
        <pt x="205" y="54" on="1"/>
        <pt x="247" y="39" on="0"/>
        <pt x="353" y="39" on="0"/>
      </contour>
      <contour>
        <pt x="386" y="540" on="1"/>
        <pt x="281" y="644" on="1"/>
        <pt x="172" y="540" on="1"/>
        <pt x="134" y="579" on="1"/>
        <pt x="282" y="720" on="1"/>
        <pt x="424" y="579" on="1"/>
      </contour>
    </TTGlyph>
    <TTGlyph name="acute" xMin="46" yMin="588" xMax="164" yMax="729">
      <contour>
        <pt x="90" y="588" on="1"/>
        <pt x="46" y="588" on="1"/>
        <pt x="97" y="706" on="1"/>
        <pt x="108" y="729" on="0"/>
        <pt x="129" y="729" on="1"/>
        <pt x="156" y="729" on="0"/>
        <pt x="162" y="706" on="1"/>
        <pt x="164" y="700" on="0"/>
        <pt x="164" y="686" on="0"/>
        <pt x="159" y="680" on="1"/>
      </contour>
    </TTGlyph>
    <TTGlyph name="adieresis" xMin="78" yMin="-10" xMax="463" yMax="605">
      <contour>
        <pt x="297" y="-10" on="1"/>
        <pt x="78" y="-10" on="0"/>
        <pt x="78" y="169" on="1"/>
        <pt x="78" y="252" on="1"/>
        <pt x="78" y="351" on="0"/>
        <pt x="147" y="385" on="1"/>
        <pt x="183" y="402" on="0"/>
        <pt x="218" y="402" on="1"/>
        <pt x="336" y="402" on="0"/>
        <pt x="407" y="346" on="1"/>
        <pt x="407" y="401" on="0"/>
        <pt x="343" y="466" on="0"/>
        <pt x="252" y="466" on="1"/>
        <pt x="255" y="509" on="1"/>
        <pt x="336" y="509" on="0"/>
        <pt x="375" y="490" on="1"/>
        <pt x="396" y="479" on="0"/>
        <pt x="428" y="457" on="0"/>
        <pt x="446" y="421" on="0"/>
        <pt x="458" y="394" on="0"/>
        <pt x="460" y="371" on="1"/>
        <pt x="463" y="336" on="0"/>
        <pt x="463" y="298" on="1"/>
        <pt x="463" y="0" on="1"/>
        <pt x="359" y="-10" on="0"/>
      </contour>
      <contour>
        <pt x="407" y="46" on="1"/>
        <pt x="407" y="303" on="1"/>
        <pt x="324" y="343" on="0"/>
        <pt x="238" y="350" on="1"/>
        <pt x="231" y="351" on="0"/>
        <pt x="225" y="351" on="1"/>
        <pt x="187" y="351" on="0"/>
        <pt x="133" y="304" on="0"/>
        <pt x="133" y="249" on="1"/>
        <pt x="133" y="162" on="1"/>
        <pt x="133" y="79" on="0"/>
        <pt x="205" y="54" on="1"/>
        <pt x="247" y="39" on="0"/>
        <pt x="353" y="39" on="0"/>
      </contour>
      <contour>
        <pt x="216" y="539" on="0"/>
        <pt x="190" y="539" on="0"/>
        <pt x="170" y="558" on="0"/>
        <pt x="170" y="586" on="0"/>
        <pt x="190" y="605" on="0"/>
        <pt x="216" y="605" on="0"/>
        <pt x="236" y="586" on="0"/>
        <pt x="236" y="558" on="0"/>
      </contour>
      <contour>
        <pt x="372" y="539" on="0"/>
        <pt x="346" y="539" on="0"/>
        <pt x="326" y="558" on="0"/>
        <pt x="326" y="586" on="0"/>
        <pt x="346" y="605" on="0"/>
        <pt x="372" y="605" on="0"/>
        <pt x="392" y="586" on="0"/>
        <pt x="392" y="558" on="0"/>
      </contour>
    </TTGlyph>
    <TTGlyph name="ae" xMin="78" yMin="-12" xMax="768" yMax="510">
      <contour>
        <pt x="575" y="37" on="1"/>
        <pt x="644" y="37" on="0"/>
        <pt x="721" y="78" on="1"/>
        <pt x="743" y="35" on="1"/>
        <pt x="665" y="-12" on="0"/>
        <pt x="569" y="-12" on="1"/>
        <pt x="504" y="-12" on="0"/>
        <pt x="463" y="15" on="1"/>
        <pt x="463" y="0" on="1"/>
        <pt x="359" y="-10" on="0"/>
        <pt x="297" y="-10" on="1"/>
        <pt x="78" y="-10" on="0"/>
        <pt x="78" y="169" on="1"/>
        <pt x="78" y="252" on="1"/>
        <pt x="78" y="351" on="0"/>
        <pt x="147" y="385" on="1"/>
        <pt x="183" y="402" on="0"/>
        <pt x="218" y="402" on="1"/>
        <pt x="336" y="402" on="0"/>
        <pt x="407" y="346" on="1"/>
        <pt x="407" y="401" on="0"/>
        <pt x="343" y="466" on="0"/>
        <pt x="252" y="466" on="1"/>
        <pt x="255" y="509" on="1"/>
        <pt x="391" y="509" on="0"/>
        <pt x="436" y="440" on="1"/>
        <pt x="486" y="510" on="0"/>
        <pt x="592" y="510" on="1"/>
        <pt x="675" y="510" on="0"/>
        <pt x="768" y="421" on="0"/>
        <pt x="768" y="342" on="1"/>
        <pt x="768" y="212" on="1"/>
        <pt x="464" y="195" on="1"/>
        <pt x="464" y="134" on="1"/>
        <pt x="464" y="80" on="0"/>
        <pt x="503" y="56" on="1"/>
        <pt x="533" y="37" on="0"/>
      </contour>
      <contour>
        <pt x="407" y="46" on="1"/>
        <pt x="407" y="303" on="1"/>
        <pt x="324" y="343" on="0"/>
        <pt x="238" y="350" on="1"/>
        <pt x="231" y="351" on="0"/>
        <pt x="225" y="351" on="1"/>
        <pt x="187" y="351" on="0"/>
        <pt x="133" y="304" on="0"/>
        <pt x="133" y="249" on="1"/>
        <pt x="133" y="162" on="1"/>
        <pt x="133" y="79" on="0"/>
        <pt x="205" y="54" on="1"/>
        <pt x="247" y="39" on="0"/>
        <pt x="353" y="39" on="0"/>
      </contour>
      <contour>
        <pt x="712" y="262" on="1"/>
        <pt x="712" y="349" on="1"/>
        <pt x="712" y="392" on="0"/>
        <pt x="666" y="447" on="0"/>
        <pt x="616" y="462" on="0"/>
        <pt x="591" y="462" on="1"/>
        <pt x="536" y="462" on="0"/>
        <pt x="464" y="402" on="0"/>
        <pt x="464" y="338" on="1"/>
        <pt x="464" y="250" on="1"/>
      </contour>
    </TTGlyph>
    <TTGlyph name="agrave" xMin="78" yMin="-10" xMax="463" yMax="681">
      <contour>
        <pt x="297" y="-10" on="1"/>
        <pt x="78" y="-10" on="0"/>
        <pt x="78" y="169" on="1"/>
        <pt x="78" y="252" on="1"/>
        <pt x="78" y="351" on="0"/>
        <pt x="147" y="385" on="1"/>
        <pt x="183" y="402" on="0"/>
        <pt x="218" y="402" on="1"/>
        <pt x="336" y="402" on="0"/>
        <pt x="407" y="346" on="1"/>
        <pt x="407" y="401" on="0"/>
        <pt x="343" y="466" on="0"/>
        <pt x="252" y="466" on="1"/>
        <pt x="255" y="509" on="1"/>
        <pt x="336" y="509" on="0"/>
        <pt x="375" y="490" on="1"/>
        <pt x="396" y="479" on="0"/>
        <pt x="428" y="457" on="0"/>
        <pt x="446" y="421" on="0"/>
        <pt x="458" y="394" on="0"/>
        <pt x="460" y="371" on="1"/>
        <pt x="463" y="336" on="0"/>
        <pt x="463" y="298" on="1"/>
        <pt x="463" y="0" on="1"/>
        <pt x="359" y="-10" on="0"/>
      </contour>
      <contour>
        <pt x="407" y="46" on="1"/>
        <pt x="407" y="303" on="1"/>
        <pt x="324" y="343" on="0"/>
        <pt x="238" y="350" on="1"/>
        <pt x="231" y="351" on="0"/>
        <pt x="225" y="351" on="1"/>
        <pt x="187" y="351" on="0"/>
        <pt x="133" y="304" on="0"/>
        <pt x="133" y="249" on="1"/>
        <pt x="133" y="162" on="1"/>
        <pt x="133" y="79" on="0"/>
        <pt x="205" y="54" on="1"/>
        <pt x="247" y="39" on="0"/>
        <pt x="353" y="39" on="0"/>
      </contour>
      <contour>
        <pt x="290" y="540" on="1"/>
        <pt x="246" y="540" on="1"/>
        <pt x="177" y="632" on="1"/>
        <pt x="172" y="638" on="0"/>
        <pt x="172" y="645" on="1"/>
        <pt x="172" y="672" on="0"/>
        <pt x="194" y="679" on="1"/>
        <pt x="201" y="681" on="0"/>
        <pt x="207" y="681" on="1"/>
        <pt x="228" y="681" on="0"/>
        <pt x="239" y="658" on="1"/>
      </contour>
    </TTGlyph>
    <TTGlyph name="alpha" xMin="78" yMin="-5" xMax="473" yMax="508">
      <contour>
        <pt x="226" y="508" on="1"/>
        <pt x="306" y="508" on="0"/>
        <pt x="387" y="467" on="1"/>
        <pt x="406" y="508" on="1"/>
        <pt x="450" y="486" on="1"/>
        <pt x="443" y="421" on="0"/>
        <pt x="443" y="389" on="1"/>
        <pt x="443" y="77" on="1"/>
        <pt x="449" y="49" on="0"/>
        <pt x="473" y="35" on="1"/>
        <pt x="446" y="2" on="1"/>
        <pt x="440" y="2" on="0"/>
        <pt x="413" y="5" on="0"/>
        <pt x="386" y="2" on="1"/>
        <pt x="312" y="-5" on="0"/>
        <pt x="231" y="-5" on="0"/>
        <pt x="189" y="5" on="0"/>
        <pt x="130" y="28" on="0"/>
        <pt x="115" y="47" on="1"/>
        <pt x="78" y="94" on="0"/>
        <pt x="78" y="169" on="1"/>
        <pt x="78" y="354" on="1"/>
        <pt x="78" y="410" on="0"/>
        <pt x="121" y="482" on="0"/>
        <pt x="186" y="508" on="0"/>
      </contour>
      <contour>
        <pt x="387" y="415" on="1"/>
        <pt x="283" y="456" on="0"/>
        <pt x="223" y="456" on="1"/>
        <pt x="205" y="456" on="0"/>
        <pt x="167" y="445" on="0"/>
        <pt x="133" y="395" on="0"/>
        <pt x="133" y="351" on="1"/>
        <pt x="133" y="162" on="1"/>
        <pt x="133" y="49" on="0"/>
        <pt x="252" y="46" on="1"/>
        <pt x="259" y="45" on="0"/>
        <pt x="318" y="45" on="0"/>
        <pt x="387" y="54" on="1"/>
      </contour>
    </TTGlyph>
    <TTGlyph name="alphatonos" xMin="78" yMin="-5" xMax="473" yMax="679">
      <contour>
        <pt x="226" y="508" on="1"/>
        <pt x="306" y="508" on="0"/>
        <pt x="387" y="467" on="1"/>
        <pt x="406" y="508" on="1"/>
        <pt x="450" y="486" on="1"/>
        <pt x="443" y="421" on="0"/>
        <pt x="443" y="389" on="1"/>
        <pt x="443" y="77" on="1"/>
        <pt x="449" y="49" on="0"/>
        <pt x="473" y="35" on="1"/>
        <pt x="446" y="2" on="1"/>
        <pt x="440" y="2" on="0"/>
        <pt x="413" y="5" on="0"/>
        <pt x="386" y="2" on="1"/>
        <pt x="312" y="-5" on="0"/>
        <pt x="231" y="-5" on="0"/>
        <pt x="189" y="5" on="0"/>
        <pt x="130" y="28" on="0"/>
        <pt x="115" y="47" on="1"/>
        <pt x="78" y="94" on="0"/>
        <pt x="78" y="169" on="1"/>
        <pt x="78" y="354" on="1"/>
        <pt x="78" y="410" on="0"/>
        <pt x="121" y="482" on="0"/>
        <pt x="186" y="508" on="0"/>
      </contour>
      <contour>
        <pt x="387" y="415" on="1"/>
        <pt x="283" y="456" on="0"/>
        <pt x="223" y="456" on="1"/>
        <pt x="205" y="456" on="0"/>
        <pt x="167" y="445" on="0"/>
        <pt x="133" y="395" on="0"/>
        <pt x="133" y="351" on="1"/>
        <pt x="133" y="162" on="1"/>
        <pt x="133" y="49" on="0"/>
        <pt x="252" y="46" on="1"/>
        <pt x="259" y="45" on="0"/>
        <pt x="318" y="45" on="0"/>
        <pt x="387" y="54" on="1"/>
      </contour>
      <contour>
        <pt x="281" y="538" on="1"/>
        <pt x="237" y="538" on="1"/>
        <pt x="288" y="656" on="1"/>
        <pt x="299" y="679" on="0"/>
        <pt x="320" y="679" on="1"/>
        <pt x="347" y="679" on="0"/>
        <pt x="354" y="656" on="1"/>
        <pt x="355" y="650" on="0"/>
        <pt x="355" y="636" on="0"/>
        <pt x="350" y="630" on="1"/>
      </contour>
    </TTGlyph>
    <TTGlyph name="amacron" xMin="78" yMin="-10" xMax="463" yMax="596">
      <contour>
        <pt x="297" y="-10" on="1"/>
        <pt x="78" y="-10" on="0"/>
        <pt x="78" y="169" on="1"/>
        <pt x="78" y="252" on="1"/>
        <pt x="78" y="351" on="0"/>
        <pt x="147" y="385" on="1"/>
        <pt x="183" y="402" on="0"/>
        <pt x="218" y="402" on="1"/>
        <pt x="336" y="402" on="0"/>
        <pt x="407" y="346" on="1"/>
        <pt x="407" y="401" on="0"/>
        <pt x="343" y="466" on="0"/>
        <pt x="252" y="466" on="1"/>
        <pt x="255" y="509" on="1"/>
        <pt x="336" y="509" on="0"/>
        <pt x="375" y="490" on="1"/>
        <pt x="396" y="479" on="0"/>
        <pt x="428" y="457" on="0"/>
        <pt x="446" y="421" on="0"/>
        <pt x="458" y="394" on="0"/>
        <pt x="460" y="371" on="1"/>
        <pt x="463" y="336" on="0"/>
        <pt x="463" y="298" on="1"/>
        <pt x="463" y="0" on="1"/>
        <pt x="359" y="-10" on="0"/>
      </contour>
      <contour>
        <pt x="407" y="46" on="1"/>
        <pt x="407" y="303" on="1"/>
        <pt x="324" y="343" on="0"/>
        <pt x="238" y="350" on="1"/>
        <pt x="231" y="351" on="0"/>
        <pt x="225" y="351" on="1"/>
        <pt x="187" y="351" on="0"/>
        <pt x="133" y="304" on="0"/>
        <pt x="133" y="249" on="1"/>
        <pt x="133" y="162" on="1"/>
        <pt x="133" y="79" on="0"/>
        <pt x="205" y="54" on="1"/>
        <pt x="247" y="39" on="0"/>
        <pt x="353" y="39" on="0"/>
      </contour>
      <contour>
        <pt x="386" y="538" on="1"/>
        <pt x="169" y="538" on="1"/>
        <pt x="169" y="596" on="1"/>
        <pt x="386" y="596" on="1"/>
      </contour>
    </TTGlyph>
    <TTGlyph name="ampersand" xMin="35" yMin="-11" xMax="517" yMax="711">
      <contour>
        <pt x="498" y="32" on="1"/>
        <pt x="482" y="-11" on="1"/>
        <pt x="444" y="0" on="0"/>
        <pt x="391" y="51" on="0"/>
        <pt x="384" y="87" on="1"/>
        <pt x="326" y="-11" on="0"/>
        <pt x="213" y="-11" on="1"/>
        <pt x="123" y="-11" on="0"/>
        <pt x="76" y="52" on="1"/>
        <pt x="35" y="107" on="0"/>
        <pt x="35" y="179" on="1"/>
        <pt x="35" y="242" on="0"/>
        <pt x="81" y="332" on="0"/>
        <pt x="150" y="387" on="0"/>
        <pt x="205" y="418" on="0"/>
        <pt x="245" y="435" on="1"/>
        <pt x="212" y="440" on="0"/>
        <pt x="186" y="472" on="1"/>
        <pt x="155" y="509" on="0"/>
        <pt x="155" y="566" on="1"/>
        <pt x="155" y="642" on="0"/>
        <pt x="219" y="684" on="1"/>
        <pt x="262" y="711" on="0"/>
        <pt x="345" y="711" on="0"/>
        <pt x="381" y="699" on="1"/>
        <pt x="350" y="653" on="1"/>
        <pt x="327" y="660" on="0"/>
        <pt x="273" y="660" on="0"/>
        <pt x="246" y="640" on="1"/>
        <pt x="210" y="611" on="0"/>
        <pt x="210" y="568" on="1"/>
        <pt x="210" y="507" on="0"/>
        <pt x="260" y="480" on="1"/>
        <pt x="289" y="464" on="0"/>
        <pt x="334" y="464" on="0"/>
        <pt x="348" y="467" on="1"/>
        <pt x="375" y="472" on="1"/>
        <pt x="375" y="609" on="1"/>
        <pt x="432" y="609" on="1"/>
        <pt x="432" y="484" on="1"/>
        <pt x="505" y="500" on="1"/>
        <pt x="517" y="447" on="1"/>
        <pt x="432" y="428" on="1"/>
        <pt x="432" y="141" on="1"/>
        <pt x="432" y="54" on="0"/>
      </contour>
      <contour>
        <pt x="375" y="219" on="1"/>
        <pt x="375" y="416" on="1"/>
        <pt x="229" y="383" on="0"/>
        <pt x="162" y="330" on="1"/>
        <pt x="135" y="308" on="0"/>
        <pt x="114" y="274" on="1"/>
        <pt x="90" y="233" on="0"/>
        <pt x="90" y="123" on="0"/>
        <pt x="154" y="43" on="0"/>
        <pt x="288" y="43" on="0"/>
        <pt x="375" y="150" on="0"/>
      </contour>
    </TTGlyph>
    <TTGlyph name="aogonek" xMin="37" yMin="-213" xMax="456" yMax="509">
      <contour>
        <pt x="421" y="0" on="1"/>
        <pt x="317" y="-87" on="0"/>
        <pt x="317" y="-127" on="1"/>
        <pt x="317" y="-142" on="0"/>
        <pt x="336" y="-166" on="0"/>
        <pt x="378" y="-166" on="0"/>
        <pt x="405" y="-147" on="0"/>
        <pt x="419" y="-125" on="1"/>
        <pt x="456" y="-163" on="1"/>
        <pt x="424" y="-213" on="0"/>
        <pt x="359" y="-213" on="1"/>
        <pt x="342" y="-213" on="0"/>
        <pt x="306" y="-204" on="0"/>
        <pt x="267" y="-164" on="0"/>
        <pt x="267" y="-131" on="1"/>
        <pt x="267" y="-66" on="0"/>
        <pt x="353" y="-6" on="1"/>
        <pt x="255" y="-10" on="0"/>
        <pt x="212" y="-10" on="0"/>
        <pt x="137" y="7" on="0"/>
        <pt x="74" y="42" on="0"/>
        <pt x="37" y="116" on="0"/>
        <pt x="37" y="169" on="1"/>
        <pt x="37" y="252" on="1"/>
        <pt x="37" y="351" on="0"/>
        <pt x="106" y="385" on="1"/>
        <pt x="142" y="402" on="0"/>
        <pt x="177" y="402" on="1"/>
        <pt x="295" y="402" on="0"/>
        <pt x="366" y="346" on="1"/>
        <pt x="366" y="401" on="0"/>
        <pt x="302" y="466" on="0"/>
        <pt x="211" y="466" on="1"/>
        <pt x="214" y="509" on="1"/>
        <pt x="295" y="509" on="0"/>
        <pt x="334" y="490" on="1"/>
        <pt x="355" y="479" on="0"/>
        <pt x="387" y="457" on="0"/>
        <pt x="405" y="421" on="0"/>
        <pt x="417" y="394" on="0"/>
        <pt x="419" y="371" on="1"/>
        <pt x="422" y="336" on="0"/>
        <pt x="422" y="298" on="1"/>
        <pt x="422" y="0" on="1"/>
      </contour>
      <contour>
        <pt x="366" y="46" on="1"/>
        <pt x="366" y="303" on="1"/>
        <pt x="283" y="343" on="0"/>
        <pt x="196" y="350" on="1"/>
        <pt x="190" y="351" on="0"/>
        <pt x="184" y="351" on="1"/>
        <pt x="146" y="351" on="0"/>
        <pt x="92" y="304" on="0"/>
        <pt x="92" y="249" on="1"/>
        <pt x="92" y="162" on="1"/>
        <pt x="92" y="79" on="0"/>
        <pt x="164" y="54" on="1"/>
        <pt x="206" y="39" on="0"/>
        <pt x="312" y="39" on="0"/>
      </contour>
    </TTGlyph>
    <TTGlyph name="aring" xMin="78" yMin="-10" xMax="463" yMax="692">
      <contour>
        <pt x="261" y="466" on="1"/>
        <pt x="252" y="466" on="1"/>
        <pt x="208" y="470" on="0"/>
        <pt x="148" y="535" on="0"/>
        <pt x="148" y="626" on="0"/>
        <pt x="214" y="692" on="0"/>
        <pt x="308" y="692" on="0"/>
        <pt x="374" y="626" on="0"/>
        <pt x="374" y="533" on="0"/>
        <pt x="341" y="500" on="1"/>
        <pt x="403" y="485" on="0"/>
        <pt x="427" y="452" on="1"/>
        <pt x="440" y="434" on="0"/>
        <pt x="456" y="404" on="0"/>
        <pt x="459" y="379" on="1"/>
        <pt x="463" y="346" on="0"/>
        <pt x="463" y="298" on="1"/>
        <pt x="463" y="0" on="1"/>
        <pt x="359" y="-10" on="0"/>
        <pt x="297" y="-10" on="1"/>
        <pt x="78" y="-10" on="0"/>
        <pt x="78" y="169" on="1"/>
        <pt x="78" y="252" on="1"/>
        <pt x="78" y="351" on="0"/>
        <pt x="147" y="385" on="1"/>
        <pt x="183" y="402" on="0"/>
        <pt x="218" y="402" on="1"/>
        <pt x="336" y="402" on="0"/>
        <pt x="407" y="346" on="1"/>
        <pt x="407" y="399" on="0"/>
        <pt x="347" y="464" on="0"/>
      </contour>
      <contour>
        <pt x="407" y="46" on="1"/>
        <pt x="407" y="303" on="1"/>
        <pt x="324" y="343" on="0"/>
        <pt x="238" y="350" on="1"/>
        <pt x="231" y="351" on="0"/>
        <pt x="225" y="351" on="1"/>
        <pt x="187" y="351" on="0"/>
        <pt x="133" y="304" on="0"/>
        <pt x="133" y="249" on="1"/>
        <pt x="133" y="162" on="1"/>
        <pt x="133" y="79" on="0"/>
        <pt x="205" y="54" on="1"/>
        <pt x="247" y="39" on="0"/>
        <pt x="353" y="39" on="0"/>
      </contour>
      <contour>
        <pt x="329" y="550" on="0"/>
        <pt x="329" y="608" on="0"/>
        <pt x="290" y="647" on="0"/>
        <pt x="232" y="647" on="0"/>
        <pt x="193" y="608" on="0"/>
        <pt x="193" y="550" on="0"/>
        <pt x="232" y="511" on="0"/>
        <pt x="290" y="511" on="0"/>
      </contour>
    </TTGlyph>
    <TTGlyph name="asciicircum" xMin="78" yMin="719" xMax="368" yMax="899">
      <contour>
        <pt x="330" y="719" on="1"/>
        <pt x="225" y="823" on="1"/>
        <pt x="116" y="719" on="1"/>
        <pt x="78" y="758" on="1"/>
        <pt x="226" y="899" on="1"/>
        <pt x="368" y="758" on="1"/>
      </contour>
    </TTGlyph>
    <TTGlyph name="asciitilde" xMin="78" yMin="281" xMax="483" yMax="379">
      <contour>
        <pt x="371" y="342" on="1"/>
        <pt x="425" y="342" on="0"/>
        <pt x="456" y="379" on="1"/>
        <pt x="483" y="341" on="1"/>
        <pt x="439" y="284" on="0"/>
        <pt x="369" y="284" on="1"/>
        <pt x="341" y="284" on="0"/>
        <pt x="251" y="312" on="1"/>
        <pt x="223" y="320" on="0"/>
        <pt x="196" y="320" on="1"/>
        <pt x="139" y="320" on="0"/>
        <pt x="104" y="281" on="1"/>
        <pt x="78" y="319" on="1"/>
        <pt x="124" y="376" on="0"/>
        <pt x="195" y="376" on="1"/>
        <pt x="222" y="376" on="0"/>
        <pt x="343" y="342" on="0"/>
      </contour>
    </TTGlyph>
    <TTGlyph name="asterisk" xMin="24" yMin="419" xMax="328" yMax="700">
      <contour>
        <pt x="285" y="450" on="1"/>
        <pt x="244" y="419" on="1"/>
        <pt x="175" y="515" on="1"/>
        <pt x="110" y="419" on="1"/>
        <pt x="65" y="450" on="1"/>
        <pt x="130" y="541" on="1"/>
        <pt x="24" y="579" on="1"/>
        <pt x="42" y="627" on="1"/>
        <pt x="148" y="587" on="1"/>
        <pt x="148" y="700" on="1"/>
        <pt x="201" y="700" on="1"/>
        <pt x="201" y="587" on="1"/>
        <pt x="308" y="627" on="1"/>
        <pt x="328" y="579" on="1"/>
        <pt x="219" y="541" on="1"/>
      </contour>
    </TTGlyph>
    <TTGlyph name="at" xMin="24" yMin="-66" xMax="683" yMax="579">
      <contour>
        <pt x="320" y="54" on="1"/>
        <pt x="158" y="54" on="0"/>
        <pt x="147" y="204" on="1"/>
        <pt x="147" y="305" on="1"/>
        <pt x="147" y="416" on="0"/>
        <pt x="235" y="449" on="1"/>
        <pt x="269" y="462" on="0"/>
        <pt x="309" y="462" on="1"/>
        <pt x="382" y="462" on="0"/>
        <pt x="473" y="418" on="1"/>
        <pt x="467" y="476" on="0"/>
        <pt x="384" y="528" on="0"/>
        <pt x="274" y="528" on="0"/>
        <pt x="194" y="511" on="0"/>
        <pt x="158" y="491" on="1"/>
        <pt x="80" y="449" on="0"/>
        <pt x="80" y="342" on="1"/>
        <pt x="80" y="190" on="1"/>
        <pt x="80" y="119" on="0"/>
        <pt x="151" y="26" on="0"/>
        <pt x="256" y="-11" on="0"/>
        <pt x="323" y="-11" on="1"/>
        <pt x="439" y="-11" on="0"/>
        <pt x="595" y="79" on="0"/>
        <pt x="595" y="162" on="1"/>
        <pt x="595" y="345" on="1"/>
        <pt x="595" y="418" on="0"/>
        <pt x="605" y="442" on="1"/>
        <pt x="622" y="477" on="0"/>
        <pt x="668" y="492" on="1"/>
        <pt x="683" y="454" on="1"/>
        <pt x="649" y="439" on="0"/>
        <pt x="649" y="384" on="1"/>
        <pt x="650" y="171" on="1"/>
        <pt x="650" y="108" on="0"/>
        <pt x="589" y="12" on="0"/>
        <pt x="539" y="-14" on="1"/>
        <pt x="439" y="-66" on="0"/>
        <pt x="195" y="-66" on="0"/>
        <pt x="24" y="58" on="0"/>
        <pt x="24" y="183" on="1"/>
        <pt x="24" y="342" on="1"/>
        <pt x="24" y="397" on="0"/>
        <pt x="60" y="483" on="0"/>
        <pt x="90" y="508" on="1"/>
        <pt x="145" y="553" on="0"/>
        <pt x="261" y="579" on="0"/>
        <pt x="366" y="579" on="0"/>
        <pt x="468" y="551" on="0"/>
        <pt x="532" y="466" on="0"/>
        <pt x="532" y="399" on="1"/>
        <pt x="569" y="383" on="1"/>
        <pt x="569" y="334" on="1"/>
        <pt x="532" y="350" on="1"/>
        <pt x="532" y="91" on="1"/>
        <pt x="396" y="54" on="0"/>
      </contour>
      <contour>
        <pt x="476" y="367" on="1"/>
        <pt x="389" y="410" on="0"/>
        <pt x="303" y="410" on="1"/>
        <pt x="259" y="410" on="0"/>
        <pt x="202" y="356" on="0"/>
        <pt x="202" y="302" on="1"/>
        <pt x="202" y="204" on="1"/>
        <pt x="203" y="129" on="0"/>
        <pt x="276" y="110" on="1"/>
        <pt x="299" y="104" on="0"/>
        <pt x="327" y="104" on="1"/>
        <pt x="389" y="104" on="0"/>
        <pt x="476" y="133" on="1"/>
      </contour>
    </TTGlyph>
    <TTGlyph name="atilde" xMin="78" yMin="-10" xMax="463" yMax="638">
      <contour>
        <pt x="297" y="-10" on="1"/>
        <pt x="78" y="-10" on="0"/>
        <pt x="78" y="169" on="1"/>
        <pt x="78" y="252" on="1"/>
        <pt x="78" y="351" on="0"/>
        <pt x="147" y="385" on="1"/>
        <pt x="183" y="402" on="0"/>
        <pt x="218" y="402" on="1"/>
        <pt x="336" y="402" on="0"/>
        <pt x="407" y="346" on="1"/>
        <pt x="407" y="401" on="0"/>
        <pt x="343" y="466" on="0"/>
        <pt x="252" y="466" on="1"/>
        <pt x="255" y="509" on="1"/>
        <pt x="336" y="509" on="0"/>
        <pt x="375" y="490" on="1"/>
        <pt x="396" y="479" on="0"/>
        <pt x="428" y="457" on="0"/>
        <pt x="446" y="421" on="0"/>
        <pt x="458" y="394" on="0"/>
        <pt x="460" y="371" on="1"/>
        <pt x="463" y="336" on="0"/>
        <pt x="463" y="298" on="1"/>
        <pt x="463" y="0" on="1"/>
        <pt x="359" y="-10" on="0"/>
      </contour>
      <contour>
        <pt x="407" y="46" on="1"/>
        <pt x="407" y="303" on="1"/>
        <pt x="324" y="343" on="0"/>
        <pt x="238" y="350" on="1"/>
        <pt x="231" y="351" on="0"/>
        <pt x="225" y="351" on="1"/>
        <pt x="187" y="351" on="0"/>
        <pt x="133" y="304" on="0"/>
        <pt x="133" y="249" on="1"/>
        <pt x="133" y="162" on="1"/>
        <pt x="133" y="79" on="0"/>
        <pt x="205" y="54" on="1"/>
        <pt x="247" y="39" on="0"/>
        <pt x="353" y="39" on="0"/>
      </contour>
      <contour>
        <pt x="342" y="597" on="1"/>
        <pt x="381" y="597" on="0"/>
        <pt x="412" y="632" on="1"/>
        <pt x="437" y="593" on="1"/>
        <pt x="392" y="540" on="0"/>
        <pt x="341" y="540" on="1"/>
        <pt x="323" y="540" on="0"/>
        <pt x="278" y="559" on="0"/>
        <pt x="228" y="582" on="0"/>
        <pt x="203" y="582" on="1"/>
        <pt x="162" y="582" on="0"/>
        <pt x="128" y="546" on="1"/>
        <pt x="103" y="585" on="1"/>
        <pt x="150" y="638" on="0"/>
        <pt x="203" y="638" on="1"/>
        <pt x="221" y="638" on="0"/>
        <pt x="266" y="620" on="0"/>
        <pt x="317" y="597" on="0"/>
      </contour>
    </TTGlyph>
    <TTGlyph name="b" xMin="78" yMin="-12" xMax="447" yMax="700">
      <contour>
        <pt x="134" y="474" on="1"/>
        <pt x="183" y="509" on="0"/>
        <pt x="266" y="509" on="1"/>
        <pt x="321" y="509" on="0"/>
        <pt x="362" y="490" on="1"/>
        <pt x="447" y="451" on="0"/>
        <pt x="447" y="346" on="1"/>
        <pt x="447" y="157" on="1"/>
        <pt x="447" y="58" on="0"/>
        <pt x="369" y="18" on="1"/>
        <pt x="310" y="-12" on="0"/>
        <pt x="164" y="-12" on="0"/>
        <pt x="78" y="0" on="1"/>
        <pt x="78" y="700" on="1"/>
        <pt x="134" y="700" on="1"/>
      </contour>
      <contour>
        <pt x="134" y="425" on="1"/>
        <pt x="134" y="48" on="1"/>
        <pt x="190" y="39" on="0"/>
        <pt x="235" y="39" on="1"/>
        <pt x="392" y="39" on="0"/>
        <pt x="392" y="156" on="1"/>
        <pt x="392" y="343" on="1"/>
        <pt x="392" y="395" on="0"/>
        <pt x="364" y="424" on="1"/>
        <pt x="330" y="459" on="0"/>
        <pt x="195" y="459" on="0"/>
      </contour>
    </TTGlyph>
    <TTGlyph name="backslash" xMin="70" yMin="-114" xMax="451" yMax="817">
      <contour>
        <pt x="451" y="-114" on="1"/>
        <pt x="390" y="-114" on="1"/>
        <pt x="70" y="817" on="1"/>
        <pt x="127" y="817" on="1"/>
      </contour>
    </TTGlyph>
    <TTGlyph name="bar" xMin="78" yMin="-114" xMax="134" yMax="817">
      <contour>
        <pt x="134" y="-114" on="1"/>
        <pt x="78" y="-114" on="1"/>
        <pt x="78" y="817" on="1"/>
        <pt x="134" y="817" on="1"/>
      </contour>
    </TTGlyph>
    <TTGlyph name="beta" xMin="78" yMin="-161" xMax="448" yMax="701">
      <contour>
        <pt x="313" y="494" on="1"/>
        <pt x="372" y="483" on="0"/>
        <pt x="448" y="397" on="0"/>
        <pt x="448" y="330" on="1"/>
        <pt x="448" y="146" on="1"/>
        <pt x="448" y="83" on="0"/>
        <pt x="389" y="6" on="0"/>
        <pt x="289" y="-19" on="0"/>
        <pt x="191" y="-19" on="0"/>
        <pt x="134" y="-9" on="1"/>
        <pt x="134" y="-161" on="1"/>
        <pt x="78" y="-161" on="1"/>
        <pt x="78" y="537" on="1"/>
        <pt x="78" y="614" on="0"/>
        <pt x="147" y="701" on="0"/>
        <pt x="218" y="701" on="1"/>
        <pt x="261" y="701" on="0"/>
        <pt x="292" y="678" on="1"/>
        <pt x="345" y="640" on="0"/>
        <pt x="345" y="525" on="0"/>
      </contour>
      <contour>
        <pt x="267" y="443" on="1"/>
        <pt x="192" y="443" on="0"/>
        <pt x="135" y="413" on="1"/>
        <pt x="135" y="40" on="1"/>
        <pt x="194" y="30" on="0"/>
        <pt x="239" y="30" on="1"/>
        <pt x="393" y="30" on="0"/>
        <pt x="393" y="141" on="1"/>
        <pt x="393" y="327" on="1"/>
        <pt x="393" y="379" on="0"/>
        <pt x="337" y="438" on="0"/>
        <pt x="296" y="442" on="1"/>
        <pt x="281" y="443" on="0"/>
      </contour>
      <contour>
        <pt x="135" y="541" on="1"/>
        <pt x="135" y="463" on="1"/>
        <pt x="185" y="489" on="0"/>
        <pt x="247" y="508" on="1"/>
        <pt x="288" y="520" on="0"/>
        <pt x="288" y="570" on="1"/>
        <pt x="288" y="594" on="0"/>
        <pt x="254" y="647" on="0"/>
        <pt x="218" y="647" on="1"/>
        <pt x="135" y="647" on="0"/>
      </contour>
    </TTGlyph>
    <TTGlyph name="braceleft" xMin="78" yMin="-116" xMax="276" yMax="822">
      <contour>
        <pt x="276" y="-79" on="1"/>
        <pt x="258" y="-116" on="1"/>
        <pt x="192" y="-78" on="0"/>
        <pt x="152" y="17" on="0"/>
        <pt x="152" y="140" on="1"/>
        <pt x="152" y="247" on="1"/>
        <pt x="152" y="266" on="0"/>
        <pt x="120" y="315" on="0"/>
        <pt x="99" y="335" on="0"/>
        <pt x="78" y="354" on="1"/>
        <pt x="102" y="373" on="0"/>
        <pt x="150" y="435" on="0"/>
        <pt x="150" y="462" on="1"/>
        <pt x="150" y="567" on="1"/>
        <pt x="150" y="651" on="0"/>
        <pt x="168" y="742" on="0"/>
        <pt x="211" y="796" on="0"/>
        <pt x="256" y="822" on="1"/>
        <pt x="274" y="785" on="1"/>
        <pt x="206" y="734" on="0"/>
        <pt x="206" y="641" on="1"/>
        <pt x="206" y="456" on="1"/>
        <pt x="206" y="413" on="0"/>
        <pt x="148" y="355" on="1"/>
        <pt x="208" y="295" on="0"/>
        <pt x="208" y="253" on="1"/>
        <pt x="208" y="65" on="1"/>
        <pt x="208" y="-28" on="0"/>
      </contour>
    </TTGlyph>
    <TTGlyph name="braceright" xMin="78" yMin="-116" xMax="276" yMax="822">
      <contour>
        <pt x="96" y="-116" on="1"/>
        <pt x="78" y="-79" on="1"/>
        <pt x="146" y="-28" on="0"/>
        <pt x="146" y="65" on="1"/>
        <pt x="146" y="253" on="1"/>
        <pt x="146" y="295" on="0"/>
        <pt x="206" y="355" on="1"/>
        <pt x="148" y="413" on="0"/>
        <pt x="148" y="456" on="1"/>
        <pt x="148" y="641" on="1"/>
        <pt x="148" y="734" on="0"/>
        <pt x="80" y="785" on="1"/>
        <pt x="98" y="822" on="1"/>
        <pt x="143" y="796" on="0"/>
        <pt x="186" y="742" on="0"/>
        <pt x="204" y="651" on="0"/>
        <pt x="204" y="567" on="1"/>
        <pt x="204" y="462" on="1"/>
        <pt x="204" y="435" on="0"/>
        <pt x="252" y="373" on="0"/>
        <pt x="276" y="354" on="1"/>
        <pt x="255" y="335" on="0"/>
        <pt x="234" y="315" on="0"/>
        <pt x="202" y="266" on="0"/>
        <pt x="202" y="247" on="1"/>
        <pt x="202" y="140" on="1"/>
        <pt x="202" y="17" on="0"/>
        <pt x="162" y="-78" on="0"/>
      </contour>
    </TTGlyph>
    <TTGlyph name="bracketleft" xMin="78" yMin="-114" xMax="239" yMax="817">
      <contour>
        <pt x="239" y="-114" on="1"/>
        <pt x="78" y="-114" on="1"/>
        <pt x="78" y="817" on="1"/>
        <pt x="239" y="817" on="1"/>
        <pt x="239" y="772" on="1"/>
        <pt x="134" y="762" on="1"/>
        <pt x="134" y="-59" on="1"/>
        <pt x="239" y="-69" on="1"/>
      </contour>
    </TTGlyph>
    <TTGlyph name="bracketright" xMin="78" yMin="-114" xMax="239" yMax="817">
      <contour>
        <pt x="239" y="-114" on="1"/>
        <pt x="78" y="-114" on="1"/>
        <pt x="78" y="-69" on="1"/>
        <pt x="183" y="-59" on="1"/>
        <pt x="183" y="762" on="1"/>
        <pt x="78" y="772" on="1"/>
        <pt x="78" y="817" on="1"/>
        <pt x="239" y="817" on="1"/>
      </contour>
    </TTGlyph>
</ttFont>
